<svg width="25" height="38" viewBox="0 0 25 38" fill="none" xmlns="http://www.w3.org/2000/svg">
<g id="Group 28">
<path id="path362" d="M1.95396 12.0928C1.84241 12.0827 1.70685 12.0842 1.56751 12.0789C1.42816 12.076 1.28466 12.0686 1.1547 12.0751C0.895495 12.0816 0.692432 12.0867 0.692432 12.0867C0.692432 12.0867 0.894771 12.102 1.15289 12.1215C1.28177 12.1284 1.42364 12.1499 1.56101 12.1665C1.69819 12.1856 1.8314 12.197 1.9406 12.2183C1.99818 12.2616 2.08031 12.3204 2.18229 12.3854C2.28391 12.4515 2.40612 12.519 2.54186 12.5982C2.67795 12.6764 2.83102 12.7455 2.99509 12.8166C3.07722 12.8529 3.1626 12.8868 3.25122 12.9172C3.33985 12.9486 3.43317 12.9708 3.52703 13C3.69743 13.0491 3.86548 13.0594 4.02269 13.0538C4.17829 13.0527 4.32449 13.0305 4.45139 13.0015C4.51456 12.9872 4.5734 12.9702 4.62503 12.9556C4.67629 12.9415 4.72141 12.9273 4.75878 12.9146C4.83314 12.8892 4.87646 12.8697 4.87646 12.8697C4.87646 12.8697 4.85824 12.826 4.81889 12.7558C4.79921 12.7206 4.7743 12.6787 4.74362 12.6325C4.71275 12.587 4.67539 12.5394 4.63225 12.4887C4.5456 12.3874 4.43424 12.2782 4.29742 12.178C4.15915 12.0829 3.99363 12.0024 3.80591 11.9484C3.70248 11.9168 3.59725 11.9027 3.49562 11.8876C3.39364 11.8737 3.294 11.865 3.19725 11.86C3.00376 11.8522 2.82091 11.8724 2.65882 11.8939C2.49691 11.9138 2.35269 11.9556 2.23374 11.9919C2.11461 12.0289 2.02002 12.0652 1.95396 12.0928Z" fill="url(#paint0_linear_53_1789)"/>
<path id="path364" d="M10.4006 28.9932C10.3816 28.8657 10.3537 28.7469 10.3188 28.6368C10.2838 28.5262 10.2363 28.4217 10.1876 28.3266C10.088 28.1352 9.97245 27.9771 9.85025 27.8441C9.60458 27.5777 9.35513 27.4194 9.22336 27.3432C9.20874 27.2775 9.19484 27.215 9.18149 27.1551C9.16723 27.0941 9.15369 27.036 9.14069 26.9807C9.1156 26.8695 9.0972 26.7694 9.08059 26.6773C9.04088 26.4912 9.02554 26.3441 9.01236 26.2253C8.99846 26.1066 8.99702 26.0197 8.99918 25.9618C9.00027 25.9331 9.00225 25.9114 9.00388 25.8972L9.00604 25.8753C8.97914 25.9638 8.9694 26.0762 8.97499 26.2039C8.97969 26.3315 8.98655 26.4701 9.00586 26.6136C9.02228 26.756 9.036 26.8981 9.05586 27.0306C9.07445 27.1625 9.08474 27.2791 9.09774 27.3704C9.08582 27.4053 9.07102 27.4511 9.05495 27.5065C9.03618 27.5607 9.01543 27.6239 8.99467 27.6957C8.97283 27.7666 8.95496 27.848 8.93095 27.9329C8.90713 28.0181 8.88456 28.1101 8.86435 28.2083C8.77662 28.5971 8.7046 29.0719 8.73276 29.5704C8.75532 29.9901 8.96308 30.317 9.17643 30.5341C9.38816 30.7516 9.6035 30.8545 9.6035 30.8545C9.6035 30.8545 9.66054 30.7978 9.74736 30.698C9.7905 30.648 9.84122 30.5873 9.89573 30.5179C9.947 30.446 10.002 30.3651 10.0567 30.2771C10.1699 30.1036 10.265 29.8899 10.3374 29.6722C10.3688 29.5605 10.3925 29.4462 10.4051 29.3327C10.4114 29.276 10.415 29.2193 10.415 29.1632C10.4134 29.1058 10.4089 29.0491 10.4006 28.9932Z" fill="url(#paint1_linear_53_1789)"/>
<path id="path366" d="M11.5597 25.8976C11.5066 25.7866 11.4479 25.6864 11.3851 25.5956C11.3218 25.5046 11.2494 25.4223 11.1783 25.3492C11.0342 25.2025 10.8824 25.09 10.7364 25.0028C10.4378 24.8277 10.166 24.7521 10.0247 24.7189C9.76818 24.2713 9.60735 23.9557 9.52432 23.7406C9.48587 23.6335 9.45284 23.5527 9.43948 23.498C9.42432 23.4433 9.42089 23.415 9.42089 23.415C9.42107 23.4601 9.42757 23.5095 9.43912 23.5626C9.45122 23.6155 9.46855 23.6722 9.48461 23.731C9.51836 23.8485 9.57288 23.9767 9.62504 24.1045C9.67522 24.2321 9.73262 24.3604 9.78659 24.4778C9.83496 24.5942 9.88153 24.6994 9.918 24.7799C9.91745 24.8157 9.91673 24.8619 9.91601 24.9176C9.91402 24.9729 9.91294 25.0373 9.91403 25.1093C9.91421 25.181 9.9207 25.2611 9.92269 25.346C9.92485 25.431 9.92973 25.5221 9.93893 25.618C9.96872 26.0001 10.0397 26.4562 10.205 26.9024C10.2411 26.9968 10.2871 27.0828 10.3378 27.1604C10.3869 27.2373 10.4429 27.306 10.5026 27.3676C10.6223 27.4907 10.7573 27.5838 10.8848 27.6515C11.1395 27.7874 11.3654 27.8188 11.3654 27.8188C11.3654 27.8188 11.4021 27.7512 11.4537 27.6364C11.5066 27.5217 11.5613 27.355 11.614 27.1647C11.6411 27.0698 11.6562 26.9656 11.6718 26.8597C11.6846 26.753 11.6985 26.6445 11.694 26.5335C11.6876 26.3122 11.6564 26.0927 11.5597 25.8976Z" fill="url(#paint2_linear_53_1789)"/>
<path id="path368" d="M11.771 22.8079C11.6943 22.72 11.6147 22.6431 11.534 22.5761C11.4526 22.5091 11.3647 22.4524 11.2802 22.4035C11.11 22.3061 10.9416 22.2418 10.7849 22.199C10.4735 22.1138 10.1993 22.1147 10.0625 22.1203C9.88075 21.9469 9.74718 21.7954 9.62408 21.6683C9.56487 21.6043 9.51379 21.5451 9.46975 21.4909C9.44772 21.4637 9.42751 21.4378 9.40892 21.4129C9.38888 21.3882 9.37029 21.3651 9.35278 21.3436C9.2156 21.1691 9.17751 21.0684 9.17751 21.0684C9.19863 21.1523 9.24755 21.2462 9.31379 21.3451C9.33022 21.3698 9.34791 21.3947 9.36632 21.42C9.38311 21.4458 9.40062 21.4716 9.41903 21.4978C9.45549 21.5498 9.49502 21.6025 9.53617 21.6546C9.57715 21.707 9.61975 21.759 9.66234 21.8095C9.70169 21.8609 9.74068 21.9111 9.77895 21.9586C9.85494 22.0537 9.92642 22.1389 9.98165 22.2039C9.9979 22.2705 10.0203 22.3777 10.0611 22.5102C10.08 22.5766 10.1076 22.649 10.1313 22.7272C10.1549 22.8055 10.1827 22.8887 10.2156 22.9752C10.349 23.3216 10.5224 23.7261 10.8028 24.0923C11.0296 24.4006 11.3544 24.5403 11.6242 24.5945C11.8939 24.6497 12.1076 24.6167 12.1076 24.6167C12.1076 24.6167 12.1217 24.5452 12.1358 24.4261C12.143 24.3667 12.15 24.2954 12.1554 24.2154C12.1612 24.1354 12.1581 24.0466 12.1551 23.9528C12.1511 23.8589 12.1435 23.7596 12.1305 23.6587C12.1128 23.558 12.0896 23.4553 12.0596 23.355C12.0291 23.2544 11.9933 23.156 11.9466 23.0636C11.8966 22.9712 11.8385 22.8846 11.771 22.8079Z" fill="url(#paint3_linear_53_1789)"/>
<path id="path370" d="M11.2006 19.9812C11.0219 19.8559 10.8282 19.7794 10.6508 19.7303C10.4719 19.6814 10.3028 19.6626 10.1488 19.661C9.83548 19.6604 9.58909 19.7247 9.46382 19.7631C9.36076 19.7039 9.26816 19.6478 9.18513 19.5944C9.09921 19.5422 9.01997 19.4942 8.95083 19.448C8.88152 19.4021 8.82069 19.3588 8.76727 19.3185C8.71402 19.2781 8.66275 19.2433 8.6216 19.2101C8.45427 19.0785 8.39525 18.9929 8.39525 18.9929C8.4346 19.0666 8.50193 19.1431 8.58604 19.2204C8.62756 19.259 8.67593 19.2967 8.72232 19.3368C8.76817 19.377 8.81708 19.4167 8.86708 19.4561C9.07195 19.6102 9.277 19.7658 9.40931 19.8604C9.42574 19.8891 9.44686 19.9261 9.47249 19.9707C9.49631 20.0156 9.5252 20.0673 9.55931 20.1239C9.62718 20.2377 9.71851 20.3703 9.8158 20.516C9.86634 20.5884 9.92194 20.6626 9.98313 20.7373C10.0423 20.8126 10.1017 20.89 10.1698 20.9654C10.2364 21.0413 10.3118 21.1154 10.3873 21.1886C10.4613 21.262 10.5411 21.3331 10.6275 21.4001C10.7735 21.5127 10.9306 21.5808 11.0781 21.6194C11.2277 21.6577 11.375 21.6651 11.5048 21.6564C11.7645 21.6398 11.9531 21.5562 11.9531 21.5562C11.9531 21.5562 11.9497 21.4867 11.9356 21.3737C11.9188 21.2615 11.8842 21.1071 11.8338 20.936C11.7293 20.5956 11.5246 20.1972 11.2006 19.9812Z" fill="url(#paint4_linear_53_1789)"/>
<path id="path372" d="M10.0375 17.5772C9.24436 17.2942 8.60466 17.6375 8.39004 17.7604C8.17128 17.6965 7.99818 17.6304 7.84475 17.5781C7.69385 17.5239 7.58049 17.4685 7.48753 17.4254C7.30126 17.3398 7.22617 17.2734 7.22617 17.2734C7.27996 17.333 7.36046 17.3893 7.45667 17.4425C7.55306 17.4958 7.65666 17.5535 7.76893 17.6037C7.82453 17.629 7.88103 17.6535 7.93698 17.677C7.99113 17.7015 8.0442 17.7256 8.0951 17.7487C8.19691 17.794 8.29059 17.8328 8.36243 17.8622C8.40737 17.907 8.47001 17.9855 8.56026 18.0748C8.60484 18.1198 8.65538 18.1683 8.71152 18.219C8.76711 18.2701 8.82307 18.3264 8.88715 18.3817C8.9505 18.4375 9.01909 18.4936 9.09292 18.549C9.16404 18.6059 9.2375 18.6638 9.31746 18.7181C9.39652 18.7732 9.48262 18.8248 9.56962 18.875C9.65464 18.9259 9.74471 18.973 9.83947 19.0149C10.1626 19.1546 10.4694 19.1243 10.7044 19.047C10.9386 18.9708 11.0918 18.8499 11.0918 18.8499C11.0918 18.8499 11.0727 18.7871 11.0337 18.6869C10.9898 18.5889 10.9243 18.4542 10.838 18.3095C10.6626 18.0218 10.3851 17.7023 10.0375 17.5772Z" fill="url(#paint5_linear_53_1789)"/>
<path id="path374" d="M8.49177 15.6664C8.2943 15.6415 8.11452 15.6498 7.95333 15.6787C7.78925 15.7108 7.64359 15.7635 7.51814 15.8225C7.26743 15.9415 7.09451 16.0875 7.00895 16.1669C6.5808 16.1319 6.29253 16.0787 6.10174 16.0337C6.0077 16.0101 5.94037 15.9862 5.89651 15.968C5.85193 15.9503 5.82991 15.9402 5.82991 15.9402C5.89453 15.981 5.9772 16.0236 6.07683 16.0552C6.12629 16.0718 6.17918 16.0868 6.23423 16.1005C6.26167 16.1072 6.28983 16.1137 6.31817 16.1204C6.3456 16.1276 6.3734 16.1346 6.40137 16.142C6.51329 16.1698 6.62827 16.1935 6.73386 16.2131C6.8409 16.2312 6.93079 16.2548 7.00335 16.2678C7.05154 16.3036 7.13006 16.3592 7.23349 16.4225C7.33421 16.4889 7.45605 16.5676 7.59973 16.6422C7.67247 16.6785 7.74413 16.7202 7.82229 16.7583C7.90026 16.7963 7.98257 16.8328 8.06885 16.8662C8.24015 16.9337 8.41812 16.9972 8.61379 17.0323C8.69664 17.0471 8.77353 17.0541 8.84754 17.0528C8.92172 17.0516 8.99302 17.0418 9.06053 17.0263C9.19555 16.9953 9.31558 16.9406 9.41486 16.8803C9.61359 16.7602 9.72803 16.6167 9.72803 16.6167C9.72803 16.6167 9.69626 16.5637 9.63796 16.4806C9.60835 16.4395 9.57406 16.3895 9.5302 16.3379C9.48597 16.2866 9.43543 16.2312 9.37966 16.1745C9.32388 16.1178 9.26288 16.0601 9.19753 16.0041C9.13273 15.9476 9.0571 15.8987 8.98183 15.852C8.82895 15.7608 8.66758 15.6855 8.49177 15.6664Z" fill="url(#paint6_linear_53_1789)"/>
<path id="path376" d="M6.7495 14.254C6.56286 14.2679 6.4015 14.3042 6.25511 14.3652C6.10981 14.4251 5.98562 14.4993 5.88075 14.5767C5.67137 14.7312 5.5387 14.8971 5.47408 14.9857C5.06957 15.0325 4.79304 15.0316 4.60676 15.0244C4.51471 15.0191 4.44774 15.009 4.40334 15.0002C4.35912 14.9906 4.33692 14.9843 4.33692 14.9843C4.40334 15.0142 4.48926 15.0364 4.58763 15.0487C4.63673 15.0552 4.68871 15.0597 4.7425 15.0626C4.76922 15.0639 4.79647 15.065 4.82427 15.0662C4.85117 15.068 4.87824 15.0698 4.9055 15.0716C5.123 15.0848 5.35224 15.0749 5.4878 15.0805C5.53924 15.105 5.62209 15.1426 5.72967 15.183C5.75656 15.1929 5.78508 15.2032 5.81468 15.2141C5.84392 15.2254 5.87407 15.2373 5.90566 15.2498C5.96901 15.2734 6.03761 15.2971 6.11071 15.3191C6.25854 15.3606 6.4163 15.4083 6.58741 15.4393C6.67243 15.4556 6.76286 15.465 6.85131 15.4754C6.93957 15.4857 7.03054 15.4911 7.12296 15.4904C7.27855 15.4895 7.41845 15.4503 7.53613 15.3964C7.65364 15.3428 7.75309 15.2695 7.83252 15.1951C7.99154 15.0467 8.06934 14.8919 8.06934 14.8919C8.06934 14.8919 8.05923 14.8814 8.04136 14.8619C8.02259 14.8433 7.99713 14.8143 7.96085 14.7837C7.88938 14.7213 7.78667 14.6374 7.66375 14.5527C7.54299 14.4653 7.39155 14.3912 7.23596 14.3323C7.15762 14.304 7.07838 14.2792 6.99643 14.2653C6.91376 14.2531 6.83091 14.2484 6.7495 14.254Z" fill="url(#paint7_linear_53_1789)"/>
<path id="path378" d="M4.96367 13.296C4.28769 13.4709 3.99907 14.0032 3.90845 14.1843C3.81676 14.2106 3.7321 14.2325 3.65412 14.2505C3.57615 14.2691 3.50268 14.2895 3.43662 14.3032C3.30377 14.3321 3.19565 14.3475 3.10973 14.3547C2.93591 14.3772 2.84981 14.3661 2.84981 14.3661C2.91677 14.3832 3.00161 14.3854 3.09583 14.3801C3.18879 14.3791 3.29132 14.3693 3.39475 14.355C3.6025 14.322 3.80827 14.2929 3.93769 14.2684C3.98914 14.2832 4.07488 14.2975 4.17957 14.3224C4.28498 14.346 4.41314 14.3689 4.55663 14.3836C4.69959 14.4002 4.85392 14.4179 5.01854 14.415C5.0597 14.4148 5.10121 14.413 5.14327 14.4108C5.18442 14.4101 5.22594 14.4083 5.26782 14.4052C5.35157 14.3993 5.4364 14.3883 5.52178 14.3711C5.8113 14.311 6.00246 14.1433 6.12285 13.9771C6.24288 13.8126 6.28711 13.6569 6.28711 13.6569C6.28711 13.6569 6.24361 13.624 6.16888 13.5755C6.09253 13.5302 5.98314 13.472 5.85516 13.4163C5.79109 13.3886 5.72268 13.3614 5.65066 13.3377C5.57738 13.317 5.50138 13.2995 5.42431 13.2868C5.34723 13.2746 5.26889 13.2672 5.192 13.2673C5.15337 13.2673 5.11511 13.2691 5.0772 13.2731C5.03876 13.2789 5.00085 13.2863 4.96367 13.296Z" fill="url(#paint8_linear_53_1789)"/>
<path id="path380" d="M11.2689 29.4713C11.3897 29.4101 11.5097 29.3585 11.6278 29.3148C11.7458 29.2713 11.8568 29.2331 11.9682 29.2035C12.189 29.1432 12.4012 29.1121 12.5891 29.0979C12.9637 29.0679 13.2608 29.117 13.4099 29.1538C13.479 29.0957 13.5456 29.038 13.6092 28.9807C13.6714 28.9228 13.7292 28.8648 13.7851 28.8084C13.8963 28.6945 13.9985 28.5845 14.0877 28.4791C14.2599 28.2652 14.3979 28.0744 14.4938 27.9134C14.5893 27.7519 14.6534 27.6232 14.6934 27.5356C14.734 27.4481 14.749 27.4008 14.749 27.4008C14.7097 27.5528 14.633 27.7279 14.5384 27.9104C14.4429 28.0928 14.3165 28.278 14.1916 28.4566C14.0638 28.6338 13.9227 28.799 13.7983 28.9444C13.6725 29.0892 13.5494 29.2089 13.4599 29.2999C13.4348 29.35 13.4014 29.4148 13.3601 29.491C13.3164 29.5661 13.2639 29.6524 13.2039 29.7466C13.1431 29.8405 13.0787 29.9444 12.9994 30.0488C12.9205 30.1535 12.8346 30.2623 12.742 30.3724C12.3655 30.8089 11.8585 31.2439 11.2973 31.4596C10.8224 31.6406 10.4468 31.5144 10.1904 31.3569C9.93359 31.1973 9.78883 31.0042 9.78883 31.0042C9.78883 31.0042 9.83089 30.9332 9.90796 30.8231C9.94659 30.7679 9.9937 30.7031 10.0488 30.632C10.1009 30.5589 10.1605 30.4796 10.2273 30.3977C10.3641 30.2363 10.5114 30.0531 10.691 29.893C10.776 29.81 10.867 29.7309 10.9644 29.66C11.0128 29.6244 11.0634 29.5912 11.1148 29.56C11.1646 29.5277 11.2161 29.4981 11.2689 29.4713Z" fill="url(#paint9_linear_53_1789)"/>
<path id="path382" d="M12.4939 26.0887C12.5867 25.9991 12.6814 25.9185 12.7769 25.8457C12.8717 25.7728 12.9623 25.7071 13.0553 25.6491C13.2397 25.5327 13.4222 25.4452 13.5919 25.3804C13.9246 25.2495 14.2085 25.2118 14.3545 25.204C14.7316 24.63 14.9076 24.1304 15.0005 23.7896C15.0503 23.6187 15.0659 23.4857 15.0792 23.3959C15.0908 23.3062 15.0922 23.2597 15.0922 23.2597C15.0951 23.3333 15.0919 23.4147 15.0837 23.5014C15.076 23.5882 15.063 23.6802 15.0408 23.7752C14.998 23.9651 14.9437 24.1661 14.8742 24.3607C14.8025 24.5551 14.7253 24.7428 14.6514 24.9082C14.5722 25.0732 14.4984 25.2158 14.4413 25.3224C14.4321 25.3744 14.422 25.4425 14.4034 25.5228C14.3847 25.6028 14.3616 25.6952 14.3336 25.797C14.3045 25.899 14.2751 26.0107 14.2329 26.1271C14.1906 26.2439 14.1431 26.3665 14.0899 26.4919C13.8719 26.9921 13.5377 27.5303 13.0876 27.8848C12.9937 27.9601 12.9009 28.0166 12.8083 28.0572C12.7141 28.0971 12.6219 28.122 12.5332 28.1354C12.3556 28.1623 12.1919 28.1437 12.0518 28.1087C11.7719 28.0377 11.5853 27.9045 11.5853 27.9045C11.5853 27.9045 11.6042 27.8284 11.6439 27.7065C11.6851 27.5852 11.7342 27.4139 11.8118 27.2282C11.8515 27.1352 11.8871 27.035 11.9338 26.9359C11.978 26.8356 12.0345 26.7361 12.0869 26.636C12.1943 26.4363 12.3347 26.2468 12.4939 26.0887Z" fill="url(#paint10_linear_53_1789)"/>
<path id="path384" d="M12.6848 22.7386C12.7469 22.6326 12.813 22.5342 12.8817 22.4433C12.9498 22.3521 13.0151 22.2687 13.085 22.1918C13.2233 22.0384 13.3675 21.9119 13.5057 21.8094C13.7839 21.6038 14.0287 21.4978 14.1617 21.4532C14.2543 21.1458 14.324 20.8633 14.3514 20.6202C14.3676 20.4984 14.379 20.3852 14.3866 20.2812C14.3904 20.2294 14.3931 20.18 14.3953 20.1327C14.3962 20.0859 14.3954 20.0419 14.3945 20.0002C14.3871 19.6655 14.3474 19.4924 14.3474 19.4924C14.388 19.626 14.4137 19.794 14.4274 19.9767C14.4308 20.0224 14.4335 20.069 14.4355 20.1161C14.4357 20.1637 14.4353 20.2121 14.4341 20.2606C14.4321 20.3578 14.4274 20.4561 14.4209 20.5534C14.4144 20.6507 14.4061 20.7471 14.3965 20.8399C14.3835 20.9336 14.3693 21.024 14.3548 21.1088C14.3259 21.2789 14.2963 21.427 14.2725 21.5382C14.2828 21.6377 14.2904 21.7983 14.2931 21.9976C14.2931 22.0973 14.2956 22.2065 14.2868 22.3231C14.2779 22.4397 14.2658 22.5631 14.2492 22.6904C14.1861 23.2001 14.0111 23.7734 13.7057 24.2144C13.438 24.5866 13.0949 24.6831 12.8215 24.6956C12.5475 24.7068 12.3406 24.636 12.3406 24.636C12.3406 24.636 12.3361 24.5613 12.3377 24.4394C12.3386 24.3786 12.341 24.3057 12.3462 24.2245C12.3518 24.1432 12.3531 24.0534 12.3619 23.958C12.37 23.8626 12.3821 23.762 12.3994 23.6588C12.4123 23.5555 12.4301 23.4499 12.455 23.3445C12.4794 23.2391 12.5123 23.1341 12.5509 23.0321C12.5863 22.9303 12.6303 22.8314 12.6848 22.7386Z" fill="url(#paint11_linear_53_1789)"/>
<path id="path386" d="M12.03 19.691C12.0974 19.4646 12.1706 19.2686 12.2629 19.0935C12.3535 18.9192 12.4562 18.7679 12.5585 18.6408C12.7573 18.3883 12.9614 18.2304 13.0715 18.158C13.0791 18.0058 13.0809 17.8618 13.0788 17.7264C13.0737 17.5927 13.0618 17.4687 13.0492 17.3533C13.036 17.238 13.0203 17.1318 13.0035 17.0353C12.9865 16.9389 12.9632 16.8548 12.9434 16.7786C12.8603 16.475 12.7851 16.3263 12.7851 16.3263C12.8524 16.4385 12.914 16.586 12.9681 16.7494C12.9946 16.8315 13.0217 16.9161 13.0425 17.0051C13.0627 17.0941 13.0809 17.1851 13.0973 17.2755C13.1681 17.6351 13.1845 17.9946 13.1928 18.2089C13.2094 18.2529 13.2322 18.31 13.2544 18.3793C13.2757 18.4493 13.2993 18.5307 13.3237 18.6217C13.3719 18.8033 13.4253 19.0213 13.4515 19.2639C13.4663 19.3845 13.478 19.5098 13.4852 19.637C13.4903 19.765 13.4854 19.8969 13.4775 20.0273C13.4681 20.1583 13.4556 20.2879 13.4298 20.4159C13.4026 20.5444 13.3679 20.6697 13.3248 20.7895C13.2524 20.9915 13.1443 21.1361 13.0183 21.2408C12.8941 21.3451 12.7594 21.4087 12.6353 21.4484C12.3865 21.5272 12.1806 21.5141 12.1806 21.5141C12.1806 21.5141 12.1595 21.4464 12.1333 21.3339C12.1042 21.2218 12.0631 21.0666 12.0338 20.8875C11.9719 20.5294 11.9228 20.0843 12.03 19.691Z" fill="url(#paint12_linear_53_1789)"/>
<path id="path388" d="M10.7427 17.1173C10.7528 16.8953 10.779 16.6973 10.8232 16.5174C10.8674 16.3372 10.9279 16.1762 10.994 16.0369C11.1246 15.7589 11.2746 15.5712 11.3609 15.4798C11.2595 14.914 11.0844 14.5093 10.9499 14.247C10.8084 13.9889 10.7073 13.8705 10.7073 13.8705C10.7932 13.9577 10.8815 14.0781 10.9663 14.2149C11.0515 14.3513 11.1248 14.5122 11.195 14.6683C11.2295 14.7468 11.2624 14.8255 11.293 14.902C11.3219 14.9797 11.3472 15.0567 11.3712 15.1289C11.4183 15.2735 11.4562 15.4019 11.4835 15.4988C11.536 15.5697 11.6069 15.6932 11.6925 15.8468C11.7347 15.9241 11.7797 16.0096 11.8252 16.1018C11.8697 16.1948 11.91 16.2975 11.9513 16.4035C11.9918 16.51 12.0306 16.6213 12.0658 16.7359C12.0983 16.8518 12.1244 16.9726 12.1463 17.0935C12.1674 17.215 12.1849 17.3363 12.191 17.4587C12.1954 17.582 12.1921 17.7045 12.18 17.8238C12.1419 18.2256 11.9084 18.4565 11.7012 18.587C11.4918 18.7173 11.3001 18.7534 11.3001 18.7534C11.3001 18.7534 11.2651 18.6964 11.2151 18.5993C11.1602 18.5047 11.0882 18.3709 11.0196 18.2134C10.8792 17.8998 10.7335 17.5018 10.7427 17.1173Z" fill="url(#paint13_linear_53_1789)"/>
<path id="path390" d="M9.0538 15.0907C9.01355 14.8887 9.00146 14.6974 9.00777 14.5209C9.01138 14.3474 9.03304 14.1893 9.06517 14.0487C9.12889 13.7678 9.2325 13.5617 9.29315 13.4608C9.08683 12.9657 8.85344 12.6227 8.67565 12.4142C8.58738 12.3081 8.51446 12.2325 8.46392 12.1832C8.41266 12.1346 8.38305 12.1141 8.38305 12.1141C8.48125 12.1735 8.58125 12.2718 8.68467 12.3812C8.73612 12.4366 8.78756 12.4957 8.8381 12.557C8.86265 12.5875 8.88774 12.6188 8.91301 12.6503C8.9363 12.683 8.95976 12.7159 8.9834 12.7491C9.07564 12.8816 9.16102 13.0155 9.23449 13.1364C9.30939 13.2554 9.36426 13.3711 9.40831 13.4547C9.46769 13.5122 9.56119 13.6057 9.67166 13.7276C9.77906 13.8523 9.89945 14.0097 10.0193 14.1848C10.0805 14.2711 10.135 14.3687 10.1886 14.4676C10.242 14.5669 10.2928 14.67 10.3383 14.7752C10.4285 14.9864 10.4895 15.2151 10.52 15.436C10.5334 15.5288 10.5305 15.6171 10.5182 15.6978C10.5063 15.7783 10.4848 15.8515 10.4574 15.9178C10.4022 16.0503 10.3218 16.1557 10.2401 16.2382C10.076 16.4024 9.90739 16.4768 9.90739 16.4768C9.90739 16.4768 9.86245 16.4324 9.79458 16.355C9.76028 16.3165 9.7222 16.2681 9.67743 16.216C9.63231 16.164 9.58394 16.1053 9.53484 16.0409C9.48574 15.9766 9.43628 15.9066 9.38863 15.8321C9.3417 15.757 9.29044 15.6831 9.24712 15.6025C9.15813 15.4433 9.09171 15.2653 9.0538 15.0907Z" fill="url(#paint14_linear_53_1789)"/>
<path id="path392" d="M7.16535 13.6095C7.09062 13.4311 7.04712 13.2528 7.0177 13.0941C6.989 12.934 6.9807 12.7835 6.98467 12.6485C6.99261 12.3777 7.05091 12.1691 7.08846 12.0651C6.80922 11.6501 6.53648 11.375 6.33649 11.2165C6.23703 11.1351 6.15689 11.0786 6.10202 11.0427C6.04714 11.0064 6.01664 10.9924 6.01664 10.9924C6.11537 11.0323 6.2253 11.1023 6.33901 11.1846C6.39587 11.2261 6.45327 11.2711 6.51049 11.318C6.53829 11.3416 6.56681 11.3658 6.59569 11.3904C6.62258 11.416 6.65002 11.4422 6.67745 11.4683C6.89279 11.6797 7.08629 11.894 7.19279 12.0384C7.25723 12.0802 7.35957 12.1494 7.48231 12.2414C7.513 12.2642 7.54513 12.2885 7.5778 12.3147C7.60939 12.342 7.64224 12.3707 7.67653 12.4005C7.74386 12.4604 7.8139 12.5257 7.88429 12.5954C8.02725 12.7322 8.16389 12.8994 8.28537 13.0764C8.34565 13.166 8.40432 13.255 8.45215 13.3521C8.50016 13.4488 8.54204 13.5477 8.57561 13.6477C8.63211 13.8167 8.63806 13.9656 8.61243 14.0986C8.58644 14.2317 8.53265 14.3443 8.47327 14.4362C8.35414 14.6192 8.21407 14.7197 8.21407 14.7197C8.21407 14.7197 8.20179 14.7112 8.17995 14.6959C8.15775 14.6809 8.12761 14.6562 8.08754 14.6289C8.0083 14.573 7.90108 14.4923 7.78772 14.391C7.67635 14.2869 7.54855 14.1761 7.43917 14.0432C7.38394 13.9777 7.33322 13.906 7.28665 13.834C7.23899 13.7629 7.19766 13.6882 7.16535 13.6095Z" fill="url(#paint15_linear_53_1789)"/>
<path id="path394" d="M5.24205 12.6217C4.84783 12.0134 4.87762 11.423 4.91516 11.2176C4.83484 11.1331 4.7565 11.056 4.68087 10.9858C4.60506 10.9163 4.53051 10.8593 4.46065 10.8053C4.32058 10.699 4.19622 10.6174 4.09315 10.5566C3.88503 10.4423 3.76464 10.4077 3.76464 10.4077C3.86103 10.4288 3.97348 10.4706 4.09062 10.5266C4.20669 10.5869 4.32762 10.6604 4.44369 10.7367C4.67726 10.8853 4.88321 11.0672 5.00667 11.1744C5.07237 11.2028 5.17959 11.2421 5.30504 11.3112C5.43085 11.3788 5.57887 11.4647 5.73175 11.5668C5.88373 11.6713 6.03662 11.8013 6.17904 11.9405C6.21441 11.9755 6.24925 12.011 6.28264 12.0481C6.31531 12.0867 6.34708 12.126 6.37741 12.1661C6.43806 12.2461 6.49347 12.3291 6.54166 12.4143C6.70556 12.7 6.66007 12.9688 6.58408 13.1565C6.50683 13.3455 6.396 13.4626 6.396 13.4626C6.396 13.4626 6.34492 13.4413 6.26423 13.4004C6.18192 13.3625 6.06875 13.3081 5.94655 13.2352C5.88554 13.1991 5.82218 13.1581 5.75865 13.1136C5.69385 13.0717 5.62904 13.0257 5.56677 12.9751C5.50468 12.9246 5.44493 12.8695 5.39042 12.8099C5.36298 12.7802 5.33699 12.7489 5.31244 12.717C5.28736 12.6865 5.26371 12.6549 5.24205 12.6217Z" fill="url(#paint16_linear_53_1789)"/>
<path id="path396" d="M12.2648 23.659C12.2648 23.659 12.259 23.7614 12.248 23.9494C12.2417 24.0433 12.2379 24.159 12.2263 24.2937C12.2119 24.4283 12.1955 24.5823 12.1772 24.7536C12.17 24.8393 12.1534 24.9287 12.1391 25.022C12.1245 25.1157 12.1092 25.2131 12.0933 25.3146C12.0798 25.4162 12.0548 25.5202 12.0332 25.6281C12.0108 25.7357 11.9877 25.8471 11.9639 25.9617C11.9346 26.075 11.9047 26.1918 11.8738 26.3115C11.8431 26.4312 11.8122 26.5537 11.7711 26.6768C11.7326 26.8007 11.6931 26.927 11.6529 27.0559C11.6067 27.1828 11.5595 27.312 11.5115 27.4434C11.3112 27.966 11.0677 28.5134 10.761 29.0524C10.4547 29.5914 10.0957 30.1255 9.69009 30.6316C9.28432 31.1376 8.83433 31.617 8.35184 32.0486C7.86882 32.4794 7.35728 32.8646 6.8405 33.1987C6.58455 33.3698 6.32643 33.5124 6.08221 33.6536C5.83168 33.783 5.59522 33.9124 5.3593 34.0162C5.12826 34.1299 4.89938 34.218 4.68386 34.3085C4.65697 34.3198 4.63008 34.3308 4.60354 34.342C4.57647 34.3518 4.54939 34.3613 4.52268 34.3711C4.46907 34.3904 4.41636 34.4095 4.36402 34.4283C4.2595 34.4657 4.15842 34.5041 4.05878 34.5386C3.2588 34.8047 2.60773 34.9451 2.10539 35.0312C1.85468 35.0823 1.63952 35.1052 1.45974 35.1335C1.27996 35.1637 1.13429 35.1749 1.0204 35.1889C0.792785 35.2155 0.692246 35.2319 0.692246 35.2319C0.692246 35.2319 0.79224 35.2433 1.02238 35.2581C1.13736 35.2648 1.28537 35.2778 1.46894 35.2732C1.65251 35.2709 1.87345 35.2752 2.13247 35.251C2.65105 35.2185 3.32992 35.1303 4.16907 34.8956C4.27358 34.8653 4.37972 34.8305 4.48946 34.7964C4.54416 34.779 4.59975 34.7613 4.65589 34.7438C4.68404 34.7348 4.7122 34.7258 4.74072 34.7166C4.7687 34.7063 4.79686 34.6958 4.82502 34.6852C5.05137 34.5998 5.29144 34.515 5.53385 34.4029C5.78096 34.3005 6.02896 34.1709 6.29051 34.039C6.54592 33.8955 6.81487 33.7485 7.08093 33.5709C7.61792 33.224 8.14553 32.8177 8.63794 32.3616C9.12999 31.9051 9.58305 31.3964 9.98539 30.8609C10.3875 30.3253 10.7366 29.7613 11.0278 29.1957C11.3195 28.6299 11.5428 28.0584 11.7207 27.5165C11.7628 27.3806 11.8041 27.2465 11.8447 27.1151C11.8789 26.9822 11.9124 26.8517 11.9451 26.7243C11.9803 26.5974 12.0048 26.4711 12.0294 26.3483C12.0539 26.2256 12.0779 26.1059 12.1012 25.9895C12.1189 25.8725 12.1359 25.7586 12.1525 25.6485C12.1682 25.5384 12.1873 25.4328 12.1951 25.329C12.205 25.2261 12.2148 25.127 12.224 25.0321C12.2326 24.9372 12.2442 24.8467 12.246 24.7601C12.2539 24.5872 12.261 24.4319 12.2671 24.296C12.2705 24.1605 12.2668 24.044 12.2669 23.95C12.2657 23.7617 12.2648 23.659 12.2648 23.659Z" fill="url(#paint17_linear_53_1789)"/>
<path id="path398" d="M4.01291 2.45336C3.93187 2.44542 3.8418 2.44289 3.74667 2.44108C3.65173 2.43856 3.55173 2.43567 3.45029 2.43332C3.24722 2.42881 3.0382 2.41834 2.84904 2.42737C2.47179 2.43693 2.17594 2.44434 2.17594 2.44434C2.17594 2.44434 2.4707 2.46672 2.84651 2.49505C3.03423 2.5048 3.24072 2.53621 3.44072 2.56058C3.54054 2.57321 3.63891 2.58567 3.73223 2.59758C3.82555 2.60877 3.914 2.61996 3.99342 2.63585C4.07735 2.69902 4.19702 2.78458 4.34522 2.87934C4.49341 2.97555 4.6712 3.07374 4.86903 3.18926C4.96813 3.24486 5.07318 3.29973 5.18347 3.35244C5.29339 3.40695 5.41036 3.45099 5.52895 3.50713C5.64826 3.5602 5.77262 3.6093 5.90186 3.65334C6.03074 3.69919 6.16666 3.73149 6.3033 3.77391C6.55149 3.84575 6.79625 3.86074 7.02495 3.85243C7.25148 3.85081 7.46447 3.81831 7.64912 3.77626C7.74118 3.75568 7.82674 3.73095 7.90201 3.70947C7.97674 3.68908 8.04244 3.66832 8.09659 3.64991C8.20525 3.6129 8.26807 3.58457 8.26807 3.58457C8.26807 3.58457 8.24153 3.52085 8.18431 3.41851C8.15579 3.36724 8.11933 3.30659 8.07493 3.23908C8.02998 3.17266 7.97529 3.10353 7.9123 3.02952C7.78649 2.88241 7.62422 2.72303 7.42494 2.57736C7.22368 2.43856 6.98253 2.32141 6.70925 2.24325C6.55889 2.19705 6.40546 2.17647 6.25763 2.15445C6.10908 2.13423 5.96396 2.12142 5.82316 2.11438C5.68327 2.10427 5.54483 2.11564 5.41397 2.1234C5.28256 2.13297 5.15729 2.14669 5.03924 2.16329C4.80351 2.19272 4.5934 2.25354 4.4203 2.30625C4.24684 2.36022 4.10912 2.41311 4.01291 2.45336Z" fill="url(#paint18_linear_53_1789)"/>
<path id="path400" d="M16.3117 27.061C16.2843 26.8754 16.2437 26.7027 16.1928 26.5419C16.1417 26.3812 16.0729 26.2289 16.0018 26.0904C15.8568 25.8119 15.6884 25.5816 15.5105 25.3879C15.1527 25.0002 14.7897 24.7697 14.5978 24.6583C14.5755 24.563 14.5551 24.4717 14.5368 24.3847C14.5163 24.2966 14.4964 24.212 14.4774 24.1307C14.4408 23.9688 14.4143 23.823 14.3899 23.6889C14.3619 23.5537 14.3408 23.4322 14.3255 23.3232C14.309 23.2138 14.3029 23.1181 14.2904 23.0309C14.2702 22.858 14.2682 22.7317 14.2713 22.6474C14.2729 22.6053 14.2758 22.5741 14.2782 22.553C14.2803 22.532 14.2814 22.5216 14.2814 22.5216C14.2423 22.6503 14.2282 22.814 14.2361 22.9999C14.2419 23.0934 14.2424 23.1891 14.2502 23.2892C14.2574 23.389 14.2681 23.4921 14.2811 23.5963C14.2966 23.7011 14.302 23.8026 14.3154 23.9051C14.3271 24.0067 14.3403 24.1073 14.3538 24.2033C14.3691 24.3 14.3767 24.3892 14.387 24.4728C14.3973 24.5565 14.4069 24.6325 14.4148 24.6982C14.3975 24.7491 14.376 24.8159 14.3525 24.8962C14.3253 24.9751 14.295 25.0674 14.2646 25.1717C14.233 25.2751 14.2072 25.3939 14.172 25.5173C14.1374 25.6412 14.1045 25.7751 14.0753 25.9182C13.9471 26.4843 13.8426 27.1754 13.8834 27.9016C13.8962 28.0579 13.9163 28.1983 13.9547 28.3343C13.9921 28.4693 14.0426 28.596 14.102 28.7135C14.2208 28.9487 14.3749 29.1472 14.5294 29.305C14.6839 29.4629 14.8388 29.5801 14.9558 29.657C15.0724 29.7342 15.1513 29.7712 15.1513 29.7712C15.1513 29.7712 15.2345 29.6888 15.3606 29.5434C15.4236 29.4707 15.4975 29.3823 15.5765 29.281C15.6514 29.1765 15.7316 29.0586 15.8112 28.9305C15.8512 28.8664 15.891 28.8 15.9301 28.731C15.9693 28.6624 16.0027 28.588 16.0375 28.514C16.1059 28.3649 16.1684 28.2088 16.2198 28.0496C16.2657 27.8868 16.3 27.7206 16.3184 27.5554C16.3276 27.4725 16.3328 27.3902 16.333 27.3083C16.3307 27.2249 16.324 27.1424 16.3117 27.061Z" fill="url(#paint19_linear_53_1789)"/>
<path id="path402" d="M17.9996 22.5535C17.9225 22.3921 17.837 22.2461 17.7454 22.114C17.6532 21.9813 17.5482 21.8616 17.4444 21.7553C17.2346 21.5418 17.0137 21.3779 16.8011 21.2508C16.3662 20.9959 15.9706 20.8858 15.7644 20.8378C15.3913 20.1855 15.1569 19.7263 15.0361 19.4129C15.0211 19.3739 15.0079 19.3373 14.9962 19.3032C14.9832 19.2687 14.9713 19.2368 14.9603 19.2075C14.939 19.1487 14.9237 19.0994 14.9126 19.0595C14.8906 18.9801 14.8857 18.9389 14.8857 18.9389C14.8857 19.0044 14.8951 19.0768 14.9123 19.1537C14.9298 19.231 14.9551 19.3131 14.9783 19.399C15.0276 19.5703 15.1069 19.7566 15.183 19.9429C15.256 20.1288 15.3395 20.3156 15.418 20.4862C15.4884 20.6557 15.5563 20.8089 15.6092 20.9264C15.607 20.9782 15.6092 21.0465 15.6065 21.1268C15.6036 21.2071 15.602 21.301 15.6036 21.4057C15.604 21.5102 15.6132 21.627 15.6162 21.7504C15.6193 21.8742 15.6265 22.0067 15.6397 22.1464C15.6832 22.7029 15.7866 23.3674 16.0274 24.0168C16.0798 24.1543 16.1469 24.2796 16.2207 24.3922C16.2922 24.5042 16.3736 24.6047 16.4606 24.694C16.6348 24.8733 16.8314 25.0087 17.0169 25.1072C17.2027 25.206 17.3774 25.2677 17.5059 25.304C17.6344 25.3402 17.7169 25.3511 17.7169 25.3511C17.7169 25.3511 17.7704 25.2527 17.8454 25.0852C17.8848 25.0022 17.9227 24.8993 17.9619 24.7832C18.0012 24.667 18.0416 24.5376 18.0788 24.3987C18.0987 24.3296 18.1138 24.2571 18.1268 24.1825C18.1404 24.108 18.1525 24.0318 18.1629 23.9543C18.1732 23.8769 18.1819 23.7984 18.1882 23.7193C18.1913 23.6798 18.1938 23.6401 18.1958 23.6002C18.1969 23.5603 18.196 23.5199 18.1951 23.4796C18.1859 23.1573 18.1404 22.8378 17.9996 22.5535Z" fill="url(#paint20_linear_53_1789)"/>
<path id="path404" d="M18.3071 18.055C18.1951 17.9272 18.0794 17.8153 17.9619 17.7176C17.8435 17.6201 17.7154 17.5375 17.5924 17.4665C17.3446 17.3247 17.0993 17.2308 16.8712 17.1685C16.4179 17.0445 16.0188 17.046 15.8194 17.0541C15.5546 16.8016 15.3602 16.581 15.1811 16.3958C15.095 16.3027 15.0207 16.2166 14.9564 16.1373C14.9244 16.098 14.8948 16.0602 14.8678 16.0241C14.8389 15.9882 14.8116 15.9548 14.7862 15.9232C14.5864 15.6693 14.531 15.5223 14.531 15.5223C14.5616 15.6445 14.6328 15.7812 14.7291 15.9252C14.7532 15.9611 14.779 15.9974 14.8057 16.0342C14.8302 16.0716 14.8557 16.1093 14.8824 16.1472C14.9356 16.2232 14.9932 16.2999 15.053 16.3761C15.1127 16.4523 15.1746 16.5279 15.2367 16.6017C15.2939 16.6765 15.3508 16.7494 15.4064 16.8185C15.5172 16.9572 15.6214 17.0812 15.7017 17.1757C15.7253 17.2729 15.758 17.4288 15.8172 17.6216C15.8448 17.7185 15.8851 17.8237 15.9196 17.9378C15.9539 18.0517 15.9945 18.1728 16.0423 18.299C16.2367 18.8031 16.489 19.3923 16.8972 19.9253C17.2275 20.3741 17.7004 20.5777 18.0933 20.6565C18.2897 20.6961 18.4655 20.7051 18.5923 20.7031C18.7193 20.7013 18.7971 20.6889 18.7971 20.6889C18.7971 20.6889 18.8177 20.5845 18.8383 20.4112C18.8486 20.3248 18.859 20.221 18.8668 20.1046C18.8753 19.9881 18.8708 19.8589 18.8664 19.7221C18.8607 19.5853 18.8495 19.4409 18.8305 19.2941C18.8047 19.1472 18.7709 18.9979 18.7271 18.8517C18.6829 18.7053 18.6309 18.562 18.5626 18.4273C18.4897 18.2929 18.4051 18.1671 18.3071 18.055Z" fill="url(#paint21_linear_53_1789)"/>
<path id="path406" d="M17.4766 13.9395C17.2163 13.757 16.9344 13.6455 16.6761 13.5738C16.4156 13.5031 16.1692 13.4753 15.9451 13.4731C15.4891 13.4722 15.1303 13.5659 14.9478 13.622C14.7978 13.5355 14.663 13.4538 14.542 13.3762C14.4169 13.3002 14.3014 13.2303 14.2011 13.1632C14.1 13.0964 14.0113 13.0332 13.9337 12.9744C13.8561 12.9157 13.7816 12.8652 13.7216 12.8164C13.478 12.6251 13.3919 12.5005 13.3919 12.5005C13.4493 12.6076 13.5471 12.7191 13.6697 12.8314C13.7301 12.8881 13.8005 12.943 13.868 13.0011C13.935 13.0596 14.0059 13.1177 14.0789 13.1747C14.1516 13.2319 14.2263 13.2879 14.3009 13.342C14.3381 13.3693 14.3751 13.396 14.4113 13.4222C14.4462 13.4493 14.4803 13.4754 14.5137 13.5014C14.648 13.604 14.7725 13.6947 14.8685 13.7637C14.8924 13.8052 14.9232 13.8592 14.9602 13.924C14.9951 13.9893 15.0373 14.0648 15.0868 14.1473C15.1362 14.2301 15.1931 14.32 15.2579 14.415C15.2743 14.4388 15.2909 14.4628 15.3079 14.4872C15.3236 14.5121 15.3395 14.5372 15.3559 14.5628C15.3888 14.6137 15.4236 14.6655 15.4602 14.7182C15.5337 14.8234 15.6147 14.9315 15.7039 15.0402C15.7902 15.15 15.8766 15.2626 15.9757 15.3723C16.0727 15.483 16.1826 15.5909 16.2923 15.6974C16.3999 15.8045 16.5163 15.9079 16.642 16.0052C16.7481 16.0873 16.8582 16.153 16.9698 16.2052C17.082 16.2573 17.1882 16.297 17.2983 16.3247C17.516 16.3804 17.7306 16.3913 17.9196 16.3785C18.2977 16.3543 18.5723 16.2326 18.5723 16.2326C18.5723 16.2326 18.5674 16.1313 18.547 15.9671C18.5223 15.8036 18.4721 15.5786 18.3986 15.3297C18.2465 14.8341 17.9485 14.2541 17.4766 13.9395Z" fill="url(#paint22_linear_53_1789)"/>
<path id="path408" d="M15.7834 10.4389C15.6397 10.3867 15.505 10.3451 15.365 10.3218C15.2265 10.2974 15.093 10.2848 14.965 10.2812C14.709 10.2739 14.4753 10.3035 14.2684 10.3506C13.8533 10.4463 13.539 10.6145 13.3847 10.7055C13.0659 10.6124 12.8139 10.5164 12.5907 10.44C12.4814 10.3999 12.3845 10.3609 12.2986 10.3232C12.2123 10.2859 12.1396 10.2478 12.0703 10.2178C11.7993 10.0931 11.6898 9.9965 11.6898 9.9965C11.7681 10.083 11.8853 10.1653 12.0255 10.2427C12.0972 10.2801 12.1677 10.3225 12.2439 10.3618C12.3197 10.4014 12.3991 10.44 12.4802 10.477C12.5609 10.5142 12.6434 10.5499 12.7249 10.584C12.804 10.62 12.8814 10.655 12.9549 10.6885C13.1033 10.7543 13.2397 10.8111 13.3444 10.8537C13.4098 10.9189 13.5007 11.0331 13.6323 11.1633C13.6973 11.2288 13.771 11.2997 13.8527 11.3734C13.9334 11.4477 14.0152 11.5297 14.1083 11.61C14.2005 11.6912 14.3004 11.7732 14.4078 11.8537C14.5114 11.9365 14.6184 12.0207 14.7348 12.1001C14.85 12.1804 14.9753 12.2555 15.1022 12.3282C15.226 12.4024 15.357 12.4712 15.4949 12.5322C15.9653 12.7356 16.4122 12.6916 16.7545 12.5788C17.0953 12.4679 17.3184 12.2919 17.3184 12.2919C17.3184 12.2919 17.2904 12.2004 17.2335 12.0542C17.17 11.9116 17.0743 11.7156 16.9489 11.5048C16.6935 11.086 16.2895 10.621 15.7834 10.4389Z" fill="url(#paint23_linear_53_1789)"/>
<path id="path410" d="M13.5329 7.65639C13.2453 7.62047 12.9836 7.63238 12.7488 7.67462C12.5101 7.72119 12.298 7.79772 12.1154 7.884C11.7502 8.05692 11.4986 8.26974 11.3739 8.38508C10.7502 8.33436 10.3308 8.25674 10.053 8.19122C9.91596 8.15692 9.81813 8.1219 9.75405 8.09555C9.72228 8.08165 9.69702 8.07353 9.68113 8.06613L9.6573 8.05512C9.70424 8.08472 9.75784 8.11522 9.81759 8.14429C9.8777 8.17262 9.94466 8.1988 10.0167 8.22281C10.0887 8.24681 10.1658 8.26847 10.2459 8.28851C10.2862 8.29807 10.327 8.30764 10.3681 8.31721C10.4084 8.32786 10.4488 8.33833 10.4894 8.34898C10.6524 8.38977 10.8196 8.42388 10.9733 8.45277C11.0118 8.4598 11.0493 8.46648 11.0858 8.47334C11.1212 8.48092 11.1555 8.48833 11.1881 8.49555C11.2542 8.50908 11.314 8.52153 11.3658 8.53236C11.436 8.58435 11.55 8.66504 11.7009 8.75745C11.8475 8.8542 12.0251 8.969 12.234 9.0773C12.3401 9.13001 12.4444 9.19084 12.5583 9.24607C12.6717 9.30167 12.7915 9.35473 12.9172 9.40329C13.0451 9.44968 13.1672 9.50203 13.3004 9.54246C13.4321 9.58415 13.5691 9.61899 13.7105 9.64552C13.8312 9.66664 13.9433 9.67675 14.0511 9.67512C14.159 9.67314 14.2628 9.65924 14.3612 9.63668C14.5578 9.59155 14.7325 9.51141 14.8771 9.42387C15.1664 9.24896 15.333 9.04012 15.333 9.04012C15.333 9.04012 15.2868 8.96268 15.202 8.84193C15.1588 8.78218 15.1088 8.70926 15.0451 8.63399C14.9805 8.55944 14.907 8.47876 14.8258 8.39627C14.7448 8.31378 14.6558 8.22949 14.5605 8.14808C14.4662 8.06577 14.3563 7.99483 14.2467 7.92678C14.024 7.79375 13.7888 7.68419 13.5329 7.65639Z" fill="url(#paint24_linear_53_1789)"/>
<path id="path412" d="M10.9959 5.60011C10.8605 5.60932 10.733 5.62882 10.6137 5.65571C10.4946 5.68242 10.3829 5.71726 10.2762 5.76202C10.0643 5.84903 9.88342 5.95733 9.7309 6.06978C9.42603 6.29505 9.23271 6.53656 9.13885 6.66562C8.54987 6.73367 8.14717 6.73223 7.87588 6.72194C7.74195 6.71417 7.64429 6.69937 7.57967 6.68638C7.54736 6.67988 7.52336 6.67374 7.50729 6.66941L7.48311 6.66345C7.57968 6.70714 7.70476 6.73926 7.8479 6.75749C7.91956 6.7667 7.99519 6.77338 8.07335 6.77771C8.1127 6.77933 8.15241 6.78114 8.19248 6.78258C8.23183 6.78529 8.27136 6.788 8.31089 6.7907C8.62749 6.81002 8.96142 6.79522 9.15889 6.80352C9.23343 6.83926 9.35437 6.89395 9.51086 6.95298C9.55021 6.96724 9.59173 6.98222 9.63469 6.9981C9.67693 7.01525 9.72115 7.03258 9.76736 7.04991C9.85959 7.08456 9.95923 7.11904 10.0655 7.15099C10.1188 7.16724 10.1735 7.18276 10.2298 7.19774C10.2581 7.20496 10.2865 7.21218 10.3152 7.2194C10.3433 7.22752 10.3717 7.23564 10.4004 7.24377C10.5152 7.27553 10.6354 7.30333 10.7599 7.32608C10.8836 7.3499 11.0153 7.36326 11.1439 7.3786C11.2727 7.39358 11.4051 7.40152 11.5395 7.40026C11.7662 7.39882 11.9698 7.34214 12.1411 7.26344C12.3124 7.18547 12.457 7.07879 12.5727 6.97031C12.8043 6.75407 12.9175 6.52916 12.9175 6.52916C12.9175 6.52916 12.903 6.51345 12.8767 6.48548C12.8496 6.45822 12.8122 6.41598 12.7595 6.37158C12.6554 6.28043 12.5061 6.15823 12.3271 6.03513C12.1512 5.90787 11.9307 5.79975 11.7041 5.71419C11.5899 5.67304 11.4745 5.63676 11.3554 5.61672C11.2352 5.59867 11.1144 5.59199 10.9959 5.60011Z" fill="url(#paint25_linear_53_1789)"/>
<path id="path414" d="M8.3959 4.20571C7.90114 4.33802 7.5553 4.58387 7.30837 4.84903C7.06361 5.10931 6.92481 5.36436 6.85946 5.49901C6.72589 5.53728 6.60279 5.56923 6.48926 5.5954C6.37554 5.62247 6.26868 5.65208 6.17247 5.67211C5.97916 5.71417 5.82176 5.73637 5.69649 5.7472C5.57014 5.76219 5.4752 5.76832 5.41238 5.76778C5.34957 5.76778 5.31816 5.76345 5.31816 5.76345C5.41563 5.78854 5.53927 5.79179 5.67627 5.78385C5.81165 5.7824 5.96093 5.76814 6.11147 5.74757C6.41399 5.69937 6.71362 5.65695 6.90188 5.62121C6.93979 5.63078 6.98943 5.64287 7.04899 5.65551C7.10874 5.66778 7.17841 5.68132 7.2544 5.69991C7.40765 5.73421 7.59429 5.7676 7.80349 5.7889C7.8562 5.79341 7.90909 5.79973 7.96251 5.80677C8.0163 5.81308 8.07136 5.8185 8.12749 5.82301C8.23976 5.83168 8.35637 5.83601 8.47586 5.83475C8.53579 5.8342 8.59644 5.83186 8.65745 5.82861C8.71719 5.82753 8.77784 5.82518 8.83867 5.82067C8.96069 5.81164 9.08451 5.79594 9.2087 5.77103C9.62999 5.68348 9.9085 5.43909 10.0838 5.19685C10.2587 4.95751 10.3228 4.73098 10.3228 4.73098C10.3228 4.73098 10.2596 4.68296 10.1507 4.61257C10.0397 4.5465 9.88035 4.46185 9.69407 4.38062C9.60075 4.34019 9.50093 4.30048 9.39624 4.26618C9.28974 4.23604 9.17892 4.21041 9.06664 4.19236C8.95437 4.17413 8.84066 4.16366 8.72838 4.16366C8.67225 4.16384 8.61647 4.16637 8.56124 4.17232C8.50546 4.18027 8.45023 4.19145 8.3959 4.20571Z" fill="url(#paint26_linear_53_1789)"/>
<path id="path416" d="M17.576 27.7569C17.7518 27.668 17.9267 27.5927 18.0986 27.5293C18.2704 27.4658 18.4321 27.4104 18.5942 27.3671C18.9157 27.2793 19.2247 27.2342 19.4984 27.2135C20.0438 27.1701 20.4763 27.2411 20.6933 27.2949C20.7942 27.2102 20.8909 27.1259 20.9837 27.0427C21.0743 26.9588 21.1583 26.8743 21.2398 26.7918C21.4018 26.6261 21.5505 26.4662 21.6803 26.3124C21.8064 26.157 21.9185 26.0095 22.0173 25.8716C22.1151 25.7335 22.2044 25.6068 22.2718 25.4886C22.4106 25.2534 22.5039 25.0662 22.5622 24.9386C22.5914 24.8749 22.612 24.8258 22.6252 24.7929C22.6384 24.7597 22.6431 24.7424 22.6431 24.7424C22.586 24.9635 22.4745 25.2187 22.3364 25.4844C22.2694 25.6178 22.185 25.7505 22.0998 25.8841C22.014 26.0173 21.9236 26.1498 21.8317 26.2795C21.7422 26.4099 21.6386 26.5324 21.5431 26.6519C21.4462 26.771 21.3503 26.8842 21.2588 26.9898C21.1693 27.0959 21.0756 27.1913 20.9924 27.2781C20.9086 27.3647 20.8323 27.4416 20.7662 27.5075C20.7296 27.5804 20.681 27.6748 20.6209 27.786C20.5572 27.8952 20.4808 28.0207 20.3937 28.158C20.3048 28.2945 20.211 28.4459 20.0956 28.5979C19.981 28.7501 19.8558 28.9089 19.7211 29.0692C19.1727 29.7046 18.4345 30.3381 17.6175 30.6522C17.4493 30.7215 17.2804 30.7558 17.1266 30.7724C16.9715 30.7881 16.8268 30.7827 16.6919 30.7619C16.4224 30.7202 16.193 30.6181 16.0058 30.5026C15.8185 30.3869 15.6728 30.2576 15.5733 30.1583C15.4739 30.0589 15.4208 29.9892 15.4208 29.9892C15.4208 29.9892 15.4824 29.8856 15.5945 29.7253C15.6506 29.645 15.7194 29.5506 15.7995 29.4472C15.8753 29.3407 15.9623 29.2252 16.0593 29.1058C16.1078 29.0463 16.1589 28.9858 16.2123 28.925C16.2659 28.8643 16.3172 28.7999 16.3733 28.7376C16.4843 28.6123 16.6049 28.4885 16.7343 28.371C16.8585 28.2501 16.9908 28.1351 17.1327 28.0319C17.2035 27.9802 17.2766 27.9315 17.3515 27.886C17.4242 27.8393 17.4989 27.7959 17.576 27.7569Z" fill="url(#paint27_linear_53_1789)"/>
<path id="path418" d="M19.3603 22.8321C19.4955 22.7017 19.6335 22.5842 19.7724 22.4783C19.9104 22.3721 20.0422 22.2765 20.1776 22.1918C20.4463 22.0227 20.7122 21.8953 20.959 21.8007C21.4433 21.6102 21.8566 21.5554 22.0694 21.544C22.6185 20.7083 22.8746 19.9805 23.0102 19.4845C23.0272 19.4224 23.0425 19.3635 23.0562 19.3083C23.0687 19.2531 23.0781 19.2014 23.0869 19.1534C23.1042 19.0576 23.1163 18.9767 23.1246 18.9114C23.1414 18.7807 23.1434 18.7128 23.1434 18.7128C23.1477 18.8202 23.1432 18.9386 23.1313 19.0648C23.1199 19.1912 23.101 19.3253 23.0685 19.4634C23.0064 19.7397 22.9273 20.033 22.8261 20.316C22.7218 20.5993 22.6093 20.8727 22.5019 21.1131C22.3866 21.3536 22.2788 21.561 22.196 21.7164C22.1824 21.7924 22.1678 21.8913 22.1407 22.0079C22.1133 22.1243 22.0795 22.2593 22.0387 22.4075C21.9967 22.5557 21.9537 22.7183 21.8923 22.8882C21.8308 23.0579 21.7617 23.2366 21.6842 23.4191C21.6099 23.6024 21.5147 23.7867 21.414 23.9707C21.3637 24.0627 21.3111 24.1544 21.2566 24.245C21.229 24.29 21.2012 24.3351 21.1732 24.3804C21.1436 24.4252 21.1126 24.4692 21.0817 24.5129C20.9572 24.688 20.8245 24.8568 20.6842 25.0149C20.5442 25.173 20.3846 25.3169 20.2245 25.4474C20.088 25.5569 19.953 25.6391 19.8182 25.6983C19.6807 25.7566 19.5465 25.7928 19.4175 25.8122C19.1592 25.8513 18.9206 25.8242 18.7166 25.7733C18.5126 25.7223 18.3431 25.6472 18.2242 25.5856C18.1054 25.5241 18.0374 25.4762 18.0374 25.4762C18.0374 25.4762 18.0648 25.3652 18.1227 25.1878C18.1516 25.099 18.1861 24.993 18.2245 24.8746C18.2643 24.7562 18.3115 24.627 18.3671 24.4912C18.396 24.4237 18.4233 24.3533 18.4516 24.2819C18.4805 24.2106 18.5115 24.1384 18.5448 24.0654C18.578 23.9929 18.6135 23.9199 18.6514 23.847C18.6897 23.7752 18.7285 23.7024 18.7677 23.6288C18.924 23.3382 19.1287 23.0624 19.3603 22.8321Z" fill="url(#paint28_linear_53_1789)"/>
<path id="path424" d="M16.8099 9.76928C16.8142 9.60954 16.8334 9.45268 16.8502 9.30918C16.8686 9.16478 16.8949 9.02688 16.9271 8.89566C16.9915 8.63339 17.0796 8.39891 17.1756 8.19621C17.366 7.79116 17.5846 7.51825 17.7099 7.38504C17.6317 6.97746 17.5409 6.61519 17.4285 6.32206C17.3745 6.1735 17.3202 6.03795 17.2671 5.91557C17.2139 5.79355 17.1644 5.68236 17.1115 5.58994C16.9056 5.21432 16.7585 5.04194 16.7585 5.04194C16.8837 5.16883 17.0121 5.34428 17.1357 5.54319C17.1989 5.64139 17.2545 5.75149 17.3099 5.86286C17.3649 5.97459 17.418 6.08903 17.4684 6.20329C17.5189 6.31791 17.5666 6.43234 17.611 6.54371C17.6532 6.65707 17.69 6.76898 17.7247 6.87403C17.7936 7.08468 17.8489 7.27168 17.8886 7.41301C17.9649 7.51608 18.0682 7.6955 18.1927 7.91932C18.2543 8.03177 18.3198 8.1565 18.3859 8.29079C18.451 8.42599 18.5097 8.57563 18.5696 8.72996C18.6286 8.88519 18.6851 9.04728 18.7362 9.21388C18.7837 9.38301 18.8218 9.55864 18.8535 9.73481C18.8842 9.91134 18.9099 10.0881 18.9187 10.2664C18.925 10.446 18.9203 10.6243 18.9028 10.7981C18.8472 11.3832 18.5073 11.7192 18.2054 11.9091C17.9005 12.099 17.6214 12.1514 17.6214 12.1514C17.6214 12.1514 17.5705 12.0683 17.4974 11.9272C17.4177 11.7893 17.313 11.5945 17.2131 11.3653C17.0085 10.9088 16.7965 10.3292 16.8099 9.76928Z" fill="url(#paint29_linear_53_1789)"/>
<path id="path426" d="M14.3509 6.81848C14.2922 6.52444 14.2747 6.24574 14.2839 5.98871C14.2889 5.73619 14.3205 5.50568 14.3673 5.30118C14.4601 4.89234 14.6111 4.59235 14.6994 4.44524C14.3989 3.72431 14.0592 3.22468 13.8001 2.92126C13.6716 2.76675 13.5655 2.65646 13.4918 2.5848C13.4554 2.54852 13.4247 2.52524 13.405 2.50863C13.3844 2.49257 13.3742 2.48445 13.3742 2.48445C13.4456 2.52741 13.5178 2.58481 13.5908 2.65195C13.6639 2.7182 13.7386 2.79292 13.8135 2.87325C13.8882 2.95375 13.9631 3.04003 14.0366 3.1292C14.0727 3.17396 14.1092 3.21945 14.146 3.26512C14.1799 3.31295 14.214 3.36078 14.2483 3.40916C14.3826 3.60193 14.507 3.79669 14.6138 3.97286C14.64 4.01673 14.6658 4.0595 14.6906 4.10102C14.7137 4.14362 14.7359 4.18495 14.7572 4.22412C14.798 4.303 14.8351 4.37448 14.8671 4.43639C14.9535 4.51996 15.0898 4.65624 15.2503 4.8335C15.407 5.01526 15.5821 5.2445 15.7568 5.49937C15.8459 5.625 15.925 5.76687 16.0033 5.91109C16.081 6.05586 16.1548 6.20585 16.2212 6.35892C16.2902 6.50982 16.3402 6.67462 16.3858 6.83509C16.4301 6.997 16.4643 7.15945 16.4858 7.32118C16.5051 7.45655 16.501 7.58489 16.4831 7.70239C16.4656 7.81972 16.4347 7.92622 16.3945 8.0226C16.3142 8.21574 16.1972 8.36899 16.0781 8.48902C15.8393 8.72837 15.5936 8.83667 15.5936 8.83667C15.5936 8.83667 15.5283 8.77223 15.4295 8.65924C15.3795 8.60328 15.3241 8.53306 15.259 8.45689C15.1933 8.38108 15.1227 8.29571 15.0512 8.20203C14.9799 8.10817 14.9077 8.00654 14.8384 7.89788C14.7702 7.78849 14.6952 7.68092 14.6324 7.56341C14.5028 7.33182 14.4061 7.0728 14.3509 6.81848Z" fill="url(#paint30_linear_53_1789)"/>
<path id="path428" d="M11.6012 4.66156C11.5476 4.53106 11.5039 4.40218 11.4689 4.27637C11.4343 4.14966 11.4081 4.02656 11.3864 3.9114C11.3447 3.67837 11.3326 3.45924 11.3384 3.26231C11.3498 2.86846 11.4346 2.56449 11.4893 2.41305C11.0828 1.80891 10.6857 1.40801 10.3944 1.17733C10.2496 1.05892 10.133 0.976795 10.0529 0.924449C10.013 0.898457 9.98213 0.879506 9.96119 0.867412C9.93953 0.856401 9.9287 0.850988 9.9287 0.850988C10.0726 0.90929 10.2327 1.01091 10.3982 1.13095C10.4809 1.19123 10.5646 1.25676 10.6478 1.32535C10.6893 1.35964 10.7309 1.39466 10.7718 1.4304C10.8114 1.46812 10.8512 1.50603 10.891 1.54411C11.2047 1.85187 11.4862 2.16378 11.6411 2.37388C11.7352 2.43507 11.8843 2.53561 12.063 2.66955C12.1075 2.70312 12.1543 2.73832 12.2019 2.77622C12.248 2.81647 12.296 2.85799 12.3456 2.90131C12.4436 2.98867 12.5456 3.08361 12.6481 3.18542C12.6994 3.23632 12.751 3.28884 12.8021 3.34281C12.8276 3.36989 12.853 3.39733 12.8788 3.42494C12.903 3.45419 12.9274 3.48343 12.9521 3.51321C13.049 3.63216 13.1436 3.75689 13.2321 3.88577C13.3198 4.01591 13.4052 4.14551 13.4748 4.28684C13.5449 4.42781 13.6057 4.57185 13.6548 4.71734C13.7369 4.96336 13.7458 5.18014 13.7082 5.37382C13.6705 5.56768 13.5922 5.73176 13.5057 5.86515C13.3322 6.13193 13.1285 6.27832 13.1285 6.27832C13.1285 6.27832 13.1108 6.26605 13.0788 6.24385C13.0463 6.22164 13.0026 6.1859 12.944 6.14619C12.8286 6.06497 12.6727 5.94692 12.5075 5.79963C12.3454 5.64801 12.1593 5.487 12.0001 5.29296C11.9195 5.19765 11.8458 5.09351 11.7779 4.98863C11.7086 4.88539 11.6485 4.77618 11.6012 4.66156Z" fill="url(#paint31_linear_53_1789)"/>
<path id="path430" d="M8.80073 3.22365C8.51265 2.78666 8.38359 2.33757 8.32673 1.98144C8.27168 1.61971 8.29983 1.32712 8.32492 1.17892C8.20796 1.056 8.0937 0.943732 7.98359 0.841748C7.87331 0.740487 7.76465 0.657455 7.6632 0.578756C7.45924 0.423885 7.27783 0.305475 7.12801 0.216487C6.97693 0.132193 6.85636 0.0800285 6.77477 0.0460944C6.69301 0.0127015 6.6495 -0.000115395 6.6495 -0.000115395C6.78993 0.0303893 6.95365 0.0914006 7.12422 0.172987C7.29317 0.260712 7.46934 0.367568 7.63811 0.478938C7.97854 0.695179 8.27854 0.959976 8.45814 1.11629C8.50633 1.1356 8.56878 1.1616 8.64243 1.19391C8.71643 1.22586 8.80145 1.26466 8.89242 1.3152C9.07563 1.41358 9.29133 1.53884 9.51389 1.68776C9.57003 1.72404 9.62526 1.76466 9.67995 1.80816C9.73501 1.85094 9.79006 1.89534 9.84475 1.941C9.95395 2.03252 10.0619 2.12945 10.1651 2.23143C10.2166 2.2827 10.2673 2.3345 10.316 2.38847C10.3637 2.44442 10.4097 2.50164 10.4539 2.56013C10.5422 2.67637 10.6231 2.79731 10.6931 2.92167C10.9319 3.33773 10.8653 3.72869 10.755 4.00197C10.6426 4.27724 10.481 4.448 10.481 4.448C10.481 4.448 10.4067 4.41695 10.2891 4.35739C10.1695 4.30215 10.0045 4.22291 9.8267 4.11696C9.73771 4.06425 9.64548 4.0045 9.55306 3.93952C9.45866 3.87869 9.36425 3.81155 9.27382 3.73808C9.18321 3.66444 9.09639 3.58447 9.01679 3.49747C8.9769 3.45415 8.93917 3.40903 8.90325 3.36246C8.86679 3.31787 8.83232 3.27148 8.80073 3.22365Z" fill="url(#paint32_linear_53_1789)"/>
<path id="path432" d="M19.0263 19.2948C19.0263 19.2948 19.0176 19.4436 19.0019 19.7172C18.9925 19.8542 18.9873 20.0226 18.9703 20.2188C18.9494 20.4147 18.9254 20.6387 18.8986 20.8883C18.8884 21.013 18.864 21.1432 18.8434 21.2793C18.8219 21.4154 18.7997 21.5574 18.7766 21.7051C18.757 21.8533 18.7205 22.0044 18.6891 22.1616C18.6564 22.3184 18.6227 22.4805 18.5882 22.6475C18.5474 22.813 18.5017 22.9823 18.457 23.1565C18.4344 23.2437 18.4117 23.3318 18.3885 23.4209C18.3663 23.5105 18.3346 23.5984 18.3075 23.6888C18.2514 23.8688 18.194 24.0527 18.1355 24.2404C18.068 24.4251 17.9994 24.6133 17.9297 24.8049C17.6378 25.5655 17.2833 26.3629 16.8366 27.1478C16.3908 27.9322 15.8678 28.7102 15.2772 29.4472C14.6866 30.1838 14.0314 30.882 13.3289 31.5101C12.6257 32.1376 11.8807 32.6986 11.1282 33.1848C10.7555 33.4341 10.3797 33.6415 10.0243 33.8473C9.84214 33.942 9.66417 34.035 9.49016 34.1258C9.44666 34.1485 9.40334 34.1711 9.36038 34.1937C9.31724 34.2155 9.27284 34.2346 9.22952 34.2552C9.1427 34.2956 9.05678 34.3357 8.97176 34.3752C8.63513 34.5408 8.30192 34.6691 7.98821 34.8007C7.94886 34.8171 7.90987 34.8334 7.87106 34.8494C7.83171 34.8639 7.79236 34.8779 7.75337 34.8918C7.67558 34.92 7.5985 34.9478 7.52251 34.9752C7.37035 35.0297 7.22288 35.0857 7.07793 35.1357C6.93155 35.1814 6.78913 35.2258 6.65032 35.2693C6.58119 35.2911 6.51278 35.3128 6.44528 35.3341C6.37795 35.3556 6.3117 35.377 6.24492 35.3933C5.98012 35.4637 5.72977 35.5301 5.49331 35.5931C5.25613 35.6458 5.03285 35.6954 4.82292 35.7424C4.71859 35.7682 4.61643 35.7839 4.51824 35.8018C4.42004 35.8196 4.32528 35.8364 4.23377 35.853C3.86897 35.9272 3.55526 35.961 3.29371 36.0017C3.03198 36.0456 2.81971 36.0622 2.65401 36.0828C2.32243 36.1212 2.17604 36.1452 2.17604 36.1452C2.17604 36.1452 2.3217 36.1616 2.6569 36.1835C2.8244 36.1932 3.03974 36.2118 3.30707 36.2055C3.57439 36.2021 3.89622 36.2082 4.27311 36.1732C4.36788 36.166 4.46589 36.1586 4.56733 36.151C4.66914 36.1429 4.77509 36.1367 4.88321 36.1203C5.1018 36.0904 5.33392 36.059 5.58085 36.0252C5.82724 35.9817 6.08806 35.9282 6.36603 35.8738C6.43571 35.8615 6.5052 35.8434 6.57578 35.8254C6.64635 35.8073 6.71801 35.7893 6.79057 35.7709C6.93606 35.7335 7.08534 35.6951 7.23858 35.6557C7.39074 35.6115 7.54543 35.5608 7.705 35.5111C7.78478 35.4859 7.86565 35.4602 7.94741 35.4344C7.98821 35.4213 8.02936 35.4081 8.07087 35.3951C8.11167 35.3799 8.15264 35.3644 8.1938 35.3491C8.52321 35.2249 8.87266 35.1012 9.22573 34.9381C9.31489 34.8989 9.40479 34.8592 9.49594 34.8193C9.54125 34.7987 9.58763 34.7798 9.63312 34.7579C9.67806 34.7353 9.72337 34.7126 9.76886 34.6899C9.9508 34.598 10.1371 34.5043 10.3275 34.4085C10.6992 34.1994 11.0909 33.9854 11.4784 33.7269C12.2601 33.2217 13.0282 32.6302 13.7453 31.9659C14.4619 31.3011 15.1216 30.5605 15.7074 29.7807C16.2929 29.001 16.8012 28.1797 17.2252 27.3562C17.6499 26.5323 17.9752 25.7003 18.234 24.9113C18.2954 24.7128 18.3577 24.5184 18.4147 24.3269C18.4644 24.1332 18.5131 23.9435 18.5607 23.7576C18.5833 23.6646 18.6107 23.574 18.6284 23.482C18.647 23.3903 18.6654 23.2996 18.6837 23.2101C18.7194 23.0314 18.7564 22.8576 18.7882 22.6881C18.8138 22.5174 18.8387 22.3518 18.8627 22.1915C18.8857 22.0311 18.9134 21.8769 18.9246 21.7262C18.9393 21.5764 18.9533 21.432 18.9669 21.2939C18.9795 21.1556 18.9961 21.0241 18.999 20.8977C19.0104 20.6459 19.0208 20.4197 19.0297 20.2219C19.0346 20.0246 19.0292 19.8553 19.0295 19.7179C19.0275 19.4438 19.0263 19.2948 19.0263 19.2948Z" fill="url(#paint33_linear_53_1789)"/>
<path id="path434" d="M24.5298 30.7877C24.5298 30.7877 24.0616 31.1705 23.2556 31.7996C22.8526 32.1138 22.365 32.4898 21.806 32.9048C21.2465 33.3181 20.6181 33.7772 19.9208 34.2271C19.2279 34.682 18.4461 35.0874 17.59 35.4073C16.7344 35.726 15.8117 35.9569 14.865 36.1047C13.9179 36.252 12.9468 36.3162 11.988 36.3081C11.7481 36.3002 11.5091 36.299 11.2712 36.2865C11.1526 36.2798 11.0338 36.273 10.9158 36.2663L10.7385 36.2562L10.5624 36.2407C10.3277 36.2199 10.0943 36.202 9.864 36.1717C9.74848 36.1582 9.6335 36.1448 9.51906 36.1314C9.40336 36.1159 9.2882 36.1004 9.17358 36.0852C8.25555 35.962 7.40773 35.8452 6.62327 35.7851C5.83953 35.7228 5.12095 35.7105 4.47349 35.7538C3.82585 35.7961 3.25077 35.8939 2.7524 36.0222C2.68995 36.0377 2.62876 36.0531 2.56811 36.0684C2.50854 36.0867 2.44988 36.1047 2.39212 36.1224C2.27696 36.159 2.16541 36.1899 2.05855 36.2288C1.84466 36.3045 1.64863 36.3849 1.4721 36.4728C1.1185 36.6469 0.83872 36.8376 0.632046 37.0273C0.423748 37.2155 0.287285 37.3975 0.196674 37.5456C0.153353 37.6215 0.11635 37.6857 0.0928841 37.7448C0.0667114 37.8018 0.0468578 37.8488 0.0358486 37.8877C0.0118408 37.9628 0.000108719 38 0.000108719 38C0.000108719 38 0.0203228 37.9668 0.0612965 37.9C0.0802498 37.8652 0.109314 37.8242 0.145414 37.7749C0.178627 37.724 0.226097 37.6697 0.279345 37.6061C0.390173 37.4825 0.543777 37.3361 0.760201 37.1903C0.975359 37.0431 1.25496 36.9009 1.6008 36.7744C1.77372 36.7103 1.96451 36.6539 2.17137 36.6011C2.2748 36.5738 2.38508 36.5538 2.49699 36.5282C2.55313 36.5159 2.61017 36.5035 2.66793 36.4906C2.72659 36.4808 2.78616 36.4706 2.84644 36.4603C3.32856 36.3751 3.87783 36.3168 4.49713 36.3067C5.11644 36.2953 5.80469 36.332 6.56641 36.4102C7.32849 36.4861 8.16367 36.6112 9.0864 36.7352C9.20192 36.7506 9.31798 36.7659 9.4344 36.7813C9.55281 36.7946 9.67158 36.808 9.7909 36.8215C10.0292 36.8513 10.2705 36.8683 10.5133 36.8872L10.6954 36.9013L10.8786 36.9098C11.001 36.915 11.1235 36.9202 11.2465 36.9257C11.4923 36.9348 11.7398 36.9323 11.9876 36.9356C12.9793 36.926 13.9831 36.8338 14.959 36.6498C15.9346 36.4663 16.8826 36.191 17.7554 35.824C18.6272 35.4573 19.423 34.9959 20.1051 34.4984C20.791 34.0068 21.3959 33.5134 21.9343 33.0678C22.4715 32.6212 22.937 32.2169 23.321 31.8785C24.0886 31.2012 24.5298 30.7877 24.5298 30.7877Z" fill="url(#paint34_linear_53_1789)"/>
<path id="path436" d="M12.7456 31.3895C12.7456 31.3895 12.6851 31.3989 12.5738 31.4202C12.4626 31.4417 12.3008 31.4756 12.0996 31.5289C11.6972 31.6341 11.1397 31.826 10.522 32.1159C9.90252 32.4018 9.22509 32.7809 8.52872 33.1507C8.17999 33.3352 7.82548 33.5159 7.46845 33.6765C7.11232 33.8381 6.75168 33.9767 6.39916 34.0989C5.69375 34.3433 5.09196 34.5001 4.5963 34.6259C4.1001 34.7505 3.70751 34.8384 3.40697 34.9093C3.10626 34.9785 2.89706 35.0295 2.76331 35.0633C2.62937 35.0971 2.57125 35.1147 2.57125 35.1147C2.57125 35.1147 2.63208 35.1135 2.7698 35.1045C2.90752 35.0953 3.12232 35.077 3.43008 35.0402C3.73765 35.0019 4.13855 34.9463 4.64558 34.8449C5.15188 34.7422 5.76704 34.5994 6.48616 34.3503C6.84518 34.2256 7.21376 34.0796 7.5753 33.9077C7.93703 33.7366 8.29154 33.5442 8.63666 33.3476C9.32599 32.9532 9.98176 32.548 10.5808 32.235C11.1778 31.9184 11.718 31.6973 12.1115 31.5688C12.3081 31.5038 12.4669 31.4598 12.5763 31.4316C12.6859 31.4031 12.7456 31.3895 12.7456 31.3895Z" fill="url(#paint35_linear_53_1789)"/>
</g>
<defs>
<linearGradient id="paint0_linear_53_1789" x1="2.78816" y1="13.0552" x2="2.78816" y2="11.8583" gradientUnits="userSpaceOnUse">
<stop stop-color="#DBC992"/>
<stop offset="1" stop-color="#E8CD80"/>
</linearGradient>
<linearGradient id="paint1_linear_53_1789" x1="9.5723" y1="30.8545" x2="9.5723" y2="25.8753" gradientUnits="userSpaceOnUse">
<stop stop-color="#DBC992"/>
<stop offset="1" stop-color="#E8CD80"/>
</linearGradient>
<linearGradient id="paint2_linear_53_1789" x1="10.5599" y1="27.8188" x2="10.5599" y2="23.415" gradientUnits="userSpaceOnUse">
<stop stop-color="#DBC992"/>
<stop offset="1" stop-color="#E8CD80"/>
</linearGradient>
<linearGradient id="paint3_linear_53_1789" x1="10.6708" y1="24.6265" x2="10.6708" y2="21.0684" gradientUnits="userSpaceOnUse">
<stop stop-color="#DBC992"/>
<stop offset="1" stop-color="#E8CD80"/>
</linearGradient>
<linearGradient id="paint4_linear_53_1789" x1="10.1773" y1="21.6597" x2="10.1773" y2="18.9929" gradientUnits="userSpaceOnUse">
<stop stop-color="#DBC992"/>
<stop offset="1" stop-color="#E8CD80"/>
</linearGradient>
<linearGradient id="paint5_linear_53_1789" x1="9.16242" y1="19.1123" x2="9.16242" y2="17.2734" gradientUnits="userSpaceOnUse">
<stop stop-color="#DBC992"/>
<stop offset="1" stop-color="#E8CD80"/>
</linearGradient>
<linearGradient id="paint6_linear_53_1789" x1="7.78243" y1="17.053" x2="7.78243" y2="15.6516" gradientUnits="userSpaceOnUse">
<stop stop-color="#DBC992"/>
<stop offset="1" stop-color="#E8CD80"/>
</linearGradient>
<linearGradient id="paint7_linear_53_1789" x1="6.20644" y1="15.4905" x2="6.20644" y2="14.2516" gradientUnits="userSpaceOnUse">
<stop stop-color="#DBC992"/>
<stop offset="1" stop-color="#E8CD80"/>
</linearGradient>
<linearGradient id="paint8_linear_53_1789" x1="4.57151" y1="14.4153" x2="4.57151" y2="13.2673" gradientUnits="userSpaceOnUse">
<stop stop-color="#DBC992"/>
<stop offset="1" stop-color="#E8CD80"/>
</linearGradient>
<linearGradient id="paint9_linear_53_1789" x1="12.2733" y1="31.5486" x2="12.2733" y2="27.4008" gradientUnits="userSpaceOnUse">
<stop stop-color="#DBC992"/>
<stop offset="1" stop-color="#E8CD80"/>
</linearGradient>
<linearGradient id="paint10_linear_53_1789" x1="13.3424" y1="28.1482" x2="13.3424" y2="23.2597" gradientUnits="userSpaceOnUse">
<stop stop-color="#DBC992"/>
<stop offset="1" stop-color="#E8CD80"/>
</linearGradient>
<linearGradient id="paint11_linear_53_1789" x1="13.3883" y1="24.6968" x2="13.3883" y2="19.4924" gradientUnits="userSpaceOnUse">
<stop stop-color="#DBC992"/>
<stop offset="1" stop-color="#E8CD80"/>
</linearGradient>
<linearGradient id="paint12_linear_53_1789" x1="12.7285" y1="21.5149" x2="12.7285" y2="16.3263" gradientUnits="userSpaceOnUse">
<stop stop-color="#DBC992"/>
<stop offset="1" stop-color="#E8CD80"/>
</linearGradient>
<linearGradient id="paint13_linear_53_1789" x1="11.4514" y1="18.7534" x2="11.4514" y2="13.8705" gradientUnits="userSpaceOnUse">
<stop stop-color="#DBC992"/>
<stop offset="1" stop-color="#E8CD80"/>
</linearGradient>
<linearGradient id="paint14_linear_53_1789" x1="9.45784" y1="16.4768" x2="9.45784" y2="12.1141" gradientUnits="userSpaceOnUse">
<stop stop-color="#DBC992"/>
<stop offset="1" stop-color="#E8CD80"/>
</linearGradient>
<linearGradient id="paint15_linear_53_1789" x1="7.32411" y1="14.7197" x2="7.32411" y2="10.9924" gradientUnits="userSpaceOnUse">
<stop stop-color="#DBC992"/>
<stop offset="1" stop-color="#E8CD80"/>
</linearGradient>
<linearGradient id="paint16_linear_53_1789" x1="5.2113" y1="13.4626" x2="5.2113" y2="10.4077" gradientUnits="userSpaceOnUse">
<stop stop-color="#DBC992"/>
<stop offset="1" stop-color="#E8CD80"/>
</linearGradient>
<linearGradient id="paint17_linear_53_1789" x1="6.49068" y1="35.2742" x2="6.49068" y2="23.659" gradientUnits="userSpaceOnUse">
<stop stop-color="#DBC992"/>
<stop offset="1" stop-color="#E8CD80"/>
</linearGradient>
<linearGradient id="paint18_linear_53_1789" x1="5.22742" y1="3.85449" x2="5.22742" y2="2.11039" gradientUnits="userSpaceOnUse">
<stop stop-color="#DBC992"/>
<stop offset="1" stop-color="#E8CD80"/>
</linearGradient>
<linearGradient id="paint19_linear_53_1789" x1="15.1059" y1="29.7712" x2="15.1059" y2="22.5216" gradientUnits="userSpaceOnUse">
<stop stop-color="#DBC992"/>
<stop offset="1" stop-color="#E8CD80"/>
</linearGradient>
<linearGradient id="paint20_linear_53_1789" x1="16.544" y1="25.3511" x2="16.544" y2="18.9389" gradientUnits="userSpaceOnUse">
<stop stop-color="#DBC992"/>
<stop offset="1" stop-color="#E8CD80"/>
</linearGradient>
<linearGradient id="paint21_linear_53_1789" x1="16.7051" y1="20.7034" x2="16.7051" y2="15.5223" gradientUnits="userSpaceOnUse">
<stop stop-color="#DBC992"/>
<stop offset="1" stop-color="#E8CD80"/>
</linearGradient>
<linearGradient id="paint22_linear_53_1789" x1="15.9867" y1="16.3833" x2="15.9867" y2="12.5005" gradientUnits="userSpaceOnUse">
<stop stop-color="#DBC992"/>
<stop offset="1" stop-color="#E8CD80"/>
</linearGradient>
<linearGradient id="paint23_linear_53_1789" x1="14.5091" y1="12.6741" x2="14.5091" y2="9.9965" gradientUnits="userSpaceOnUse">
<stop stop-color="#DBC992"/>
<stop offset="1" stop-color="#E8CD80"/>
</linearGradient>
<linearGradient id="paint24_linear_53_1789" x1="12.5002" y1="9.67529" x2="12.5002" y2="7.63512" gradientUnits="userSpaceOnUse">
<stop stop-color="#DBC992"/>
<stop offset="1" stop-color="#E8CD80"/>
</linearGradient>
<linearGradient id="paint25_linear_53_1789" x1="10.2051" y1="7.40039" x2="10.2051" y2="5.5967" gradientUnits="userSpaceOnUse">
<stop stop-color="#DBC992"/>
<stop offset="1" stop-color="#E8CD80"/>
</linearGradient>
<linearGradient id="paint26_linear_53_1789" x1="7.8249" y1="5.83496" x2="7.8249" y2="4.16366" gradientUnits="userSpaceOnUse">
<stop stop-color="#DBC992"/>
<stop offset="1" stop-color="#E8CD80"/>
</linearGradient>
<linearGradient id="paint27_linear_53_1789" x1="19.0384" y1="30.7815" x2="19.0384" y2="24.7424" gradientUnits="userSpaceOnUse">
<stop stop-color="#DBC992"/>
<stop offset="1" stop-color="#E8CD80"/>
</linearGradient>
<linearGradient id="paint28_linear_53_1789" x1="20.5957" y1="25.8308" x2="20.5957" y2="18.7128" gradientUnits="userSpaceOnUse">
<stop stop-color="#DBC992"/>
<stop offset="1" stop-color="#E8CD80"/>
</linearGradient>
<linearGradient id="paint29_linear_53_1789" x1="17.8418" y1="12.1514" x2="17.8418" y2="5.04194" gradientUnits="userSpaceOnUse">
<stop stop-color="#DBC992"/>
<stop offset="1" stop-color="#E8CD80"/>
</linearGradient>
<linearGradient id="paint30_linear_53_1789" x1="14.9391" y1="8.83667" x2="14.9391" y2="2.48445" gradientUnits="userSpaceOnUse">
<stop stop-color="#DBC992"/>
<stop offset="1" stop-color="#E8CD80"/>
</linearGradient>
<linearGradient id="paint31_linear_53_1789" x1="11.8325" y1="6.27832" x2="11.8325" y2="0.850988" gradientUnits="userSpaceOnUse">
<stop stop-color="#DBC992"/>
<stop offset="1" stop-color="#E8CD80"/>
</linearGradient>
<linearGradient id="paint32_linear_53_1789" x1="8.75598" y1="4.448" x2="8.75598" y2="-0.000115395" gradientUnits="userSpaceOnUse">
<stop stop-color="#DBC992"/>
<stop offset="1" stop-color="#E8CD80"/>
</linearGradient>
<linearGradient id="paint33_linear_53_1789" x1="10.6189" y1="36.2068" x2="10.6189" y2="19.2948" gradientUnits="userSpaceOnUse">
<stop stop-color="#DBC992"/>
<stop offset="1" stop-color="#E8CD80"/>
</linearGradient>
<linearGradient id="paint34_linear_53_1789" x1="12.2867" y1="38" x2="12.2867" y2="30.7877" gradientUnits="userSpaceOnUse">
<stop stop-color="#DBC992"/>
<stop offset="1" stop-color="#E8CD80"/>
</linearGradient>
<linearGradient id="paint35_linear_53_1789" x1="7.66746" y1="35.1147" x2="7.66746" y2="31.3895" gradientUnits="userSpaceOnUse">
<stop stop-color="#DBC992"/>
<stop offset="1" stop-color="#E8CD80"/>
</linearGradient>
</defs>
</svg>
