<svg width="25" height="38" viewBox="0 0 25 38" fill="none" xmlns="http://www.w3.org/2000/svg">
<g id="Group 27">
<path id="path362" d="M22.5758 12.0928C22.6874 12.0827 22.8229 12.0842 22.9623 12.0789C23.1016 12.076 23.2451 12.0686 23.3751 12.0751C23.6343 12.0816 23.8374 12.0867 23.8374 12.0867C23.8374 12.0867 23.635 12.102 23.3769 12.1215C23.248 12.1284 23.1061 12.1499 22.9688 12.1665C22.8316 12.1856 22.6984 12.197 22.5892 12.2183C22.5316 12.2616 22.4495 12.3204 22.3475 12.3854C22.2459 12.4515 22.1237 12.519 21.9879 12.5982C21.8518 12.6764 21.6988 12.7455 21.5347 12.8166C21.4526 12.8529 21.3672 12.8868 21.2786 12.9172C21.1899 12.9486 21.0966 12.9708 21.0028 13C20.8324 13.0491 20.6643 13.0594 20.5071 13.0538C20.3515 13.0527 20.2053 13.0305 20.0784 13.0015C20.0152 12.9872 19.9564 12.9702 19.9048 12.9556C19.8535 12.9415 19.8084 12.9273 19.771 12.9146C19.6966 12.8892 19.6533 12.8697 19.6533 12.8697C19.6533 12.8697 19.6715 12.826 19.7109 12.7558C19.7306 12.7206 19.7555 12.6787 19.7862 12.6325C19.817 12.587 19.8544 12.5394 19.8975 12.4887C19.9842 12.3874 20.0955 12.2782 20.2324 12.178C20.3706 12.0829 20.5362 12.0024 20.7239 11.9484C20.8273 11.9168 20.9325 11.9027 21.0342 11.8876C21.1361 11.8737 21.2358 11.865 21.3325 11.86C21.526 11.8522 21.7089 11.8724 21.871 11.8939C22.0329 11.9138 22.1771 11.9556 22.296 11.9919C22.4152 12.0289 22.5098 12.0652 22.5758 12.0928Z" fill="url(#paint0_linear_53_1752)"/>
<path id="path364" d="M14.1292 28.9932C14.1481 28.8657 14.1761 28.7469 14.211 28.6368C14.246 28.5262 14.2934 28.4217 14.3422 28.3266C14.4418 28.1352 14.5573 27.9771 14.6795 27.8441C14.9252 27.5777 15.1747 27.4194 15.3064 27.3432C15.321 27.2775 15.3349 27.215 15.3483 27.1551C15.3626 27.0941 15.3761 27.036 15.3891 26.9807C15.4142 26.8695 15.4326 26.7694 15.4492 26.6773C15.4889 26.4912 15.5042 26.3441 15.5174 26.2253C15.5313 26.1066 15.5328 26.0197 15.5306 25.9618C15.5295 25.9331 15.5275 25.9114 15.5259 25.8972L15.5237 25.8753C15.5506 25.9638 15.5604 26.0762 15.5548 26.2039C15.5501 26.3315 15.5432 26.4701 15.5239 26.6136C15.5075 26.756 15.4938 26.8981 15.4739 27.0306C15.4553 27.1625 15.445 27.2791 15.432 27.3704C15.444 27.4053 15.4588 27.4511 15.4748 27.5065C15.4936 27.5607 15.5144 27.6239 15.5351 27.6957C15.557 27.7666 15.5748 27.848 15.5988 27.9329C15.6227 28.0181 15.6452 28.1101 15.6654 28.2083C15.7532 28.5971 15.8252 29.0719 15.797 29.5704C15.7745 29.9901 15.5667 30.317 15.3534 30.5341C15.1416 30.7516 14.9263 30.8545 14.9263 30.8545C14.9263 30.8545 14.8692 30.7978 14.7824 30.698C14.7393 30.648 14.6886 30.5873 14.6341 30.5179C14.5828 30.446 14.5277 30.3651 14.473 30.2771C14.3599 30.1036 14.2647 29.8899 14.1924 29.6722C14.161 29.5605 14.1373 29.4462 14.1247 29.3327C14.1184 29.276 14.1147 29.2193 14.1147 29.1632C14.1164 29.1058 14.1209 29.0491 14.1292 28.9932Z" fill="url(#paint1_linear_53_1752)"/>
<path id="path366" d="M12.9701 25.8976C13.0232 25.7866 13.0819 25.6864 13.1447 25.5956C13.208 25.5046 13.2804 25.4223 13.3515 25.3492C13.4956 25.2025 13.6474 25.09 13.7934 25.0028C14.0919 24.8277 14.3638 24.7521 14.5051 24.7189C14.7616 24.2713 14.9224 23.9557 15.0055 23.7406C15.0439 23.6335 15.0769 23.5527 15.0903 23.498C15.1055 23.4433 15.1089 23.415 15.1089 23.415C15.1087 23.4601 15.1022 23.5095 15.0907 23.5626C15.0786 23.6155 15.0612 23.6722 15.0452 23.731C15.0114 23.8485 14.9569 23.9767 14.9047 24.1045C14.8546 24.2321 14.7972 24.3604 14.7432 24.4778C14.6948 24.5942 14.6483 24.6994 14.6118 24.7799C14.6123 24.8157 14.6131 24.8619 14.6138 24.9176C14.6158 24.9729 14.6168 25.0373 14.6158 25.1093C14.6156 25.181 14.6091 25.2611 14.6071 25.346C14.6049 25.431 14.6001 25.5221 14.5909 25.618C14.5611 26.0001 14.4901 26.4562 14.3248 26.9024C14.2887 26.9968 14.2427 27.0828 14.1919 27.1604C14.1428 27.2373 14.0869 27.306 14.0271 27.3676C13.9075 27.4907 13.7725 27.5838 13.645 27.6515C13.3903 27.7874 13.1643 27.8188 13.1643 27.8188C13.1643 27.8188 13.1277 27.7512 13.0761 27.6364C13.0232 27.5217 12.9685 27.355 12.9158 27.1647C12.8887 27.0698 12.8736 26.9656 12.858 26.8597C12.8452 26.753 12.8313 26.6445 12.8358 26.5335C12.8421 26.3122 12.8734 26.0927 12.9701 25.8976Z" fill="url(#paint2_linear_53_1752)"/>
<path id="path368" d="M12.7588 22.8079C12.8355 22.72 12.9151 22.6431 12.9958 22.5761C13.0772 22.5091 13.1651 22.4524 13.2496 22.4035C13.4198 22.3061 13.5882 22.2418 13.7449 22.199C14.0563 22.1138 14.3304 22.1147 14.4673 22.1203C14.649 21.9469 14.7826 21.7954 14.9057 21.6683C14.9649 21.6043 15.016 21.5451 15.06 21.4909C15.0821 21.4637 15.1023 21.4378 15.1209 21.4129C15.1409 21.3882 15.1595 21.3651 15.177 21.3436C15.3142 21.1691 15.3523 21.0684 15.3523 21.0684C15.3312 21.1523 15.2822 21.2462 15.216 21.3451C15.1996 21.3698 15.1819 21.3947 15.1635 21.42C15.1467 21.4458 15.1292 21.4716 15.1108 21.4978C15.0743 21.5498 15.0348 21.6025 14.9936 21.6546C14.9526 21.707 14.91 21.759 14.8674 21.8095C14.8281 21.8609 14.7891 21.9111 14.7508 21.9586C14.6748 22.0537 14.6034 22.1389 14.5481 22.2039C14.5319 22.2705 14.5095 22.3777 14.4687 22.5102C14.4498 22.5766 14.4221 22.649 14.3985 22.7272C14.3749 22.8055 14.3471 22.8887 14.3142 22.9752C14.1808 23.3216 14.0073 23.7261 13.727 24.0923C13.5001 24.4006 13.1754 24.5403 12.9056 24.5945C12.6359 24.6497 12.4222 24.6167 12.4222 24.6167C12.4222 24.6167 12.4081 24.5452 12.394 24.4261C12.3868 24.3667 12.3798 24.2954 12.3743 24.2154C12.3686 24.1354 12.3716 24.0466 12.3747 23.9528C12.3787 23.8589 12.3863 23.7596 12.3993 23.6587C12.4169 23.558 12.4402 23.4553 12.4702 23.355C12.5007 23.2544 12.5364 23.156 12.5832 23.0636C12.6332 22.9712 12.6913 22.8846 12.7588 22.8079Z" fill="url(#paint3_linear_53_1752)"/>
<path id="path370" d="M13.3292 19.9812C13.5079 19.8559 13.7015 19.7794 13.879 19.7303C14.0579 19.6814 14.227 19.6626 14.381 19.661C14.6943 19.6604 14.9407 19.7247 15.066 19.7631C15.169 19.7039 15.2616 19.6478 15.3447 19.5944C15.4306 19.5422 15.5098 19.4942 15.579 19.448C15.6483 19.4021 15.7091 19.3588 15.7625 19.3185C15.8158 19.2781 15.867 19.2433 15.9082 19.2101C16.0755 19.0785 16.1345 18.9929 16.1345 18.9929C16.0952 19.0666 16.0279 19.1431 15.9437 19.2204C15.9022 19.259 15.8539 19.2967 15.8075 19.3368C15.7616 19.377 15.7127 19.4167 15.6627 19.4561C15.4578 19.6102 15.2528 19.7658 15.1205 19.8604C15.104 19.8891 15.0829 19.9261 15.0573 19.9707C15.0335 20.0156 15.0046 20.0673 14.9705 20.1239C14.9026 20.2377 14.8113 20.3703 14.714 20.516C14.6634 20.5884 14.6078 20.6626 14.5467 20.7373C14.4875 20.8126 14.4281 20.89 14.36 20.9654C14.2934 21.0413 14.218 21.1154 14.1425 21.1886C14.0685 21.262 13.9887 21.3331 13.9023 21.4001C13.7562 21.5127 13.5992 21.5808 13.4517 21.6194C13.3021 21.6577 13.1548 21.6651 13.025 21.6564C12.7653 21.6398 12.5767 21.5562 12.5767 21.5562C12.5767 21.5562 12.5801 21.4867 12.5942 21.3737C12.611 21.2615 12.6456 21.1071 12.696 20.936C12.8005 20.5956 13.0052 20.1972 13.3292 19.9812Z" fill="url(#paint4_linear_53_1752)"/>
<path id="path372" d="M14.4923 17.5772C15.2854 17.2942 15.9251 17.6375 16.1397 17.7604C16.3585 17.6965 16.5316 17.6304 16.685 17.5781C16.8359 17.5239 16.9493 17.4685 17.0423 17.4254C17.2285 17.3398 17.3036 17.2734 17.3036 17.2734C17.2498 17.333 17.1693 17.3893 17.0731 17.4425C16.9767 17.4958 16.8731 17.5535 16.7609 17.6037C16.7053 17.629 16.6488 17.6535 16.5928 17.677C16.5387 17.7015 16.4856 17.7256 16.4347 17.7487C16.3329 17.794 16.2392 17.8328 16.1674 17.8622C16.1224 17.907 16.0598 17.9855 15.9695 18.0748C15.9249 18.1198 15.8744 18.1683 15.8183 18.219C15.7627 18.2701 15.7067 18.3264 15.6426 18.3817C15.5793 18.4375 15.5107 18.4936 15.4369 18.549C15.3657 18.6059 15.2923 18.6638 15.2123 18.7181C15.1333 18.7732 15.0472 18.8248 14.9602 18.875C14.8751 18.9259 14.7851 18.973 14.6903 19.0149C14.3672 19.1546 14.0604 19.1243 13.8253 19.047C13.5912 18.9708 13.438 18.8499 13.438 18.8499C13.438 18.8499 13.4571 18.7871 13.4961 18.6869C13.54 18.5889 13.6055 18.4542 13.6918 18.3095C13.8672 18.0218 14.1447 17.7023 14.4923 17.5772Z" fill="url(#paint5_linear_53_1752)"/>
<path id="path374" d="M16.038 15.6664C16.2355 15.6415 16.4153 15.6498 16.5765 15.6787C16.7405 15.7108 16.8862 15.7635 17.0116 15.8225C17.2624 15.9415 17.4353 16.0875 17.5208 16.1669C17.949 16.1319 18.2373 16.0787 18.428 16.0337C18.5221 16.0101 18.5894 15.9862 18.6333 15.968C18.6779 15.9503 18.6999 15.9402 18.6999 15.9402C18.6353 15.981 18.5526 16.0236 18.453 16.0552C18.4035 16.0718 18.3506 16.0868 18.2956 16.1005C18.2681 16.1072 18.24 16.1137 18.2116 16.1204C18.1842 16.1276 18.1564 16.1346 18.1284 16.142C18.0165 16.1698 17.9015 16.1935 17.7959 16.2131C17.6889 16.2312 17.599 16.2548 17.5264 16.2678C17.4782 16.3036 17.3997 16.3592 17.2963 16.4225C17.1956 16.4889 17.0737 16.5676 16.9301 16.6422C16.8573 16.6785 16.7857 16.7202 16.7075 16.7583C16.6295 16.7963 16.5472 16.8328 16.4609 16.8662C16.2896 16.9337 16.1117 16.9972 15.916 17.0323C15.8331 17.0471 15.7563 17.0541 15.6822 17.0528C15.6081 17.0516 15.5368 17.0418 15.4693 17.0263C15.3342 16.9953 15.2142 16.9406 15.1149 16.8803C14.9162 16.7602 14.8018 16.6167 14.8018 16.6167C14.8018 16.6167 14.8335 16.5637 14.8918 16.4806C14.9214 16.4395 14.9557 16.3895 14.9996 16.3379C15.0438 16.2866 15.0944 16.2312 15.1501 16.1745C15.2059 16.1178 15.2669 16.0601 15.3323 16.0041C15.3971 15.9476 15.4727 15.8987 15.548 15.852C15.7008 15.7608 15.8622 15.6855 16.038 15.6664Z" fill="url(#paint6_linear_53_1752)"/>
<path id="path376" d="M17.7803 14.254C17.9669 14.2679 18.1283 14.3042 18.2747 14.3652C18.42 14.4251 18.5442 14.4993 18.649 14.5767C18.8584 14.7312 18.9911 14.8971 19.0557 14.9857C19.4602 15.0325 19.7367 15.0316 19.923 15.0244C20.0151 15.0191 20.082 15.009 20.1264 15.0002C20.1707 14.9906 20.1929 14.9843 20.1929 14.9843C20.1264 15.0142 20.0405 15.0364 19.9422 15.0487C19.8931 15.0552 19.8411 15.0597 19.7873 15.0626C19.7606 15.0639 19.7333 15.065 19.7055 15.0662C19.6786 15.068 19.6515 15.0698 19.6243 15.0716C19.4068 15.0848 19.1775 15.0749 19.042 15.0805C18.9905 15.105 18.9077 15.1426 18.8001 15.183C18.7732 15.1929 18.7447 15.2032 18.7151 15.2141C18.6859 15.2254 18.6557 15.2373 18.6241 15.2498C18.5608 15.2734 18.4922 15.2971 18.4191 15.3191C18.2712 15.3606 18.1135 15.4083 17.9424 15.4393C17.8574 15.4556 17.7669 15.465 17.6785 15.4754C17.5902 15.4857 17.4992 15.4911 17.4068 15.4904C17.2512 15.4895 17.1113 15.4503 16.9937 15.3964C16.8761 15.3428 16.7767 15.2695 16.6973 15.1951C16.5382 15.0467 16.4604 14.8919 16.4604 14.8919C16.4604 14.8919 16.4706 14.8814 16.4884 14.8619C16.5072 14.8433 16.5327 14.8143 16.5689 14.7837C16.6404 14.7213 16.7431 14.6374 16.866 14.5527C16.9868 14.4653 17.1382 14.3912 17.2938 14.3323C17.3722 14.304 17.4514 14.2792 17.5334 14.2653C17.616 14.2531 17.6989 14.2484 17.7803 14.254Z" fill="url(#paint7_linear_53_1752)"/>
<path id="path378" d="M19.5661 13.296C20.2421 13.4709 20.5307 14.0032 20.6213 14.1843C20.713 14.2106 20.7977 14.2325 20.8757 14.2505C20.9536 14.2691 21.0271 14.2895 21.0932 14.3032C21.226 14.3321 21.3341 14.3475 21.4201 14.3547C21.5939 14.3772 21.68 14.3661 21.68 14.3661C21.613 14.3832 21.5282 14.3854 21.434 14.3801C21.341 14.3791 21.2385 14.3693 21.135 14.355C20.9273 14.322 20.7215 14.2929 20.5921 14.2684C20.5406 14.2832 20.4549 14.2975 20.3502 14.3224C20.2448 14.346 20.1166 14.3689 19.9732 14.3836C19.8302 14.4002 19.6759 14.4179 19.5112 14.415C19.4701 14.4148 19.4286 14.413 19.3865 14.4108C19.3454 14.4101 19.3038 14.4083 19.262 14.4052C19.1782 14.3993 19.0934 14.3883 19.008 14.3711C18.7185 14.311 18.5273 14.1433 18.4069 13.9771C18.2869 13.8126 18.2427 13.6569 18.2427 13.6569C18.2427 13.6569 18.2862 13.624 18.3609 13.5755C18.4373 13.5302 18.5466 13.472 18.6746 13.4163C18.7387 13.3886 18.8071 13.3614 18.8791 13.3377C18.9524 13.317 19.0284 13.2995 19.1055 13.2868C19.1826 13.2746 19.2609 13.2672 19.3378 13.2673C19.3764 13.2673 19.4147 13.2691 19.4526 13.2731C19.491 13.2789 19.5289 13.2863 19.5661 13.296Z" fill="url(#paint8_linear_53_1752)"/>
<path id="path380" d="M13.2608 29.4713C13.1401 29.4101 13.0201 29.3585 12.902 29.3148C12.784 29.2713 12.6729 29.2331 12.5616 29.2035C12.3408 29.1432 12.1286 29.1121 11.9406 29.0979C11.5661 29.0679 11.269 29.117 11.1199 29.1538C11.0508 29.0957 10.9842 29.038 10.9206 28.9807C10.8584 28.9228 10.8006 28.8648 10.7446 28.8084C10.6335 28.6945 10.5313 28.5845 10.4421 28.4791C10.2699 28.2652 10.1318 28.0744 10.036 27.9134C9.94051 27.7519 9.87643 27.6232 9.83636 27.5356C9.79574 27.4481 9.78076 27.4008 9.78076 27.4008C9.82011 27.5528 9.89683 27.7279 9.99141 27.9104C10.0869 28.0928 10.2132 28.278 10.3382 28.4566C10.4659 28.6338 10.6071 28.799 10.7315 28.9444C10.8573 29.0892 10.9804 29.2089 11.0699 29.2999C11.095 29.35 11.1284 29.4148 11.1697 29.491C11.2134 29.5661 11.2659 29.6524 11.3259 29.7466C11.3867 29.8405 11.4511 29.9444 11.5304 30.0488C11.6092 30.1535 11.6952 30.2623 11.7878 30.3724C12.1643 30.8089 12.6713 31.2439 13.2325 31.4596C13.7074 31.6406 14.083 31.5144 14.3393 31.3569C14.5962 31.1973 14.741 31.0042 14.741 31.0042C14.741 31.0042 14.6989 30.9332 14.6218 30.8231C14.5832 30.7679 14.5361 30.7031 14.481 30.632C14.4289 30.5589 14.3693 30.4796 14.3025 30.3977C14.1657 30.2363 14.0184 30.0531 13.8388 29.893C13.7538 29.81 13.6628 29.7309 13.5653 29.66C13.517 29.6244 13.4664 29.5912 13.415 29.56C13.3652 29.5277 13.3137 29.4981 13.2608 29.4713Z" fill="url(#paint9_linear_53_1752)"/>
<path id="path382" d="M12.0359 26.0887C11.9431 25.9991 11.8483 25.9185 11.7529 25.8457C11.6581 25.7728 11.5675 25.7071 11.4745 25.6491C11.2901 25.5327 11.1076 25.4452 10.9379 25.3804C10.6052 25.2495 10.3213 25.2118 10.1753 25.204C9.7982 24.63 9.62221 24.1304 9.52926 23.7896C9.47944 23.6187 9.46391 23.4857 9.45056 23.3959C9.439 23.3062 9.43756 23.2597 9.43756 23.2597C9.43467 23.3333 9.43792 23.4147 9.44604 23.5014C9.4538 23.5882 9.4668 23.6802 9.489 23.7752C9.53178 23.9651 9.58611 24.1661 9.65561 24.3607C9.72727 24.5551 9.80452 24.7428 9.87835 24.9082C9.95759 25.0732 10.0314 25.2158 10.0885 25.3224C10.0977 25.3744 10.1078 25.4425 10.1264 25.5228C10.1451 25.6028 10.1682 25.6952 10.1962 25.797C10.2253 25.899 10.2547 26.0107 10.2969 26.1271C10.3392 26.2439 10.3866 26.3665 10.4399 26.4919C10.6579 26.9921 10.992 27.5303 11.4422 27.8848C11.5361 27.9601 11.6289 28.0166 11.7215 28.0572C11.8157 28.0971 11.9079 28.122 11.9965 28.1354C12.1742 28.1623 12.3379 28.1437 12.4779 28.1087C12.7579 28.0377 12.9445 27.9045 12.9445 27.9045C12.9445 27.9045 12.9256 27.8284 12.8859 27.7065C12.8447 27.5852 12.7956 27.4139 12.718 27.2282C12.6783 27.1352 12.6427 27.035 12.596 26.9359C12.5518 26.8356 12.4953 26.7361 12.4429 26.636C12.3355 26.4363 12.1951 26.2468 12.0359 26.0887Z" fill="url(#paint10_linear_53_1752)"/>
<path id="path384" d="M11.845 22.7386C11.7829 22.6326 11.7168 22.5342 11.648 22.4433C11.58 22.3521 11.5147 22.2687 11.4448 22.1918C11.3065 22.0384 11.1623 21.9119 11.024 21.8094C10.7459 21.6038 10.5011 21.4978 10.3681 21.4532C10.2755 21.1458 10.2058 20.8633 10.1784 20.6202C10.1622 20.4984 10.1508 20.3852 10.1432 20.2812C10.1394 20.2294 10.1367 20.18 10.1345 20.1327C10.1336 20.0859 10.1344 20.0419 10.1353 20.0002C10.1427 19.6655 10.1824 19.4924 10.1824 19.4924C10.1418 19.626 10.1161 19.794 10.1024 19.9767C10.099 20.0224 10.0963 20.069 10.0943 20.1161C10.0941 20.1637 10.0945 20.2121 10.0957 20.2606C10.0977 20.3578 10.1024 20.4561 10.1089 20.5534C10.1154 20.6507 10.1237 20.7471 10.1333 20.8399C10.1463 20.9336 10.1605 21.024 10.175 21.1088C10.2038 21.2789 10.2334 21.427 10.2573 21.5382C10.247 21.6377 10.2394 21.7983 10.2367 21.9976C10.2367 22.0973 10.2342 22.2065 10.243 22.3231C10.2519 22.4397 10.264 22.5631 10.2806 22.6904C10.3437 23.2001 10.5186 23.7734 10.8241 24.2144C11.0917 24.5866 11.4349 24.6831 11.7083 24.6956C11.9823 24.7068 12.1892 24.636 12.1892 24.636C12.1892 24.636 12.1937 24.5613 12.1921 24.4394C12.1912 24.3786 12.1888 24.3057 12.1836 24.2245C12.178 24.1432 12.1767 24.0534 12.1679 23.958C12.1598 23.8626 12.1477 23.762 12.1303 23.6588C12.1175 23.5555 12.0997 23.4499 12.0747 23.3445C12.0504 23.2391 12.0175 23.1341 11.9789 23.0321C11.9435 22.9303 11.8995 22.8314 11.845 22.7386Z" fill="url(#paint11_linear_53_1752)"/>
<path id="path386" d="M12.4997 19.691C12.4324 19.4646 12.3591 19.2686 12.2669 19.0935C12.1763 18.9192 12.0736 18.7679 11.9712 18.6408C11.7725 18.3883 11.5684 18.2304 11.4583 18.158C11.4507 18.0058 11.4489 17.8618 11.451 17.7264C11.4561 17.5927 11.468 17.4687 11.4806 17.3533C11.4938 17.238 11.5095 17.1318 11.5263 17.0353C11.5433 16.9389 11.5666 16.8548 11.5864 16.7786C11.6694 16.475 11.7447 16.3263 11.7447 16.3263C11.6774 16.4385 11.6158 16.586 11.5617 16.7494C11.5351 16.8315 11.5081 16.9161 11.4873 17.0051C11.4671 17.0941 11.4489 17.1851 11.4324 17.2755C11.3617 17.6351 11.3453 17.9946 11.337 18.2089C11.3203 18.2529 11.2976 18.31 11.2754 18.3793C11.2541 18.4493 11.2305 18.5307 11.2061 18.6217C11.1579 18.8033 11.1045 19.0213 11.0783 19.2639C11.0635 19.3845 11.0518 19.5098 11.0445 19.637C11.0395 19.765 11.0444 19.8969 11.0523 20.0273C11.0617 20.1583 11.0741 20.2879 11.1 20.4159C11.1272 20.5444 11.1619 20.6697 11.205 20.7895C11.2774 20.9915 11.3855 21.1361 11.5115 21.2408C11.6357 21.3451 11.7703 21.4087 11.8945 21.4484C12.1433 21.5272 12.3492 21.5141 12.3492 21.5141C12.3492 21.5141 12.3703 21.4464 12.3965 21.3339C12.4256 21.2218 12.4667 21.0666 12.496 20.8875C12.5579 20.5294 12.607 20.0843 12.4997 19.691Z" fill="url(#paint12_linear_53_1752)"/>
<path id="path388" d="M13.7871 17.1173C13.777 16.8953 13.7508 16.6973 13.7066 16.5174C13.6624 16.3372 13.6019 16.1762 13.5358 16.0369C13.4051 15.7589 13.2552 15.5712 13.1689 15.4798C13.2703 14.914 13.4454 14.5093 13.5799 14.247C13.7214 13.9889 13.8225 13.8705 13.8225 13.8705C13.7366 13.9577 13.6483 14.0781 13.5634 14.2149C13.4783 14.3513 13.405 14.5122 13.3348 14.6683C13.3003 14.7468 13.2674 14.8255 13.2367 14.902C13.2079 14.9797 13.1826 15.0567 13.1586 15.1289C13.1115 15.2735 13.0736 15.4019 13.0463 15.4988C12.9938 15.5697 12.9228 15.6932 12.8373 15.8468C12.7951 15.9241 12.7501 16.0096 12.7046 16.1018C12.66 16.1948 12.6198 16.2975 12.5784 16.4035C12.538 16.51 12.4992 16.6213 12.464 16.7359C12.4315 16.8518 12.4053 16.9726 12.3835 17.0935C12.3624 17.215 12.3449 17.3363 12.3387 17.4587C12.3344 17.582 12.3377 17.7045 12.3498 17.8238C12.3878 18.2256 12.6214 18.4565 12.8286 18.587C13.038 18.7173 13.2297 18.7534 13.2297 18.7534C13.2297 18.7534 13.2647 18.6964 13.3147 18.5993C13.3696 18.5047 13.4416 18.3709 13.5102 18.2134C13.6506 17.8998 13.7963 17.5018 13.7871 17.1173Z" fill="url(#paint13_linear_53_1752)"/>
<path id="path390" d="M15.476 15.0907C15.5162 14.8887 15.5283 14.6974 15.522 14.5209C15.5184 14.3474 15.4967 14.1893 15.4646 14.0487C15.4009 13.7678 15.2973 13.5617 15.2366 13.4608C15.443 12.9657 15.6763 12.6227 15.8541 12.4142C15.9424 12.3081 16.0153 12.2325 16.0659 12.1832C16.1171 12.1346 16.1467 12.1141 16.1467 12.1141C16.0485 12.1735 15.9485 12.2718 15.8451 12.3812C15.7937 12.4366 15.7422 12.4957 15.6917 12.557C15.6671 12.5875 15.642 12.6188 15.6168 12.6503C15.5935 12.683 15.57 12.7159 15.5464 12.7491C15.4541 12.8816 15.3688 13.0155 15.2953 13.1364C15.2204 13.2554 15.1655 13.3711 15.1215 13.4547C15.0621 13.5122 14.9686 13.6057 14.8581 13.7276C14.7507 13.8523 14.6303 14.0097 14.5105 14.1848C14.4493 14.2711 14.3948 14.3687 14.3412 14.4676C14.2877 14.5669 14.237 14.67 14.1915 14.7752C14.1013 14.9864 14.0403 15.2151 14.0098 15.436C13.9964 15.5288 13.9993 15.6171 14.0116 15.6978C14.0235 15.7783 14.045 15.8515 14.0724 15.9178C14.1276 16.0503 14.208 16.1557 14.2897 16.2382C14.4538 16.4024 14.6224 16.4768 14.6224 16.4768C14.6224 16.4768 14.6673 16.4324 14.7352 16.355C14.7695 16.3165 14.8076 16.2681 14.8524 16.216C14.8975 16.164 14.9458 16.1053 14.9949 16.0409C15.044 15.9766 15.0935 15.9066 15.1412 15.8321C15.1881 15.757 15.2393 15.6831 15.2827 15.6025C15.3717 15.4433 15.4381 15.2653 15.476 15.0907Z" fill="url(#paint14_linear_53_1752)"/>
<path id="path392" d="M17.3644 13.6095C17.4392 13.4311 17.4827 13.2528 17.5121 13.0941C17.5408 12.934 17.5491 12.7835 17.5451 12.6485C17.5372 12.3777 17.4789 12.1691 17.4413 12.0651C17.7206 11.6501 17.9933 11.375 18.1933 11.2165C18.2928 11.1351 18.3729 11.0786 18.4278 11.0427C18.4826 11.0064 18.5131 10.9924 18.5131 10.9924C18.4144 11.0323 18.3045 11.1023 18.1908 11.1846C18.1339 11.2261 18.0765 11.2711 18.0193 11.318C17.9915 11.3416 17.963 11.3658 17.9341 11.3904C17.9072 11.416 17.8798 11.4422 17.8523 11.4683C17.637 11.6797 17.4435 11.894 17.337 12.0384C17.2726 12.0802 17.1702 12.1494 17.0475 12.2414C17.0168 12.2642 16.9847 12.2885 16.952 12.3147C16.9204 12.342 16.8875 12.3707 16.8533 12.4005C16.7859 12.4604 16.7159 12.5257 16.6455 12.5954C16.5025 12.7322 16.3659 12.8994 16.2444 13.0764C16.1841 13.166 16.1255 13.255 16.0776 13.3521C16.0296 13.4488 15.9877 13.5477 15.9542 13.6477C15.8977 13.8167 15.8917 13.9656 15.9174 14.0986C15.9433 14.2317 15.9971 14.3443 16.0565 14.4362C16.1756 14.6192 16.3157 14.7197 16.3157 14.7197C16.3157 14.7197 16.328 14.7112 16.3498 14.6959C16.372 14.6809 16.4022 14.6562 16.4422 14.6289C16.5215 14.573 16.6287 14.4923 16.7421 14.391C16.8534 14.2869 16.9812 14.1761 17.0906 14.0432C17.1458 13.9777 17.1966 13.906 17.2431 13.834C17.2908 13.7629 17.3321 13.6882 17.3644 13.6095Z" fill="url(#paint15_linear_53_1752)"/>
<path id="path394" d="M19.2877 12.6217C19.682 12.0134 19.6522 11.423 19.6146 11.2176C19.6949 11.1331 19.7733 11.056 19.8489 10.9858C19.9247 10.9163 19.9993 10.8593 20.0691 10.8053C20.2092 10.699 20.3336 10.6174 20.4366 10.5566C20.6448 10.4423 20.7651 10.4077 20.7651 10.4077C20.6688 10.4288 20.5563 10.4706 20.4392 10.5266C20.3231 10.5869 20.2022 10.6604 20.0861 10.7367C19.8525 10.8853 19.6466 11.0672 19.5231 11.1744C19.4574 11.2028 19.3502 11.2421 19.2247 11.3112C19.0989 11.3788 18.9509 11.4647 18.798 11.5668C18.6461 11.6713 18.4932 11.8013 18.3507 11.9405C18.3154 11.9755 18.2805 12.011 18.2471 12.0481C18.2145 12.0867 18.1827 12.126 18.1524 12.1661C18.0917 12.2461 18.0363 12.3291 17.9881 12.4143C17.8242 12.7 17.8697 12.9688 17.9457 13.1565C18.023 13.3455 18.1338 13.4626 18.1338 13.4626C18.1338 13.4626 18.1849 13.4413 18.2656 13.4004C18.3479 13.3625 18.461 13.3081 18.5832 13.2352C18.6442 13.1991 18.7076 13.1581 18.7711 13.1136C18.8359 13.0717 18.9007 13.0257 18.963 12.9751C19.0251 12.9246 19.0849 12.8695 19.1394 12.8099C19.1668 12.7802 19.1928 12.7489 19.2173 12.717C19.2424 12.6865 19.2661 12.6549 19.2877 12.6217Z" fill="url(#paint16_linear_53_1752)"/>
<path id="path396" d="M12.265 23.659C12.265 23.659 12.2708 23.7614 12.2818 23.9494C12.2881 24.0433 12.2919 24.159 12.3035 24.2937C12.3179 24.4283 12.3343 24.5823 12.3526 24.7536C12.3598 24.8393 12.3764 24.9287 12.3906 25.022C12.4053 25.1157 12.4206 25.2131 12.4365 25.3146C12.45 25.4162 12.4749 25.5202 12.4966 25.6281C12.519 25.7357 12.5421 25.8471 12.5659 25.9617C12.5952 26.075 12.6251 26.1918 12.656 26.3115C12.6867 26.4312 12.7175 26.5537 12.7587 26.6768C12.7971 26.8007 12.8367 26.927 12.8769 27.0559C12.9231 27.1828 12.9702 27.312 13.0183 27.4434C13.2186 27.966 13.4621 28.5134 13.7688 29.0524C14.0751 29.5914 14.4341 30.1255 14.8397 30.6316C15.2455 31.1376 15.6955 31.617 16.1779 32.0486C16.661 32.4794 17.1725 32.8646 17.6893 33.1987C17.9452 33.3698 18.2034 33.5124 18.4476 33.6536C18.6981 33.783 18.9346 33.9124 19.1705 34.0162C19.4015 34.1299 19.6304 34.218 19.8459 34.3085C19.8728 34.3198 19.8997 34.3308 19.9262 34.342C19.9533 34.3518 19.9804 34.3613 20.0071 34.3711C20.0607 34.3904 20.1134 34.4095 20.1658 34.4283C20.2703 34.4657 20.3714 34.5041 20.471 34.5386C21.271 34.8047 21.9221 34.9451 22.4244 35.0312C22.6751 35.0823 22.8903 35.1052 23.07 35.1335C23.2498 35.1637 23.3955 35.1749 23.5094 35.1889C23.737 35.2155 23.8375 35.2319 23.8375 35.2319C23.8375 35.2319 23.7375 35.2433 23.5074 35.2581C23.3924 35.2648 23.2444 35.2778 23.0608 35.2732C22.8773 35.2709 22.6563 35.2752 22.3973 35.251C21.8787 35.2185 21.1999 35.1303 20.3607 34.8956C20.2562 34.8653 20.1501 34.8305 20.0403 34.7964C19.9856 34.779 19.93 34.7613 19.8739 34.7438C19.8457 34.7348 19.8176 34.7258 19.7891 34.7166C19.7611 34.7063 19.7329 34.6958 19.7048 34.6852C19.4784 34.5998 19.2383 34.515 18.9959 34.4029C18.7488 34.3005 18.5008 34.1709 18.2393 34.039C17.9839 33.8955 17.7149 33.7485 17.4489 33.5709C16.9119 33.224 16.3843 32.8177 15.8918 32.3616C15.3998 31.9051 14.9467 31.3964 14.5444 30.8609C14.1422 30.3253 13.7931 29.7613 13.502 29.1957C13.2103 28.6299 12.987 28.0584 12.8091 27.5165C12.767 27.3806 12.7257 27.2465 12.685 27.1151C12.6509 26.9822 12.6174 26.8517 12.5847 26.7243C12.5495 26.5974 12.5249 26.4711 12.5004 26.3483C12.4758 26.2256 12.4518 26.1059 12.4286 25.9895C12.4109 25.8725 12.3939 25.7586 12.3773 25.6485C12.3616 25.5384 12.3425 25.4328 12.3347 25.329C12.3248 25.2261 12.315 25.127 12.3058 25.0321C12.2971 24.9372 12.2856 24.8467 12.2838 24.7601C12.2758 24.5872 12.2688 24.4319 12.2627 24.296C12.2592 24.1605 12.263 24.044 12.2629 23.95C12.2641 23.7617 12.265 23.659 12.265 23.659Z" fill="url(#paint17_linear_53_1752)"/>
<path id="path398" d="M20.5169 2.45336C20.5979 2.44542 20.688 2.44289 20.7831 2.44108C20.8781 2.43856 20.9781 2.43567 21.0795 2.43332C21.2826 2.42881 21.4916 2.41834 21.6807 2.42737C22.058 2.43693 22.3538 2.44434 22.3538 2.44434C22.3538 2.44434 22.0591 2.46672 21.6833 2.49505C21.4956 2.5048 21.2891 2.53621 21.0891 2.56058C20.9892 2.57321 20.8909 2.58567 20.7976 2.59758C20.7042 2.60877 20.6158 2.61996 20.5364 2.63585C20.4524 2.69902 20.3328 2.78458 20.1846 2.87934C20.0364 2.97555 19.8586 3.07374 19.6608 3.18926C19.5617 3.24486 19.4566 3.29973 19.3463 3.35244C19.2364 3.40695 19.1194 3.45099 19.0008 3.50713C18.8815 3.5602 18.7572 3.6093 18.6279 3.65334C18.499 3.69919 18.3631 3.73149 18.2265 3.77391C17.9783 3.84575 17.7335 3.86074 17.5048 3.85243C17.2783 3.85081 17.0653 3.81831 16.8807 3.77626C16.7886 3.75568 16.703 3.73095 16.6278 3.70947C16.553 3.68908 16.4873 3.66832 16.4332 3.64991C16.3245 3.6129 16.2617 3.58457 16.2617 3.58457C16.2617 3.58457 16.2883 3.52085 16.3455 3.41851C16.374 3.36724 16.4105 3.30659 16.4549 3.23908C16.4998 3.17266 16.5545 3.10353 16.6175 3.02952C16.7433 2.88241 16.9056 2.72303 17.1048 2.57736C17.3061 2.43856 17.5473 2.32141 17.8205 2.24325C17.9709 2.19705 18.1243 2.17647 18.2722 2.15445C18.4207 2.13423 18.5658 2.12142 18.7066 2.11438C18.8465 2.10427 18.985 2.11564 19.1158 2.1234C19.2472 2.13297 19.3725 2.14669 19.4905 2.16329C19.7263 2.19272 19.9364 2.25354 20.1095 2.30625C20.2829 2.36022 20.4207 2.41311 20.5169 2.45336Z" fill="url(#paint18_linear_53_1752)"/>
<path id="path400" d="M8.21808 27.061C8.24551 26.8754 8.28613 26.7027 8.33703 26.5419C8.38811 26.3812 8.45688 26.2289 8.528 26.0904C8.67294 25.8119 8.84135 25.5816 9.01932 25.3879C9.37708 25.0002 9.74007 24.7697 9.93194 24.6583C9.95433 24.563 9.97472 24.4717 9.99295 24.3847C10.0135 24.2966 10.0334 24.212 10.0523 24.1307C10.089 23.9688 10.1155 23.823 10.1399 23.6889C10.1679 23.5537 10.189 23.4322 10.2043 23.3232C10.2207 23.2138 10.2269 23.1181 10.2393 23.0309C10.2596 22.858 10.2615 22.7317 10.2585 22.6474C10.2568 22.6053 10.254 22.5741 10.2516 22.553C10.2494 22.532 10.2484 22.5216 10.2484 22.5216C10.2875 22.6503 10.3016 22.814 10.2937 22.9999C10.2879 23.0934 10.2874 23.1891 10.2796 23.2892C10.2724 23.389 10.2617 23.4921 10.2487 23.5963C10.2332 23.7011 10.2278 23.8026 10.2144 23.9051C10.2027 24.0067 10.1895 24.1073 10.176 24.2033C10.1606 24.3 10.1531 24.3892 10.1428 24.4728C10.1325 24.5565 10.1229 24.6325 10.115 24.6982C10.1323 24.7491 10.1538 24.8159 10.1772 24.8962C10.2045 24.9751 10.2348 25.0674 10.2651 25.1717C10.2967 25.2751 10.3225 25.3939 10.3577 25.5173C10.3924 25.6412 10.4253 25.7751 10.4545 25.9182C10.5827 26.4843 10.6872 27.1754 10.6464 27.9016C10.6336 28.0579 10.6135 28.1983 10.5751 28.3343C10.5377 28.4693 10.4872 28.596 10.4278 28.7135C10.309 28.9487 10.1549 29.1472 10.0004 29.305C9.84584 29.4629 9.69097 29.5801 9.57401 29.657C9.4574 29.7342 9.37852 29.7712 9.37852 29.7712C9.37852 29.7712 9.29531 29.6888 9.16914 29.5434C9.10615 29.4707 9.03232 29.3823 8.95326 29.281C8.87835 29.1765 8.79821 29.0586 8.71861 28.9305C8.67854 28.8664 8.63883 28.8 8.59966 28.731C8.56049 28.6624 8.5271 28.588 8.49226 28.514C8.42385 28.3649 8.3614 28.2088 8.30995 28.0496C8.2641 27.8868 8.22981 27.7206 8.2114 27.5554C8.20219 27.4725 8.19696 27.3902 8.19678 27.3083C8.19912 27.2249 8.2058 27.1424 8.21808 27.061Z" fill="url(#paint19_linear_53_1752)"/>
<path id="path402" d="M6.5302 22.5535C6.60727 22.3921 6.69283 22.2461 6.78434 22.114C6.87658 21.9813 6.98163 21.8616 7.08542 21.7553C7.29516 21.5418 7.5161 21.3779 7.72873 21.2508C8.16356 20.9959 8.55922 20.8858 8.76535 20.8378C9.13845 20.1855 9.37292 19.7263 9.49368 19.4129C9.50866 19.3739 9.52184 19.3373 9.53357 19.3032C9.54657 19.2687 9.55848 19.2368 9.56949 19.2075C9.59079 19.1487 9.60613 19.0994 9.61714 19.0595C9.63916 18.9801 9.64404 18.9389 9.64404 18.9389C9.64404 19.0044 9.63465 19.0768 9.6175 19.1537C9.59999 19.231 9.57472 19.3131 9.55144 19.399C9.50216 19.5703 9.42292 19.7566 9.34675 19.9429C9.27383 20.1288 9.19025 20.3156 9.11174 20.4862C9.04134 20.6557 8.97347 20.8089 8.92058 20.9264C8.92275 20.9782 8.92058 21.0465 8.92329 21.1268C8.92618 21.2071 8.9278 21.301 8.92618 21.4057C8.92582 21.5102 8.91661 21.627 8.91354 21.7504C8.91048 21.8742 8.90326 22.0067 8.89008 22.1464C8.84658 22.7029 8.74315 23.3674 8.50236 24.0168C8.45002 24.1543 8.38287 24.2796 8.30904 24.3922C8.23756 24.5042 8.15616 24.6047 8.06916 24.694C7.89497 24.8733 7.6984 25.0087 7.51285 25.1072C7.32711 25.206 7.15239 25.2677 7.02387 25.304C6.89535 25.3402 6.81286 25.3511 6.81286 25.3511C6.81286 25.3511 6.75943 25.2527 6.68434 25.0852C6.64499 25.0022 6.60709 24.8993 6.56792 24.7832C6.52857 24.667 6.48814 24.5376 6.45096 24.3987C6.4311 24.3296 6.41594 24.2571 6.40294 24.1825C6.3894 24.108 6.37731 24.0318 6.36684 23.9543C6.35655 23.8769 6.34789 23.7984 6.34157 23.7193C6.3385 23.6798 6.33598 23.6401 6.33399 23.6002C6.33291 23.5603 6.33381 23.5199 6.33471 23.4796C6.34392 23.1573 6.38941 22.8378 6.5302 22.5535Z" fill="url(#paint20_linear_53_1752)"/>
<path id="path404" d="M6.22273 18.055C6.33464 17.9272 6.45034 17.8153 6.56785 17.7176C6.68626 17.6201 6.81441 17.5375 6.93734 17.4665C7.18517 17.3247 7.43047 17.2308 7.65862 17.1685C8.11186 17.0445 8.51095 17.046 8.71041 17.0541C8.9752 16.8016 9.1696 16.581 9.34866 16.3958C9.43476 16.3027 9.50913 16.2166 9.57339 16.1373C9.60534 16.098 9.63494 16.0602 9.66201 16.0241C9.6909 15.9882 9.71815 15.9548 9.7436 15.9232C9.94342 15.6693 9.99883 15.5223 9.99883 15.5223C9.96814 15.6445 9.89703 15.7812 9.80064 15.9252C9.77663 15.9611 9.75082 15.9974 9.72411 16.0342C9.69956 16.0716 9.67411 16.1093 9.64739 16.1472C9.59415 16.2232 9.53657 16.2999 9.47682 16.3761C9.41707 16.4523 9.35516 16.5279 9.29307 16.6017C9.23585 16.6765 9.17899 16.7494 9.1234 16.8185C9.01257 16.9572 8.90842 17.0812 8.82809 17.1757C8.80445 17.2729 8.77178 17.4288 8.71257 17.6216C8.68496 17.7185 8.64471 17.8237 8.61023 17.9378C8.57593 18.0517 8.53532 18.1728 8.48749 18.299C8.29309 18.8031 8.04074 19.3923 7.63263 19.9253C7.30231 20.3741 6.8294 20.5777 6.43644 20.6565C6.24006 20.6961 6.06425 20.7051 5.93754 20.7031C5.81046 20.7013 5.73267 20.6889 5.73267 20.6889C5.73267 20.6889 5.71209 20.5845 5.69151 20.4112C5.68122 20.3248 5.67075 20.221 5.66299 20.1046C5.65451 19.9881 5.65902 19.8589 5.66335 19.7221C5.66913 19.5853 5.68032 19.4409 5.69927 19.2941C5.72509 19.1472 5.75884 18.9979 5.8027 18.8517C5.84692 18.7053 5.89891 18.562 5.96714 18.4273C6.04006 18.2929 6.12472 18.1671 6.22273 18.055Z" fill="url(#paint21_linear_53_1752)"/>
<path id="path406" d="M7.05317 13.9395C7.31345 13.757 7.59539 13.6455 7.85369 13.5738C8.11416 13.5031 8.36054 13.4753 8.58472 13.4731C9.04067 13.4722 9.39951 13.5659 9.582 13.622C9.732 13.5355 9.86683 13.4538 9.98777 13.3762C10.1129 13.3002 10.2284 13.2303 10.3287 13.1632C10.4298 13.0964 10.5184 13.0332 10.5961 12.9744C10.6737 12.9157 10.7482 12.8652 10.8081 12.8164C11.0518 12.6251 11.1379 12.5005 11.1379 12.5005C11.0805 12.6076 10.9827 12.7191 10.8601 12.8314C10.7997 12.8881 10.7293 12.943 10.6618 13.0011C10.5948 13.0596 10.5239 13.1177 10.4509 13.1747C10.3782 13.2319 10.3035 13.2879 10.2289 13.342C10.1917 13.3693 10.1547 13.396 10.1184 13.4222C10.0836 13.4493 10.0495 13.4754 10.0161 13.5014C9.88181 13.604 9.75727 13.6947 9.66124 13.7637C9.63741 13.8052 9.60655 13.8592 9.56954 13.924C9.53471 13.9893 9.49247 14.0648 9.44301 14.1473C9.39355 14.2301 9.3367 14.32 9.2719 14.415C9.25547 14.4388 9.23886 14.4628 9.2219 14.4872C9.20619 14.5121 9.19031 14.5372 9.17388 14.5628C9.14103 14.6137 9.10619 14.6655 9.06955 14.7182C8.99609 14.8234 8.91504 14.9315 8.82587 15.0402C8.73959 15.15 8.65314 15.2626 8.55404 15.3723C8.45711 15.483 8.34718 15.5909 8.23744 15.6974C8.12986 15.8045 8.01344 15.9079 7.88781 16.0052C7.78167 16.0873 7.67156 16.153 7.56001 16.2052C7.44774 16.2573 7.34161 16.297 7.2315 16.3247C7.01382 16.3804 6.7992 16.3913 6.61021 16.3785C6.23206 16.3543 5.95752 16.2326 5.95752 16.2326C5.95752 16.2326 5.96239 16.1313 5.98279 15.9671C6.00752 15.8036 6.0577 15.5786 6.13116 15.3297C6.28333 14.8341 6.58133 14.2541 7.05317 13.9395Z" fill="url(#paint22_linear_53_1752)"/>
<path id="path408" d="M8.74641 10.4389C8.89009 10.3867 9.02475 10.3451 9.16482 10.3218C9.30326 10.2974 9.43683 10.2848 9.56481 10.2812C9.82076 10.2739 10.0545 10.3035 10.2614 10.3506C10.6765 10.4463 10.9908 10.6145 11.1451 10.7055C11.4639 10.6124 11.7159 10.5164 11.9391 10.44C12.0483 10.3999 12.1453 10.3609 12.2312 10.3232C12.3175 10.2859 12.3902 10.2478 12.4595 10.2178C12.7305 10.0931 12.84 9.9965 12.84 9.9965C12.7617 10.083 12.6445 10.1653 12.5043 10.2427C12.4326 10.2801 12.362 10.3225 12.2859 10.3618C12.2101 10.4014 12.1306 10.44 12.0496 10.477C11.9689 10.5142 11.8864 10.5499 11.8048 10.584C11.7258 10.62 11.6483 10.655 11.5749 10.6885C11.4265 10.7543 11.29 10.8111 11.1854 10.8537C11.12 10.9189 11.029 11.0331 10.8975 11.1633C10.8325 11.2288 10.7588 11.2997 10.6771 11.3734C10.5964 11.4477 10.5146 11.5297 10.4215 11.61C10.3292 11.6912 10.2294 11.7732 10.122 11.8537C10.0184 11.9365 9.91137 12.0207 9.79495 12.1001C9.67979 12.1804 9.55452 12.2555 9.42763 12.3282C9.3038 12.4024 9.17276 12.4712 9.03486 12.5322C8.56447 12.7356 8.11755 12.6916 7.77531 12.5788C7.43453 12.4679 7.21143 12.2919 7.21143 12.2919C7.21143 12.2919 7.2394 12.2004 7.29626 12.0542C7.3598 11.9116 7.45546 11.7156 7.58091 11.5048C7.83632 11.086 8.24029 10.621 8.74641 10.4389Z" fill="url(#paint23_linear_53_1752)"/>
<path id="path410" d="M10.9969 7.65639C11.2845 7.62047 11.5462 7.63238 11.781 7.67462C12.0196 7.72119 12.2317 7.79772 12.4144 7.884C12.7796 8.05692 13.0312 8.26974 13.1559 8.38508C13.7795 8.33436 14.199 8.25674 14.4768 8.19122C14.6138 8.15692 14.7117 8.1219 14.7757 8.09555C14.8075 8.08165 14.8328 8.07353 14.8487 8.06613L14.8725 8.05512C14.8256 8.08472 14.7719 8.11522 14.7122 8.14429C14.6521 8.17262 14.5851 8.1988 14.5131 8.22281C14.4411 8.24681 14.364 8.26847 14.2839 8.28851C14.2436 8.29807 14.2028 8.30764 14.1617 8.31721C14.1214 8.32786 14.081 8.33833 14.0404 8.34898C13.8774 8.38977 13.7102 8.42388 13.5564 8.45277C13.518 8.4598 13.4805 8.46648 13.444 8.47334C13.4086 8.48092 13.3743 8.48833 13.3416 8.49555C13.2756 8.50908 13.2158 8.52153 13.164 8.53236C13.0938 8.58435 12.9797 8.66504 12.8288 8.75745C12.6823 8.8542 12.5047 8.969 12.2958 9.0773C12.1897 9.13001 12.0854 9.19084 11.9715 9.24607C11.8581 9.30167 11.7382 9.35473 11.6126 9.40329C11.4846 9.44968 11.3626 9.50203 11.2294 9.54246C11.0976 9.58415 10.9606 9.61899 10.8193 9.64552C10.6986 9.66664 10.5865 9.67675 10.4787 9.67512C10.3708 9.67314 10.267 9.65924 10.1686 9.63668C9.97203 9.59155 9.79731 9.51141 9.65273 9.42387C9.36338 9.24896 9.19678 9.04012 9.19678 9.04012C9.19678 9.04012 9.24299 8.96268 9.32782 8.84193C9.37096 8.78218 9.42096 8.70926 9.48468 8.63399C9.5493 8.55944 9.62276 8.47876 9.70399 8.39627C9.78503 8.31378 9.87402 8.22949 9.96932 8.14808C10.0635 8.06577 10.1735 7.99483 10.283 7.92678C10.5058 7.79375 10.741 7.68419 10.9969 7.65639Z" fill="url(#paint24_linear_53_1752)"/>
<path id="path412" d="M13.5339 5.60011C13.6693 5.60932 13.7967 5.62882 13.9161 5.65571C14.0352 5.68242 14.1469 5.71726 14.2536 5.76202C14.4655 5.84903 14.6464 5.95733 14.7989 6.06978C15.1038 6.29505 15.2971 6.53656 15.3909 6.66562C15.9799 6.73367 16.3826 6.73223 16.6539 6.72194C16.7878 6.71417 16.8855 6.69937 16.9501 6.68638C16.9824 6.67988 17.0064 6.67374 17.0225 6.66941L17.0467 6.66345C16.9501 6.70714 16.825 6.73926 16.6819 6.75749C16.6102 6.7667 16.5346 6.77338 16.4564 6.77771C16.4171 6.77933 16.3774 6.78114 16.3373 6.78258C16.298 6.78529 16.2584 6.788 16.2189 6.7907C15.9023 6.81002 15.5684 6.79522 15.3709 6.80352C15.2964 6.83926 15.1754 6.89395 15.0189 6.95298C14.9796 6.96724 14.9381 6.98222 14.8951 6.9981C14.8529 7.01525 14.8086 7.03258 14.7624 7.04991C14.6702 7.08456 14.5706 7.11904 14.4642 7.15099C14.411 7.16724 14.3563 7.18276 14.3 7.19774C14.2716 7.20496 14.2433 7.21218 14.2146 7.2194C14.1864 7.22752 14.1581 7.23564 14.1294 7.24377C14.0146 7.27553 13.8944 7.30333 13.7698 7.32608C13.6462 7.3499 13.5144 7.36326 13.3859 7.3786C13.257 7.39358 13.1247 7.40152 12.9903 7.40026C12.7635 7.39882 12.5599 7.34214 12.3886 7.26344C12.2173 7.18547 12.0728 7.07879 11.9571 6.97031C11.7255 6.75407 11.6123 6.52916 11.6123 6.52916C11.6123 6.52916 11.6267 6.51345 11.6531 6.48548C11.6802 6.45822 11.7175 6.41598 11.7702 6.37158C11.8744 6.28043 12.0237 6.15823 12.2027 6.03513C12.3785 5.90787 12.5991 5.79975 12.8256 5.71419C12.9399 5.67304 13.0552 5.63676 13.1744 5.61672C13.2946 5.59867 13.4153 5.59199 13.5339 5.60011Z" fill="url(#paint25_linear_53_1752)"/>
<path id="path414" d="M16.1339 4.20571C16.6286 4.33802 16.9745 4.58387 17.2214 4.84903C17.4662 5.10931 17.605 5.36436 17.6703 5.49901C17.8039 5.53728 17.927 5.56923 18.0405 5.5954C18.1542 5.62247 18.2611 5.65208 18.3573 5.67211C18.5506 5.71417 18.708 5.73637 18.8333 5.7472C18.9596 5.76219 19.0546 5.76832 19.1174 5.76778C19.1802 5.76778 19.2116 5.76345 19.2116 5.76345C19.1142 5.78854 18.9905 5.79179 18.8535 5.78385C18.7181 5.7824 18.5689 5.76814 18.4183 5.74757C18.1158 5.69937 17.8162 5.65695 17.6279 5.62121C17.59 5.63078 17.5404 5.64287 17.4808 5.65551C17.421 5.66778 17.3514 5.68132 17.2754 5.69991C17.1221 5.73421 16.9355 5.7676 16.7263 5.7889C16.6736 5.79341 16.6207 5.79973 16.5673 5.80677C16.5135 5.81308 16.4584 5.8185 16.4023 5.82301C16.29 5.83168 16.1734 5.83601 16.0539 5.83475C15.994 5.8342 15.9333 5.83186 15.8723 5.82861C15.8126 5.82753 15.7519 5.82518 15.6911 5.82067C15.5691 5.81164 15.4453 5.79594 15.3211 5.77103C14.8998 5.68348 14.6213 5.43909 14.446 5.19685C14.2711 4.95751 14.207 4.73098 14.207 4.73098C14.207 4.73098 14.2702 4.68296 14.379 4.61257C14.4901 4.5465 14.6494 4.46185 14.8357 4.38062C14.929 4.34019 15.0289 4.30048 15.1335 4.26618C15.24 4.23604 15.3509 4.21041 15.4631 4.19236C15.5754 4.17413 15.6891 4.16366 15.8014 4.16366C15.8575 4.16384 15.9133 4.16637 15.9685 4.17232C16.0243 4.18027 16.0796 4.19145 16.1339 4.20571Z" fill="url(#paint26_linear_53_1752)"/>
<path id="path416" d="M6.95377 27.7569C6.77796 27.668 6.60306 27.5927 6.43122 27.5293C6.25938 27.4658 6.09765 27.4104 5.93556 27.3671C5.61408 27.2793 5.30506 27.2342 5.03142 27.2135C4.48595 27.1701 4.05346 27.2411 3.8365 27.2949C3.7356 27.2102 3.63885 27.1259 3.54607 27.0427C3.45546 26.9588 3.37153 26.8743 3.28994 26.7918C3.12803 26.6261 2.9793 26.4662 2.84952 26.3124C2.72334 26.157 2.61125 26.0095 2.51252 25.8716C2.41469 25.7335 2.32534 25.6068 2.25801 25.4886C2.1192 25.2534 2.02589 25.0662 1.96758 24.9386C1.93834 24.8749 1.91776 24.8258 1.90459 24.7929C1.89141 24.7597 1.88672 24.7424 1.88672 24.7424C1.94376 24.9635 2.05531 25.2187 2.19339 25.4844C2.26036 25.6178 2.34483 25.7505 2.43003 25.8841C2.51577 26.0173 2.6062 26.1498 2.69807 26.2795C2.7876 26.4099 2.89121 26.5324 2.9867 26.6519C3.08363 26.771 3.17947 26.8842 3.27099 26.9898C3.36052 27.0959 3.4542 27.1913 3.53741 27.2781C3.62116 27.3647 3.69751 27.4416 3.76358 27.5075C3.80022 27.5804 3.84877 27.6748 3.90888 27.786C3.9726 27.8952 4.04895 28.0207 4.13613 28.158C4.22494 28.2945 4.3188 28.4459 4.43414 28.5979C4.54876 28.7501 4.67403 28.9089 4.80868 29.0692C5.35705 29.7046 6.0953 30.3381 6.91225 30.6522C7.08048 30.7215 7.24943 30.7558 7.40322 30.7724C7.55827 30.7881 7.70303 30.7827 7.83787 30.7619C8.10736 30.7202 8.33678 30.6181 8.52396 30.5026C8.71132 30.3869 8.85698 30.2576 8.95644 30.1583C9.05589 30.0589 9.10896 29.9892 9.10896 29.9892C9.10896 29.9892 9.04741 29.8856 8.93532 29.7253C8.87918 29.645 8.81041 29.5506 8.73027 29.4472C8.65446 29.3407 8.56746 29.2252 8.47053 29.1058C8.42197 29.0463 8.37089 28.9858 8.31746 28.925C8.26385 28.8643 8.21259 28.7999 8.15645 28.7376C8.04545 28.6123 7.92487 28.4885 7.79545 28.371C7.67127 28.2501 7.53896 28.1351 7.39708 28.0319C7.32632 27.9802 7.25322 27.9315 7.17831 27.886C7.10557 27.8393 7.03084 27.7959 6.95377 27.7569Z" fill="url(#paint27_linear_53_1752)"/>
<path id="path418" d="M5.16952 22.8321C5.03433 22.7017 4.89624 22.5842 4.75743 22.4783C4.61935 22.3721 4.48758 22.2765 4.35221 22.1918C4.08344 22.0227 3.81756 21.8953 3.57081 21.8007C3.08653 21.6102 2.67318 21.5554 2.46037 21.544C1.91128 20.7083 1.65515 19.9805 1.51959 19.4845C1.50262 19.4224 1.48728 19.3635 1.47356 19.3083C1.46111 19.2531 1.45172 19.2014 1.44288 19.1534C1.42555 19.0576 1.41345 18.9767 1.40515 18.9114C1.38836 18.7807 1.38638 18.7128 1.38638 18.7128C1.38205 18.8202 1.38656 18.9386 1.39847 19.0648C1.40984 19.1912 1.4288 19.3253 1.46129 19.4634C1.52338 19.7397 1.60244 20.033 1.7037 20.316C1.80803 20.5993 1.92048 20.8727 2.02788 21.1131C2.14322 21.3536 2.25098 21.561 2.33383 21.7164C2.34737 21.7924 2.36199 21.8913 2.38907 22.0079C2.4165 22.1243 2.45026 22.2593 2.49105 22.4075C2.53311 22.5557 2.57607 22.7183 2.63744 22.8882C2.69899 23.0579 2.76812 23.2366 2.84556 23.4191C2.91993 23.6024 3.01505 23.7867 3.11577 23.9707C3.16613 24.0627 3.21866 24.1544 3.27317 24.245C3.30078 24.29 3.32858 24.3351 3.35656 24.3804C3.38616 24.4252 3.41721 24.4692 3.44807 24.5129C3.57262 24.688 3.70529 24.8568 3.84554 25.0149C3.98561 25.173 4.14517 25.3169 4.30528 25.4474C4.44174 25.5569 4.57675 25.6391 4.71159 25.6983C4.84913 25.7566 4.98324 25.7928 5.1123 25.8122C5.3706 25.8513 5.60922 25.8242 5.81319 25.7733C6.01716 25.7223 6.18665 25.6472 6.3056 25.5856C6.42437 25.5241 6.49242 25.4762 6.49242 25.4762C6.49242 25.4762 6.46498 25.3652 6.40704 25.1878C6.37816 25.099 6.34369 24.993 6.30524 24.8746C6.26553 24.7562 6.21824 24.627 6.16264 24.4912C6.13376 24.4237 6.10651 24.3533 6.07817 24.2819C6.04929 24.2106 6.01824 24.1384 5.98503 24.0654C5.95182 23.9929 5.91626 23.9199 5.87835 23.847C5.84008 23.7752 5.80128 23.7024 5.76211 23.6288C5.60579 23.3382 5.40111 23.0624 5.16952 22.8321Z" fill="url(#paint28_linear_53_1752)"/>
<path id="path424" d="M7.71988 9.76928C7.71555 9.60954 7.69641 9.45268 7.67963 9.30918C7.66122 9.16478 7.63486 9.02688 7.60273 8.89566C7.53829 8.63339 7.45021 8.39891 7.35418 8.19621C7.16375 7.79116 6.94517 7.51825 6.8199 7.38504C6.89805 6.97746 6.98885 6.61519 7.1013 6.32206C7.15527 6.1735 7.2096 6.03795 7.26267 5.91557C7.31592 5.79355 7.36537 5.68236 7.41826 5.58994C7.62421 5.21432 7.77132 5.04194 7.77132 5.04194C7.64606 5.16883 7.51772 5.34428 7.39407 5.54319C7.3309 5.64139 7.2753 5.75149 7.21989 5.86286C7.16484 5.97459 7.11177 6.08903 7.06141 6.20329C7.01087 6.31791 6.96322 6.43234 6.91881 6.54371C6.87657 6.65707 6.83975 6.76898 6.8051 6.87403C6.73615 7.08468 6.68091 7.27168 6.6412 7.41301C6.56485 7.51608 6.4616 7.6955 6.33705 7.91932C6.2755 8.03177 6.20998 8.1565 6.14392 8.29079C6.07876 8.42599 6.02009 8.57563 5.96017 8.72996C5.90114 8.88519 5.84465 9.04728 5.79356 9.21388C5.74609 9.38301 5.70801 9.55864 5.67624 9.73481C5.64555 9.91134 5.61992 10.0881 5.61108 10.2664C5.60476 10.446 5.60945 10.6243 5.62696 10.7981C5.68255 11.3832 6.02244 11.7192 6.32442 11.9091C6.62929 12.099 6.90834 12.1514 6.90834 12.1514C6.90834 12.1514 6.95924 12.0683 7.03235 11.9272C7.11213 11.7893 7.21682 11.5945 7.31664 11.3653C7.52133 10.9088 7.73324 10.3292 7.71988 9.76928Z" fill="url(#paint29_linear_53_1752)"/>
<path id="path426" d="M10.1789 6.81848C10.2376 6.52444 10.2551 6.24574 10.2459 5.98871C10.2408 5.73619 10.2093 5.50568 10.1625 5.30118C10.0697 4.89234 9.91865 4.59235 9.83039 4.44524C10.1309 3.72431 10.4706 3.22468 10.7296 2.92126C10.8582 2.76675 10.9643 2.65646 11.0379 2.5848C11.0744 2.54852 11.1051 2.52524 11.1248 2.50863C11.1453 2.49257 11.1556 2.48445 11.1556 2.48445C11.0842 2.52741 11.012 2.58481 10.939 2.65195C10.8659 2.7182 10.7912 2.79292 10.7163 2.87325C10.6416 2.95375 10.5667 3.04003 10.4932 3.1292C10.4571 3.17396 10.4206 3.21945 10.3838 3.26512C10.3499 3.31295 10.3158 3.36078 10.2815 3.40916C10.1472 3.60193 10.0228 3.79669 9.91594 3.97286C9.88977 4.01673 9.86396 4.0595 9.83923 4.10102C9.81613 4.14362 9.79392 4.18495 9.77263 4.22412C9.73183 4.303 9.69465 4.37448 9.6627 4.43639C9.57624 4.51996 9.43996 4.65624 9.27949 4.8335C9.12282 5.01526 8.94773 5.2445 8.77301 5.49937C8.68384 5.625 8.60478 5.76687 8.52644 5.91109C8.44882 6.05586 8.375 6.20585 8.30857 6.35892C8.23962 6.50982 8.18962 6.67462 8.14395 6.83509C8.09973 6.997 8.06544 7.15945 8.04396 7.32118C8.02464 7.45655 8.0288 7.58489 8.04667 7.70239C8.06417 7.81972 8.09504 7.92622 8.13529 8.0226C8.21561 8.21574 8.33258 8.36899 8.45171 8.48902C8.69051 8.72837 8.93618 8.83667 8.93618 8.83667C8.93618 8.83667 9.00152 8.77223 9.10026 8.65924C9.15025 8.60328 9.20567 8.53306 9.27083 8.45689C9.33653 8.38108 9.40711 8.29571 9.47859 8.20203C9.54989 8.10817 9.62209 8.00654 9.6914 7.89788C9.75963 7.78849 9.83454 7.68092 9.89735 7.56341C10.027 7.33182 10.1237 7.0728 10.1789 6.81848Z" fill="url(#paint30_linear_53_1752)"/>
<path id="path428" d="M12.9286 4.66156C12.9822 4.53106 13.0258 4.40218 13.0609 4.27637C13.0955 4.14966 13.1217 4.02656 13.1434 3.9114C13.185 3.67837 13.1971 3.45924 13.1914 3.26231C13.18 2.86846 13.0952 2.56449 13.0405 2.41305C13.447 1.80891 13.8441 1.40801 14.1354 1.17733C14.2802 1.05892 14.3968 0.976795 14.4769 0.924449C14.5168 0.898457 14.5477 0.879506 14.5686 0.867412C14.5903 0.856401 14.6011 0.850988 14.6011 0.850988C14.4572 0.90929 14.2971 1.01091 14.1316 1.13095C14.0489 1.19123 13.9652 1.25676 13.882 1.32535C13.8405 1.35964 13.7989 1.39466 13.758 1.4304C13.7184 1.46812 13.6785 1.50603 13.6388 1.54411C13.3251 1.85187 13.0435 2.16378 12.8887 2.37388C12.7946 2.43507 12.6455 2.53561 12.4668 2.66955C12.4222 2.70312 12.3755 2.73832 12.3278 2.77622C12.2818 2.81647 12.2338 2.85799 12.1842 2.90131C12.0862 2.98867 11.9842 3.08361 11.8816 3.18542C11.8304 3.23632 11.7788 3.28884 11.7277 3.34281C11.7022 3.36989 11.6768 3.39733 11.651 3.42494C11.6268 3.45419 11.6024 3.48343 11.5777 3.51321C11.4807 3.63216 11.3862 3.75689 11.2977 3.88577C11.21 4.01591 11.1246 4.14551 11.0549 4.28684C10.9849 4.42781 10.9241 4.57185 10.875 4.71734C10.7929 4.96336 10.784 5.18014 10.8216 5.37382C10.8593 5.56768 10.9376 5.73176 11.0241 5.86515C11.1975 6.13193 11.4013 6.27832 11.4013 6.27832C11.4013 6.27832 11.419 6.26605 11.451 6.24385C11.4835 6.22164 11.5271 6.1859 11.5858 6.14619C11.7011 6.06497 11.8571 5.94692 12.0223 5.79963C12.1843 5.64801 12.3704 5.487 12.5296 5.29296C12.6103 5.19765 12.684 5.09351 12.7518 4.98863C12.8212 4.88539 12.8813 4.77618 12.9286 4.66156Z" fill="url(#paint31_linear_53_1752)"/>
<path id="path430" d="M15.7291 3.22365C16.0171 2.78666 16.1462 2.33757 16.2031 1.98144C16.2581 1.61971 16.23 1.32712 16.2049 1.17892C16.3218 1.056 16.4361 0.943732 16.5462 0.841748C16.6565 0.740487 16.7651 0.657455 16.8666 0.578756C17.0705 0.423885 17.252 0.305475 17.4018 0.216487C17.5529 0.132193 17.6734 0.0800285 17.755 0.0460944C17.8368 0.0127015 17.8803 -0.000115395 17.8803 -0.000115395C17.7399 0.0303893 17.5761 0.0914006 17.4056 0.172987C17.2366 0.260712 17.0604 0.367568 16.8917 0.478938C16.5512 0.695179 16.2512 0.959976 16.0716 1.11629C16.0235 1.1356 15.961 1.1616 15.8874 1.19391C15.8134 1.22586 15.7283 1.26466 15.6374 1.3152C15.4542 1.41358 15.2385 1.53884 15.0159 1.68776C14.9598 1.72404 14.9045 1.76466 14.8498 1.80816C14.7948 1.85094 14.7397 1.89534 14.685 1.941C14.5758 2.03252 14.4679 2.12945 14.3646 2.23143C14.3132 2.2827 14.2625 2.3345 14.2137 2.38847C14.1661 2.44442 14.1201 2.50164 14.0758 2.56013C13.9876 2.67637 13.9067 2.79731 13.8367 2.92167C13.5979 3.33773 13.6645 3.72869 13.7748 4.00197C13.8872 4.27724 14.0488 4.448 14.0488 4.448C14.0488 4.448 14.1231 4.41695 14.2406 4.35739C14.3603 4.30215 14.5253 4.22291 14.7031 4.11696C14.7921 4.06425 14.8843 4.0045 14.9767 3.93952C15.0711 3.87869 15.1655 3.81155 15.256 3.73808C15.3466 3.66444 15.4334 3.58447 15.513 3.49747C15.5529 3.45415 15.5906 3.40903 15.6265 3.36246C15.663 3.31787 15.6975 3.27148 15.7291 3.22365Z" fill="url(#paint32_linear_53_1752)"/>
<path id="path432" d="M5.50352 19.2948C5.50352 19.2948 5.51219 19.4436 5.52789 19.7172C5.53728 19.8542 5.54251 20.0226 5.55948 20.2188C5.58042 20.4147 5.60442 20.6387 5.63114 20.8883C5.64143 21.013 5.66579 21.1432 5.68637 21.2793C5.70785 21.4154 5.73005 21.5574 5.75316 21.7051C5.77283 21.8533 5.80929 22.0044 5.8407 22.1616C5.87337 22.3184 5.90713 22.4805 5.9416 22.6475C5.98239 22.813 6.02806 22.9823 6.07282 23.1565C6.09539 23.2437 6.11813 23.3318 6.14124 23.4209C6.16344 23.5105 6.19521 23.5984 6.22228 23.6888C6.27842 23.8688 6.33582 24.0527 6.3943 24.2404C6.46181 24.4251 6.5304 24.6133 6.60007 24.8049C6.89194 25.5655 7.24645 26.3629 7.69319 27.1478C8.13903 27.9322 8.66195 28.7102 9.25255 29.4472C9.84315 30.1838 10.4984 30.882 11.2009 31.5101C11.9041 32.1376 12.6491 32.6986 13.4016 33.1848C13.7743 33.4341 14.1501 33.6415 14.5055 33.8473C14.6876 33.942 14.8656 34.035 15.0396 34.1258C15.0831 34.1485 15.1264 34.1711 15.1694 34.1937C15.2125 34.2155 15.2569 34.2346 15.3003 34.2552C15.3871 34.2956 15.473 34.3357 15.558 34.3752C15.8947 34.5408 16.2279 34.6691 16.5416 34.8007C16.5809 34.8171 16.6199 34.8334 16.6587 34.8494C16.6981 34.8639 16.7374 34.8779 16.7764 34.8918C16.8542 34.92 16.9313 34.9478 17.0073 34.9752C17.1594 35.0297 17.3069 35.0857 17.4519 35.1357C17.5982 35.1814 17.7407 35.2258 17.8795 35.2693C17.9486 35.2911 18.017 35.3128 18.0845 35.3341C18.1518 35.3556 18.2181 35.377 18.2849 35.3933C18.5497 35.4637 18.8 35.5301 19.0365 35.5931C19.2737 35.6458 19.4969 35.6954 19.7069 35.7424C19.8112 35.7682 19.9134 35.7839 20.0115 35.8018C20.1097 35.8196 20.2045 35.8364 20.296 35.853C20.6608 35.9272 20.9745 35.961 21.2361 36.0017C21.4978 36.0456 21.7101 36.0622 21.8758 36.0828C22.2074 36.1212 22.3537 36.1452 22.3537 36.1452C22.3537 36.1452 22.2081 36.1616 21.8729 36.1835C21.7054 36.1932 21.49 36.2118 21.2227 36.2055C20.9554 36.2021 20.6336 36.2082 20.2567 36.1732C20.1619 36.166 20.0639 36.1586 19.9625 36.151C19.8606 36.1429 19.7547 36.1367 19.6466 36.1203C19.428 36.0904 19.1959 36.059 18.9489 36.0252C18.7025 35.9817 18.4417 35.9282 18.1638 35.8738C18.0941 35.8615 18.0246 35.8434 17.954 35.8254C17.8834 35.8073 17.8118 35.7893 17.7392 35.7709C17.5937 35.7335 17.4444 35.6951 17.2912 35.6557C17.139 35.6115 16.9844 35.5608 16.8248 35.5111C16.745 35.4859 16.6641 35.4602 16.5824 35.4344C16.5416 35.4213 16.5004 35.4081 16.4589 35.3951C16.4181 35.3799 16.3771 35.3644 16.336 35.3491C16.0066 35.2249 15.6571 35.1012 15.3041 34.9381C15.2149 34.8989 15.125 34.8592 15.0338 34.8193C14.9885 34.7987 14.9422 34.7798 14.8967 34.7579C14.8517 34.7353 14.8064 34.7126 14.7609 34.6899C14.579 34.598 14.3927 34.5043 14.2023 34.4085C13.8306 34.1994 13.4389 33.9854 13.0514 33.7269C12.2696 33.2217 11.5016 32.6302 10.7845 31.9659C10.0679 31.3011 9.40814 30.5605 8.82241 29.7807C8.23686 29.001 7.72857 28.1797 7.30457 27.3562C6.87985 26.5323 6.55459 25.7003 6.29575 24.9113C6.23438 24.7128 6.1721 24.5184 6.11506 24.3269C6.06543 24.1332 6.01669 23.9435 5.96904 23.7576C5.94647 23.6646 5.91904 23.574 5.90135 23.482C5.88276 23.3903 5.86435 23.2996 5.84611 23.2101C5.81038 23.0314 5.77337 22.8576 5.7416 22.6881C5.71597 22.5174 5.69106 22.3518 5.66706 22.1915C5.64413 22.0311 5.61634 21.8769 5.60515 21.7262C5.59052 21.5764 5.57644 21.432 5.56291 21.2939C5.55027 21.1556 5.53367 21.0241 5.53078 20.8977C5.51941 20.6459 5.50894 20.4197 5.50009 20.2219C5.49522 20.0246 5.50063 19.8553 5.50027 19.7179C5.50226 19.4438 5.50352 19.2948 5.50352 19.2948Z" fill="url(#paint33_linear_53_1752)"/>
<path id="path434" d="M0 30.7877C0 30.7877 0.468221 31.1705 1.27416 31.7996C1.67722 32.1138 2.16476 32.4898 2.72378 32.9048C3.28333 33.3181 3.91166 33.7772 4.60894 34.2271C5.30188 34.682 6.08364 35.0874 6.93976 35.4073C7.79534 35.726 8.71806 35.9569 9.6648 36.1047C10.6119 36.252 11.583 36.3162 12.5418 36.3081C12.7817 36.3002 13.0207 36.299 13.2586 36.2865C13.3772 36.2798 13.496 36.273 13.614 36.2663L13.7913 36.2562L13.9674 36.2407C14.2021 36.2199 14.4355 36.202 14.6658 36.1717C14.7813 36.1582 14.8963 36.1448 15.0107 36.1314C15.1264 36.1159 15.2416 36.1004 15.3562 36.0852C16.2742 35.962 17.1221 35.8452 17.9065 35.7851C18.6903 35.7228 19.4088 35.7105 20.0563 35.7538C20.7039 35.7961 21.279 35.8939 21.7774 36.0222C21.8398 36.0377 21.901 36.0531 21.9617 36.0684C22.0212 36.0867 22.0799 36.1047 22.1377 36.1224C22.2528 36.159 22.3644 36.1899 22.4712 36.2288C22.6851 36.3045 22.8812 36.3849 23.0577 36.4728C23.4113 36.6469 23.6911 36.8376 23.8977 37.0273C24.106 37.2155 24.2425 37.3975 24.3331 37.5456C24.3764 37.6215 24.4134 37.6857 24.4369 37.7448C24.4631 37.8018 24.4829 37.8488 24.4939 37.8877C24.5179 37.9628 24.5297 38 24.5297 38C24.5297 38 24.5095 37.9668 24.4685 37.9C24.4495 37.8652 24.4205 37.8242 24.3844 37.7749C24.3512 37.724 24.3037 37.6697 24.2504 37.6061C24.1396 37.4825 23.986 37.3361 23.7696 37.1903C23.5544 37.0431 23.2748 36.9009 22.929 36.7744C22.7561 36.7103 22.5653 36.6539 22.3584 36.6011C22.255 36.5738 22.1447 36.5538 22.0328 36.5282C21.9767 36.5159 21.9196 36.5035 21.8619 36.4906C21.8032 36.4808 21.7436 36.4706 21.6833 36.4603C21.2012 36.3751 20.652 36.3168 20.0327 36.3067C19.4133 36.2953 18.7251 36.332 17.9634 36.4102C17.2013 36.4861 16.3661 36.6112 15.4434 36.7352C15.3279 36.7506 15.2118 36.7659 15.0954 36.7813C14.977 36.7946 14.8582 36.808 14.7389 36.8215C14.5006 36.8513 14.2593 36.8683 14.0165 36.8872L13.8344 36.9013L13.6512 36.9098C13.5288 36.915 13.4062 36.9202 13.2833 36.9257C13.0375 36.9348 12.79 36.9323 12.5422 36.9356C11.5505 36.926 10.5467 36.8338 9.57076 36.6498C8.59514 36.4663 7.64715 36.191 6.77442 35.824C5.90259 35.4573 5.10676 34.9959 4.42464 34.4984C3.73874 34.0068 3.13388 33.5134 2.59544 33.0678C2.05826 32.6212 1.59275 32.2169 1.20882 31.8785C0.441146 31.2012 0 30.7877 0 30.7877Z" fill="url(#paint34_linear_53_1752)"/>
<path id="path436" d="M11.7842 31.3895C11.7842 31.3895 11.8446 31.3989 11.956 31.4202C12.0672 31.4417 12.2289 31.4756 12.4302 31.5289C12.8325 31.6341 13.3901 31.826 14.0078 32.1159C14.6273 32.4018 15.3047 32.7809 16.0011 33.1507C16.3498 33.3352 16.7043 33.5159 17.0613 33.6765C17.4175 33.8381 17.7781 33.9767 18.1306 34.0989C18.836 34.3433 19.4378 34.5001 19.9335 34.6259C20.4297 34.7505 20.8223 34.8384 21.1228 34.9093C21.4235 34.9785 21.6327 35.0295 21.7665 35.0633C21.9004 35.0971 21.9585 35.1147 21.9585 35.1147C21.9585 35.1147 21.8977 35.1135 21.76 35.1045C21.6223 35.0953 21.4075 35.077 21.0997 35.0402C20.7921 35.0019 20.3912 34.9463 19.8842 34.8449C19.3779 34.7422 18.7627 34.5994 18.0436 34.3503C17.6846 34.2256 17.316 34.0796 16.9545 33.9077C16.5928 33.7366 16.2382 33.5442 15.8931 33.3476C15.2038 32.9532 14.548 32.548 13.9489 32.235C13.352 31.9184 12.8118 31.6973 12.4183 31.5688C12.2217 31.5038 12.0629 31.4598 11.9535 31.4316C11.8439 31.4031 11.7842 31.3895 11.7842 31.3895Z" fill="url(#paint35_linear_53_1752)"/>
</g>
<defs>
<linearGradient id="paint0_linear_53_1752" x1="21.7416" y1="13.0552" x2="21.7416" y2="11.8583" gradientUnits="userSpaceOnUse">
<stop stop-color="#DBC992"/>
<stop offset="1" stop-color="#E8CD80"/>
</linearGradient>
<linearGradient id="paint1_linear_53_1752" x1="14.9575" y1="30.8545" x2="14.9575" y2="25.8753" gradientUnits="userSpaceOnUse">
<stop stop-color="#DBC992"/>
<stop offset="1" stop-color="#E8CD80"/>
</linearGradient>
<linearGradient id="paint2_linear_53_1752" x1="13.9699" y1="27.8188" x2="13.9699" y2="23.415" gradientUnits="userSpaceOnUse">
<stop stop-color="#DBC992"/>
<stop offset="1" stop-color="#E8CD80"/>
</linearGradient>
<linearGradient id="paint3_linear_53_1752" x1="13.859" y1="24.6265" x2="13.859" y2="21.0684" gradientUnits="userSpaceOnUse">
<stop stop-color="#DBC992"/>
<stop offset="1" stop-color="#E8CD80"/>
</linearGradient>
<linearGradient id="paint4_linear_53_1752" x1="14.3524" y1="21.6597" x2="14.3524" y2="18.9929" gradientUnits="userSpaceOnUse">
<stop stop-color="#DBC992"/>
<stop offset="1" stop-color="#E8CD80"/>
</linearGradient>
<linearGradient id="paint5_linear_53_1752" x1="15.3674" y1="19.1123" x2="15.3674" y2="17.2734" gradientUnits="userSpaceOnUse">
<stop stop-color="#DBC992"/>
<stop offset="1" stop-color="#E8CD80"/>
</linearGradient>
<linearGradient id="paint6_linear_53_1752" x1="16.7474" y1="17.053" x2="16.7474" y2="15.6516" gradientUnits="userSpaceOnUse">
<stop stop-color="#DBC992"/>
<stop offset="1" stop-color="#E8CD80"/>
</linearGradient>
<linearGradient id="paint7_linear_53_1752" x1="18.3233" y1="15.4905" x2="18.3233" y2="14.2516" gradientUnits="userSpaceOnUse">
<stop stop-color="#DBC992"/>
<stop offset="1" stop-color="#E8CD80"/>
</linearGradient>
<linearGradient id="paint8_linear_53_1752" x1="19.9583" y1="14.4153" x2="19.9583" y2="13.2673" gradientUnits="userSpaceOnUse">
<stop stop-color="#DBC992"/>
<stop offset="1" stop-color="#E8CD80"/>
</linearGradient>
<linearGradient id="paint9_linear_53_1752" x1="12.2565" y1="31.5486" x2="12.2565" y2="27.4008" gradientUnits="userSpaceOnUse">
<stop stop-color="#DBC992"/>
<stop offset="1" stop-color="#E8CD80"/>
</linearGradient>
<linearGradient id="paint10_linear_53_1752" x1="11.1874" y1="28.1482" x2="11.1874" y2="23.2597" gradientUnits="userSpaceOnUse">
<stop stop-color="#DBC992"/>
<stop offset="1" stop-color="#E8CD80"/>
</linearGradient>
<linearGradient id="paint11_linear_53_1752" x1="11.1415" y1="24.6968" x2="11.1415" y2="19.4924" gradientUnits="userSpaceOnUse">
<stop stop-color="#DBC992"/>
<stop offset="1" stop-color="#E8CD80"/>
</linearGradient>
<linearGradient id="paint12_linear_53_1752" x1="11.8013" y1="21.5149" x2="11.8013" y2="16.3263" gradientUnits="userSpaceOnUse">
<stop stop-color="#DBC992"/>
<stop offset="1" stop-color="#E8CD80"/>
</linearGradient>
<linearGradient id="paint13_linear_53_1752" x1="13.0784" y1="18.7534" x2="13.0784" y2="13.8705" gradientUnits="userSpaceOnUse">
<stop stop-color="#DBC992"/>
<stop offset="1" stop-color="#E8CD80"/>
</linearGradient>
<linearGradient id="paint14_linear_53_1752" x1="15.0719" y1="16.4768" x2="15.0719" y2="12.1141" gradientUnits="userSpaceOnUse">
<stop stop-color="#DBC992"/>
<stop offset="1" stop-color="#E8CD80"/>
</linearGradient>
<linearGradient id="paint15_linear_53_1752" x1="17.2057" y1="14.7197" x2="17.2057" y2="10.9924" gradientUnits="userSpaceOnUse">
<stop stop-color="#DBC992"/>
<stop offset="1" stop-color="#E8CD80"/>
</linearGradient>
<linearGradient id="paint16_linear_53_1752" x1="19.3185" y1="13.4626" x2="19.3185" y2="10.4077" gradientUnits="userSpaceOnUse">
<stop stop-color="#DBC992"/>
<stop offset="1" stop-color="#E8CD80"/>
</linearGradient>
<linearGradient id="paint17_linear_53_1752" x1="18.0391" y1="35.2742" x2="18.0391" y2="23.659" gradientUnits="userSpaceOnUse">
<stop stop-color="#DBC992"/>
<stop offset="1" stop-color="#E8CD80"/>
</linearGradient>
<linearGradient id="paint18_linear_53_1752" x1="19.3024" y1="3.85449" x2="19.3024" y2="2.11039" gradientUnits="userSpaceOnUse">
<stop stop-color="#DBC992"/>
<stop offset="1" stop-color="#E8CD80"/>
</linearGradient>
<linearGradient id="paint19_linear_53_1752" x1="9.42387" y1="29.7712" x2="9.42387" y2="22.5216" gradientUnits="userSpaceOnUse">
<stop stop-color="#DBC992"/>
<stop offset="1" stop-color="#E8CD80"/>
</linearGradient>
<linearGradient id="paint20_linear_53_1752" x1="7.98583" y1="25.3511" x2="7.98583" y2="18.9389" gradientUnits="userSpaceOnUse">
<stop stop-color="#DBC992"/>
<stop offset="1" stop-color="#E8CD80"/>
</linearGradient>
<linearGradient id="paint21_linear_53_1752" x1="7.82466" y1="20.7034" x2="7.82466" y2="15.5223" gradientUnits="userSpaceOnUse">
<stop stop-color="#DBC992"/>
<stop offset="1" stop-color="#E8CD80"/>
</linearGradient>
<linearGradient id="paint22_linear_53_1752" x1="8.54312" y1="16.3833" x2="8.54312" y2="12.5005" gradientUnits="userSpaceOnUse">
<stop stop-color="#DBC992"/>
<stop offset="1" stop-color="#E8CD80"/>
</linearGradient>
<linearGradient id="paint23_linear_53_1752" x1="10.0207" y1="12.6741" x2="10.0207" y2="9.9965" gradientUnits="userSpaceOnUse">
<stop stop-color="#DBC992"/>
<stop offset="1" stop-color="#E8CD80"/>
</linearGradient>
<linearGradient id="paint24_linear_53_1752" x1="12.0296" y1="9.67529" x2="12.0296" y2="7.63512" gradientUnits="userSpaceOnUse">
<stop stop-color="#DBC992"/>
<stop offset="1" stop-color="#E8CD80"/>
</linearGradient>
<linearGradient id="paint25_linear_53_1752" x1="14.3247" y1="7.40039" x2="14.3247" y2="5.5967" gradientUnits="userSpaceOnUse">
<stop stop-color="#DBC992"/>
<stop offset="1" stop-color="#E8CD80"/>
</linearGradient>
<linearGradient id="paint26_linear_53_1752" x1="16.7049" y1="5.83496" x2="16.7049" y2="4.16366" gradientUnits="userSpaceOnUse">
<stop stop-color="#DBC992"/>
<stop offset="1" stop-color="#E8CD80"/>
</linearGradient>
<linearGradient id="paint27_linear_53_1752" x1="5.49143" y1="30.7815" x2="5.49143" y2="24.7424" gradientUnits="userSpaceOnUse">
<stop stop-color="#DBC992"/>
<stop offset="1" stop-color="#E8CD80"/>
</linearGradient>
<linearGradient id="paint28_linear_53_1752" x1="3.93406" y1="25.8308" x2="3.93406" y2="18.7128" gradientUnits="userSpaceOnUse">
<stop stop-color="#DBC992"/>
<stop offset="1" stop-color="#E8CD80"/>
</linearGradient>
<linearGradient id="paint29_linear_53_1752" x1="6.68794" y1="12.1514" x2="6.68794" y2="5.04194" gradientUnits="userSpaceOnUse">
<stop stop-color="#DBC992"/>
<stop offset="1" stop-color="#E8CD80"/>
</linearGradient>
<linearGradient id="paint30_linear_53_1752" x1="9.59067" y1="8.83667" x2="9.59067" y2="2.48445" gradientUnits="userSpaceOnUse">
<stop stop-color="#DBC992"/>
<stop offset="1" stop-color="#E8CD80"/>
</linearGradient>
<linearGradient id="paint31_linear_53_1752" x1="12.6973" y1="6.27832" x2="12.6973" y2="0.850988" gradientUnits="userSpaceOnUse">
<stop stop-color="#DBC992"/>
<stop offset="1" stop-color="#E8CD80"/>
</linearGradient>
<linearGradient id="paint32_linear_53_1752" x1="15.7738" y1="4.448" x2="15.7738" y2="-0.000115395" gradientUnits="userSpaceOnUse">
<stop stop-color="#DBC992"/>
<stop offset="1" stop-color="#E8CD80"/>
</linearGradient>
<linearGradient id="paint33_linear_53_1752" x1="13.9109" y1="36.2068" x2="13.9109" y2="19.2948" gradientUnits="userSpaceOnUse">
<stop stop-color="#DBC992"/>
<stop offset="1" stop-color="#E8CD80"/>
</linearGradient>
<linearGradient id="paint34_linear_53_1752" x1="12.2431" y1="38" x2="12.2431" y2="30.7877" gradientUnits="userSpaceOnUse">
<stop stop-color="#DBC992"/>
<stop offset="1" stop-color="#E8CD80"/>
</linearGradient>
<linearGradient id="paint35_linear_53_1752" x1="16.8623" y1="35.1147" x2="16.8623" y2="31.3895" gradientUnits="userSpaceOnUse">
<stop stop-color="#DBC992"/>
<stop offset="1" stop-color="#E8CD80"/>
</linearGradient>
</defs>
</svg>
