<svg width="70" height="70" viewBox="0 0 70 70" fill="none" xmlns="http://www.w3.org/2000/svg">
<circle cx="35" cy="35" r="35" fill="#E88484"/>
<path fill-rule="evenodd" clip-rule="evenodd" d="M34.6728 23.0188C33.0541 23.2244 31.7516 23.7969 30.5767 24.8194C29.8435 25.4575 29.3288 26.1444 28.8444 27.1315C28.2691 28.3037 28.1141 29.132 28.1141 31.0336V32.3622L27.2875 32.3624C26.3218 32.3626 26.1583 32.4181 26.058 32.7795C25.9823 33.0519 25.9799 45.677 26.0554 46.1992C26.1617 46.934 26.6779 47.606 27.3419 47.8742L27.6534 48H35.3774H43.1014L43.413 47.8742C44.0769 47.606 44.5931 46.934 44.6994 46.1992C44.7749 45.677 44.7725 33.0519 44.6968 32.7795C44.5965 32.4181 44.433 32.3626 43.4673 32.3624L42.6407 32.3622V31.0336C42.6407 29.5964 42.5831 29.0554 42.3395 28.2043C42.1891 27.6792 41.7327 26.707 41.4111 26.2266C40.3465 24.6368 38.6965 23.5273 36.8265 23.1439C36.289 23.0338 35.0994 22.9647 34.6728 23.0188ZM36.2334 26.2126C36.8526 26.3368 37.6632 26.7538 38.1356 27.1912C38.5922 27.6139 38.8347 27.9348 39.0937 28.4587C39.4437 29.167 39.5034 29.5128 39.5366 31.0207L39.566 32.3622H35.3774H31.1888L31.2182 31.0207C31.2426 29.9122 31.2667 29.6072 31.3574 29.2652C31.6761 28.0628 32.4523 27.1085 33.5514 26.5675C33.8573 26.417 34.2729 26.2605 34.483 26.2167C34.9884 26.1114 35.7202 26.1096 36.2334 26.2126ZM36.1228 36.7098C36.7031 36.9238 37.2138 37.4953 37.3811 38.1179C37.5572 38.7733 37.3405 39.5769 36.8543 40.0722L36.602 40.3292L36.7742 41.8477C36.8839 42.8149 36.9295 43.4102 36.8999 43.4878C36.8743 43.5547 36.7992 43.6583 36.733 43.7179C36.6201 43.8196 36.5364 43.8263 35.3774 43.8263C34.2184 43.8263 34.1347 43.8196 34.0218 43.7179C33.9556 43.6583 33.8805 43.5547 33.8549 43.4878C33.8253 43.4102 33.8709 42.8149 33.9806 41.8477L34.1528 40.3292L33.9005 40.0722C33.4143 39.5769 33.1976 38.7733 33.3737 38.1179C33.6958 36.9192 34.9492 36.2772 36.1228 36.7098Z" fill="white"/>
</svg>
