<svg width="83" height="70" viewBox="0 0 83 70" fill="none" xmlns="http://www.w3.org/2000/svg">
<g id="&#208;&#152;&#208;&#186;&#208;&#190;&#208;&#189;&#208;&#186;&#208;&#176;">
<g id="&#208;&#152;&#208;&#186;&#208;&#190;&#208;&#189;&#208;&#186;&#208;&#176;_2">
<circle id="Ellipse 38" cx="48" cy="35" r="35" fill="#E88484"/>
<path id="icon" fill-rule="evenodd" clip-rule="evenodd" d="M44.47 25.1424C43.9746 25.4584 43.9489 25.7409 44.2039 28.062C44.2987 28.9242 44.5222 31.0138 44.7007 32.7054L45.0252 35.7811L44.8892 36.0554C44.7083 36.42 44.4606 36.6021 44.0913 36.6421C43.7146 36.6828 43.3559 36.4951 43.1672 36.1587C43.026 35.907 43.0247 35.8964 42.4992 30.9057C42.1608 27.6929 42.1799 27.8155 42.0282 27.8764C41.7586 27.9847 40.7556 28.804 40.1209 29.4344C39.013 30.5349 38.1805 31.7054 37.4912 33.1321C36.4052 35.38 35.9482 37.5867 36.0079 40.2937L36.0179 40.7494H48.0028H59.9876L59.9942 40.2572C60.0317 37.4396 59.6065 35.3928 58.5143 33.1321C57.6061 31.2521 56.1919 29.4996 54.6467 28.3388C53.9449 27.8116 53.8718 27.7815 53.8259 28.0006C53.8063 28.0946 53.6151 29.8612 53.4011 31.9265C53.18 34.061 52.9662 35.8151 52.9059 35.9907C52.7589 36.4187 52.4589 36.6296 51.997 36.6296C51.5702 36.6296 51.3204 36.4668 51.1165 36.0555L50.9805 35.7813L51.3395 32.3774C51.537 30.5052 51.7606 28.4156 51.8364 27.7338C52.054 25.7776 52.0158 25.4488 51.5356 25.1424C51.3226 25.0065 51.1628 25 48.0028 25C44.8427 25 44.6829 25.0065 44.47 25.1424ZM34.9894 42.9613C33.9128 43.3698 33.6536 44.829 34.5166 45.6221C34.6611 45.7547 34.8561 45.8939 34.9502 45.9313C35.1804 46.0229 60.8251 46.0229 61.0554 45.9313C61.3337 45.8206 61.7421 45.4023 61.8784 45.0886C62.0413 44.7133 62.0404 44.1481 61.8764 43.7702C61.7219 43.4142 61.3326 43.0613 60.9686 42.9471C60.5806 42.8255 35.3109 42.8392 34.9894 42.9613Z" fill="white"/>
</g>
<g id="&#208;&#147;&#208;&#176;&#208;&#187;&#208;&#190;&#209;&#135;&#208;&#186;&#208;&#176;">
<g id="Ellipse 42" filter="url(#filter0_i_53_1667)">
<circle cx="12.5" cy="34.5" r="12.5" fill="#FDCACA"/>
</g>
<path id="icon_2" fill-rule="evenodd" clip-rule="evenodd" d="M9.48861 31.4886L9 31.9772L10.2613 33.2386L11.5227 34.5L10.2613 35.7614L9 37.0228L9.48861 37.5114L9.97721 38L11.2386 36.7387L12.5 35.4773L13.7614 36.7387L15.0228 38L15.5114 37.5114L16 37.0228L14.7387 35.7614L13.4773 34.5L14.7387 33.2386L16 31.9772L15.5114 31.4886L15.0228 31L13.7614 32.2613L12.5 33.5227L11.2386 32.2613L9.97721 31L9.48861 31.4886Z" fill="white"/>
</g>
</g>
<defs>
<filter id="filter0_i_53_1667" x="0" y="22" width="25" height="25" filterUnits="userSpaceOnUse" color-interpolation-filters="sRGB">
<feFlood flood-opacity="0" result="BackgroundImageFix"/>
<feBlend mode="normal" in="SourceGraphic" in2="BackgroundImageFix" result="shape"/>
<feColorMatrix in="SourceAlpha" type="matrix" values="0 0 0 0 0 0 0 0 0 0 0 0 0 0 0 0 0 0 127 0" result="hardAlpha"/>
<feOffset/>
<feGaussianBlur stdDeviation="10.5"/>
<feComposite in2="hardAlpha" operator="arithmetic" k2="-1" k3="1"/>
<feColorMatrix type="matrix" values="0 0 0 0 1 0 0 0 0 1 0 0 0 0 1 0 0 0 0.23 0"/>
<feBlend mode="normal" in2="shape" result="effect1_innerShadow_53_1667"/>
</filter>
</defs>
</svg>
