<svg width="83" height="70" viewBox="0 0 83 70" fill="none" xmlns="http://www.w3.org/2000/svg">
<circle cx="48" cy="35" r="35" fill="#E88484"/>
<path fill-rule="evenodd" clip-rule="evenodd" d="M39.9186 25.0692C39.6123 25.1775 39.3863 25.4303 39.2939 25.7677C39.2512 25.9239 39.2342 29.1929 39.2455 35.1455L39.2628 44.2835L39.4167 44.531C39.7213 45.0209 40.3932 45.1508 40.844 44.8071C41.2914 44.4658 41.263 45.1299 41.263 35.004C41.263 24.9141 41.2886 25.5369 40.8601 25.2167C40.5747 25.0035 40.2487 24.9524 39.9186 25.0692ZM55.6905 25.0174C55.4444 25.063 55.0981 25.353 54.9949 25.5999C54.9183 25.7834 54.9035 27.2984 54.9035 35.004C54.9035 45.1299 54.8751 44.4658 55.3226 44.8071C55.7733 45.1508 56.4452 45.0209 56.7498 44.531L56.9037 44.2835V35.004V25.7245L56.7498 25.477C56.5303 25.1239 56.1069 24.9402 55.6905 25.0174ZM36.6568 28.0529C36.5097 28.1329 36.3588 28.2896 36.2797 28.4446C36.1503 28.6983 36.1478 28.821 36.1478 35.004C36.1478 41.1894 36.1502 41.3096 36.2798 41.5636C36.4568 41.9104 36.8469 42.1135 37.2489 42.0682C37.5887 42.0299 37.8335 41.8664 38.0168 41.555C38.1456 41.3365 38.148 41.2145 38.148 35.004C38.148 28.7935 38.1456 28.6715 38.0168 28.4529C37.8259 28.1287 37.5802 27.9722 37.2183 27.9442C36.9891 27.9265 36.8345 27.9564 36.6568 28.0529ZM43.0009 28.014C42.7269 28.1358 42.5341 28.3673 42.4501 28.6756C42.35 29.0428 42.35 40.9652 42.4501 41.3324C42.536 41.6475 42.7295 41.8749 43.0152 41.9967C43.4916 42.1997 44.0543 41.9946 44.2757 41.5373C44.4092 41.2615 44.4108 41.185 44.4108 35.004C44.4108 28.823 44.4092 28.7465 44.2757 28.4707C44.0543 28.0132 43.4719 27.8046 43.0009 28.014ZM52.3001 28.0578C52.1034 28.1551 51.9862 28.2736 51.8902 28.472C51.7575 28.7461 51.7557 28.8322 51.7557 35.004C51.7557 41.185 51.7573 41.2615 51.8908 41.5373C52.1122 41.9946 52.6749 42.1997 53.1514 41.9967C53.437 41.8749 53.6306 41.6475 53.7165 41.3324C53.8165 40.9652 53.8165 29.0428 53.7165 28.6756C53.6306 28.3605 53.437 28.133 53.1514 28.0113C52.8574 27.8861 52.621 27.899 52.3001 28.0578ZM58.5773 28.0363C58.2704 28.1904 58.0685 28.512 58.0193 28.9248C57.9969 29.1123 57.9876 31.9808 57.9986 35.2991C58.0181 41.1957 58.0215 41.3375 58.1497 41.555C58.3331 41.8664 58.5778 42.0299 58.9176 42.0682C59.3196 42.1135 59.7098 41.9104 59.8867 41.5636C60.0163 41.3096 60.0187 41.1894 60.0187 35.004C60.0187 28.8185 60.0163 28.6984 59.8867 28.4444C59.6508 27.982 59.055 27.7963 58.5773 28.0363ZM49.1721 29.6439C48.6459 29.9457 48.6735 29.6489 48.6735 35.004C48.6735 39.5099 48.6799 39.7726 48.7951 39.9891C48.9428 40.2667 49.3459 40.5105 49.6572 40.5105C49.9685 40.5105 50.3715 40.2667 50.5193 39.9891C50.6344 39.7726 50.6409 39.5099 50.6409 35.004C50.6409 30.4981 50.6344 30.2354 50.5193 30.0189C50.3715 29.7413 49.9685 29.4975 49.6572 29.4975C49.5309 29.4975 49.3127 29.5634 49.1721 29.6439ZM33.459 31.02C33.3402 31.1012 33.1882 31.2704 33.1215 31.3961C33.0077 31.61 33 31.8409 33 35.004C33 38.1671 33.0077 38.398 33.1215 38.6119C33.3018 38.9513 33.6107 39.1355 33.9997 39.1355C34.3909 39.1355 34.6613 38.9907 34.8571 38.6764C34.9994 38.4482 35.0002 38.4282 35.0002 35.004C35.0002 31.5798 34.9994 31.5598 34.8571 31.3316C34.6613 31.0173 34.3909 30.8725 33.9997 30.8725C33.771 30.8725 33.6114 30.916 33.459 31.02ZM61.6323 30.9985C61.5279 31.0673 61.3803 31.2218 61.3044 31.3417C61.1686 31.5562 61.1664 31.6152 61.1664 35.0033C61.1664 38.4283 61.1671 38.4482 61.3094 38.6764C61.7156 39.3283 62.6835 39.2923 63.0451 38.6119C63.1588 38.398 63.1665 38.1671 63.1665 35.004C63.1665 31.8409 63.1588 31.61 63.0451 31.3961C62.7822 30.9014 62.0795 30.7037 61.6323 30.9985ZM46.0005 31.2001C45.8829 31.2717 45.7282 31.4265 45.6565 31.5441C45.531 31.7498 45.5261 31.8803 45.5261 35.004C45.5261 38.1277 45.531 38.2582 45.6565 38.4639C46.0427 39.0973 46.976 39.0973 47.3622 38.4639C47.4877 38.2582 47.4926 38.1277 47.4926 35.004C47.4926 31.8803 47.4877 31.7498 47.3622 31.5441C47.0841 31.0879 46.448 30.9272 46.0005 31.2001Z" fill="white"/>
<g filter="url(#filter0_i_53_1645)">
<circle cx="12.5" cy="35.5" r="12.5" fill="#FDCACA"/>
</g>
<path fill-rule="evenodd" clip-rule="evenodd" d="M9.48861 32.4886L9 32.9772L10.2613 34.2386L11.5227 35.5L10.2613 36.7614L9 38.0228L9.48861 38.5114L9.97721 39L11.2386 37.7387L12.5 36.4773L13.7614 37.7387L15.0228 39L15.5114 38.5114L16 38.0228L14.7387 36.7614L13.4773 35.5L14.7387 34.2386L16 32.9772L15.5114 32.4886L15.0228 32L13.7614 33.2613L12.5 34.5227L11.2386 33.2613L9.97721 32L9.48861 32.4886Z" fill="white"/>
<defs>
<filter id="filter0_i_53_1645" x="0" y="23" width="25" height="25" filterUnits="userSpaceOnUse" color-interpolation-filters="sRGB">
<feFlood flood-opacity="0" result="BackgroundImageFix"/>
<feBlend mode="normal" in="SourceGraphic" in2="BackgroundImageFix" result="shape"/>
<feColorMatrix in="SourceAlpha" type="matrix" values="0 0 0 0 0 0 0 0 0 0 0 0 0 0 0 0 0 0 127 0" result="hardAlpha"/>
<feOffset/>
<feGaussianBlur stdDeviation="10.5"/>
<feComposite in2="hardAlpha" operator="arithmetic" k2="-1" k3="1"/>
<feColorMatrix type="matrix" values="0 0 0 0 1 0 0 0 0 1 0 0 0 0 1 0 0 0 0.23 0"/>
<feBlend mode="normal" in2="shape" result="effect1_innerShadow_53_1645"/>
</filter>
</defs>
</svg>
