<svg width="150" height="150" viewBox="0 0 150 150" fill="none" xmlns="http://www.w3.org/2000/svg">
<circle cx="75" cy="75" r="75" fill="url(#paint0_linear_53_1965)"/>
<circle cx="75" cy="75" r="73" stroke="url(#paint1_linear_53_1965)" stroke-opacity="0.5" stroke-width="4"/>
<path d="M33.1884 95V86.6H37.3284C38.1204 86.6 38.7484 86.808 39.2124 87.224C39.6764 87.632 39.9084 88.144 39.9084 88.76C39.9084 89.376 39.6964 89.848 39.2724 90.176C39.0964 90.312 38.8884 90.42 38.6484 90.5V90.56C38.9444 90.624 39.2044 90.732 39.4284 90.884C39.9484 91.26 40.2084 91.832 40.2084 92.6C40.2084 93.312 39.9524 93.892 39.4404 94.34C38.9284 94.78 38.2044 95 37.2684 95H33.1884ZM34.5684 90.02H37.2684C37.6524 90.02 37.9484 89.924 38.1564 89.732C38.3644 89.54 38.4684 89.272 38.4684 88.928C38.4684 88.624 38.3644 88.38 38.1564 88.196C37.9484 88.012 37.6524 87.92 37.2684 87.92H34.5684V90.02ZM34.5684 93.68H37.2084C38.2484 93.68 38.7684 93.28 38.7684 92.48C38.7684 91.68 38.2484 91.28 37.2084 91.28H34.5684V93.68ZM42.1894 95L44.3494 86.6H47.7694L49.9894 95H48.5494L47.9734 92.84H44.1094L43.5694 95H42.1894ZM44.4694 91.52H47.6374L46.6894 87.92H45.3694L44.4694 91.52ZM52.2056 95V86.6H55.8656C56.8336 86.6 57.6136 86.872 58.2056 87.416C58.8056 87.952 59.1056 88.62 59.1056 89.42C59.1056 90.22 58.8056 90.892 58.2056 91.436C57.6136 91.972 56.8336 92.24 55.8656 92.24H53.5856V95H52.2056ZM53.5856 90.92H55.8656C56.4496 90.92 56.8936 90.788 57.1976 90.524C57.5096 90.252 57.6656 89.884 57.6656 89.42C57.6656 88.956 57.5096 88.592 57.1976 88.328C56.8936 88.056 56.4496 87.92 55.8656 87.92H53.5856V90.92ZM61.5033 95V86.6H62.8833V92.18L62.7633 93.26H62.8833L66.6633 86.6H68.5233V95H67.1433V89.42L67.2633 88.34H67.1433L63.3633 95H61.5033ZM70.7386 95L72.8986 86.6H76.3186L78.5386 95H77.0986L76.5226 92.84H72.6586L72.1186 95H70.7386ZM73.0186 91.52H76.1866L75.2386 87.92H73.9186L73.0186 91.52ZM80.7548 95V86.6H82.1348V90.08H86.2748V86.6H87.6548V95H86.2748V91.4H82.1348V95H80.7548ZM89.813 87.92V86.6H96.713V87.92H93.953V95H92.573V87.92H89.813ZM99.7937 93.968C98.9377 93.12 98.5097 92.064 98.5097 90.8C98.5097 89.536 98.9377 88.48 99.7937 87.632C100.65 86.784 101.722 86.36 103.01 86.36C104.298 86.36 105.37 86.784 106.226 87.632C107.082 88.48 107.51 89.536 107.51 90.8C107.51 92.064 107.082 93.12 106.226 93.968C105.37 94.816 104.298 95.24 103.01 95.24C101.722 95.24 100.65 94.816 99.7937 93.968ZM100.802 88.544C100.234 89.12 99.9497 89.872 99.9497 90.8C99.9497 91.728 100.234 92.48 100.802 93.056C101.37 93.632 102.106 93.92 103.01 93.92C103.906 93.92 104.638 93.632 105.206 93.056C105.782 92.48 106.07 91.728 106.07 90.8C106.07 89.872 105.782 89.12 105.206 88.544C104.638 87.968 103.906 87.68 103.01 87.68C102.106 87.68 101.37 87.968 100.802 88.544ZM110.031 95V86.6H114.171C114.963 86.6 115.591 86.808 116.055 87.224C116.519 87.632 116.751 88.144 116.751 88.76C116.751 89.376 116.539 89.848 116.115 90.176C115.939 90.312 115.731 90.42 115.491 90.5V90.56C115.787 90.624 116.047 90.732 116.271 90.884C116.791 91.26 117.051 91.832 117.051 92.6C117.051 93.312 116.795 93.892 116.283 94.34C115.771 94.78 115.047 95 114.111 95H110.031ZM111.411 90.02H114.111C114.495 90.02 114.791 89.924 114.999 89.732C115.207 89.54 115.311 89.272 115.311 88.928C115.311 88.624 115.207 88.38 114.999 88.196C114.791 88.012 114.495 87.92 114.111 87.92H111.411V90.02ZM111.411 93.68H114.051C115.091 93.68 115.611 93.28 115.611 92.48C115.611 91.68 115.091 91.28 114.051 91.28H111.411V93.68Z" fill="white"/>
<path d="M48.132 76H42.492V75.6C43.0787 75.6 43.4654 75.44 43.652 75.12C43.8654 74.7733 43.972 74.28 43.972 73.64V54.48C43.972 54.2133 43.8387 54.08 43.572 54.08C43.492 54.08 43.3454 54.12 43.132 54.2L38.572 55.64V54.2L47.892 50.96V52.04C46.8787 52.4667 46.4387 53.2267 46.572 54.32V73.48C46.572 74.8933 47.092 75.6 48.132 75.6V76ZM52.8198 63.6C52.8198 59.7067 53.7132 56.64 55.4998 54.4C57.3132 52.1333 59.4332 51 61.8598 51C64.2865 51 66.3932 52.1333 68.1798 54.4C69.9932 56.64 70.8998 59.7067 70.8998 63.6C70.8998 67.52 69.9932 70.64 68.1798 72.96C66.3932 75.2533 64.2865 76.4 61.8598 76.4C59.4598 76.4 57.3532 75.2533 55.5398 72.96C53.7265 70.64 52.8198 67.52 52.8198 63.6ZM68.3798 64.64C68.3798 60.9867 67.6465 58.0933 66.1798 55.96C64.7398 53.8267 63.0465 52.76 61.0998 52.76C59.3398 52.76 57.9132 53.68 56.8198 55.52C55.7265 57.36 55.1798 59.5467 55.1798 62.08C55.1798 64.08 55.4732 66.04 56.0598 67.96C56.6465 69.88 57.4998 71.4933 58.6198 72.8C59.7665 74.1067 61.0332 74.76 62.4198 74.76C64.0465 74.76 65.4465 73.8533 66.6198 72.04C67.7932 70.2267 68.3798 67.76 68.3798 64.64ZM74.148 63.6C74.148 59.7067 75.0413 56.64 76.828 54.4C78.6413 52.1333 80.7613 51 83.188 51C85.6146 51 87.7213 52.1333 89.508 54.4C91.3213 56.64 92.228 59.7067 92.228 63.6C92.228 67.52 91.3213 70.64 89.508 72.96C87.7213 75.2533 85.6146 76.4 83.188 76.4C80.788 76.4 78.6813 75.2533 76.868 72.96C75.0546 70.64 74.148 67.52 74.148 63.6ZM89.708 64.64C89.708 60.9867 88.9746 58.0933 87.508 55.96C86.068 53.8267 84.3746 52.76 82.428 52.76C80.668 52.76 79.2413 53.68 78.148 55.52C77.0546 57.36 76.508 59.5467 76.508 62.08C76.508 64.08 76.8013 66.04 77.388 67.96C77.9746 69.88 78.828 71.4933 79.948 72.8C81.0946 74.1067 82.3613 74.76 83.748 74.76C85.3746 74.76 86.7746 73.8533 87.948 72.04C89.1213 70.2267 89.708 67.76 89.708 64.64ZM104.196 55.08V61.92H110.996V63.84H104.196V70.64H102.236V63.84H95.3961V61.92H102.236V55.08H104.196Z" fill="white"/>
<defs>
<linearGradient id="paint0_linear_53_1965" x1="75" y1="155.625" x2="75" y2="-6.26119e-07" gradientUnits="userSpaceOnUse">
<stop stop-color="#6189E0"/>
<stop offset="1" stop-color="#7DA4F4"/>
</linearGradient>
<linearGradient id="paint1_linear_53_1965" x1="-13" y1="18" x2="75" y2="150" gradientUnits="userSpaceOnUse">
<stop stop-color="white"/>
<stop offset="1" stop-color="white" stop-opacity="0"/>
</linearGradient>
</defs>
</svg>
